<!-- Generator: Adobe Illustrator 21.1.0, SVG Export Plug-In  -->
<svg version="1.1"
	 xmlns="http://www.w3.org/2000/svg" xmlns:xlink="http://www.w3.org/1999/xlink" xmlns:a="http://ns.adobe.com/AdobeSVGViewerExtensions/3.0/"
	 x="0px" y="0px" width="191.9px" height="278.7px" viewBox="0 0 191.9 278.7" style="enable-background:new 0 0 191.9 278.7;"
	 xml:space="preserve">
<style type="text/css">
	.st0{fill:#FFF200;}
</style>
<defs>
</defs>
<g>
	<g>
		<path class="st0" d="M188.7,4.6v269.1c0,1-0.8,1.9-1.9,1.9h-42.7c-1.1,0-1.9-0.8-1.9-1.9c0,1-0.8,1.9-1.9,1.9H97.6
			c-1,0-1.9-0.8-1.9-1.9c0,1-0.8,1.9-1.9,1.9H51.1c-1.1,0-1.9-0.8-1.9-1.9c0,1-0.8,1.9-1.9,1.9H4.6c-1.1,0-1.9-0.8-1.9-1.9V4.6
			c0-1,0.8-1.9,1.9-1.9h42.7c1.1,0,1.9,0.9,1.9,1.9c0-1,0.8-1.9,1.9-1.9h42.7c1.1,0,1.9,0.9,1.9,1.9c0-1,0.8-1.9,1.9-1.9h42.7
			c1,0,1.9,0.9,1.9,1.9c0-1,0.8-1.9,1.9-1.9h42.7C187.8,2.7,188.7,3.5,188.7,4.6z"/>
		<path class="st0" d="M190.1,4.6c0,3.3-0.3,6.6-0.4,9.9c-0.1,3.3,0,6.6,0,9.9l0.2,19.9l0.2,19.9l0.3,19.9l0.6,39.7l0.3,19.9
			l0.2,19.9c0.3,26.5,0.3,53,0.4,79.4l0,19.9l0,9.9l0,0.6l0,0.3l0,0.3c0,0.1,0,0.3,0,0.4c-0.1,1.1-0.7,2.1-1.4,2.9
			c-0.8,0.8-1.8,1.3-2.9,1.4c-0.1,0-0.3,0-0.4,0l-0.3,0l-0.3,0l-0.6,0l-5,0l-19.9-0.1l-9.9,0l-5,0l-1.2,0l-0.6,0l-0.2,0l-0.4,0
			c-0.3,0-0.5-0.1-0.8-0.1c-2.1-0.5-3.6-2.6-3.6-4.7h5.9c0,1.3-0.5,2.6-1.5,3.5c-0.5,0.4-1,0.8-1.6,1c-0.3,0.1-0.6,0.2-0.9,0.3
			c-0.2,0-0.3,0-0.5,0.1l-0.4,0l-3,0l-6.1,0l-12.2-0.1l-12.2-0.1l-6.1,0l-3,0l-0.4,0c-0.2,0-0.3,0-0.5-0.1c-0.3-0.1-0.6-0.1-0.9-0.2
			c-0.6-0.2-1.1-0.6-1.6-1c-0.9-0.9-1.4-2.1-1.4-3.3h5.4c0,1.2-0.5,2.5-1.4,3.3c-0.4,0.4-1,0.8-1.5,1c-0.3,0.1-0.6,0.2-0.9,0.2
			c-0.2,0-0.3,0-0.5,0.1l-0.4,0l-3,0l-6.1,0l-12.2-0.1L60.3,278l-6.1-0.1l-3,0l-0.3,0c-0.1,0-0.3,0-0.4-0.1c-0.3,0-0.6-0.1-0.8-0.2
			c-0.5-0.2-1-0.5-1.4-0.9c-0.8-0.8-1.3-1.9-1.3-3h4.6c0,1-0.4,2.1-1.1,2.8c-0.7,0.8-1.7,1.2-2.8,1.3c-0.3,0-0.4,0-0.5,0l-0.4,0
			l-0.7,0l-1.4,0l-5.7-0.1l-11.5-0.2l-23-0.3c-0.9-0.1-1.8-0.5-2.4-1.1c-0.6-0.6-1-1.5-0.9-2.4l0-2.9l0.1-5.7l0.1-11.5l0.2-22.9
			c0.2-15.3,0.3-30.5,0.2-45.8l-0.3-45.8L0.3,47.5L0.1,24.6L0,13.2l0-5.7l0-2.9c0-1.1,0.5-2.3,1.2-3.1C2,0.6,3.1,0.1,4.3,0l5.9,0
			l5.7,0l11.5,0l11.5,0l5.7,0l3,0c1.1,0.1,2.3,0.6,3,1.4c0.8,0.8,1.2,2,1.2,3.1h-5.3c0-1.2,0.5-2.4,1.4-3.3c0.4-0.4,1-0.8,1.5-1
			c0.3-0.1,0.6-0.2,0.9-0.2c0.1,0,0.3,0,0.4-0.1l0.4,0l3,0l6.1,0l12.2,0.1l12.2,0.1l6.1,0l3,0l0.4,0c0.1,0,0.3,0,0.4,0.1
			c0.3,0,0.6,0.1,0.8,0.2c0.5,0.2,1,0.5,1.4,0.9c0.8,0.8,1.3,1.9,1.3,3.1h-4.7c0-1.1,0.5-2.3,1.3-3c0.4-0.4,0.9-0.7,1.4-0.9
			c0.3-0.1,0.5-0.2,0.8-0.2c0.1,0,0.3,0,0.4,0l0.3,0l3,0l6.1,0.1l12.2,0.1l12.2,0.1l6.1,0.1l3,0l0.3,0c0.1,0,0.3,0,0.4,0
			c0.3,0,0.5,0.1,0.7,0.2c0.5,0.2,0.9,0.5,1.3,0.8c0.7,0.7,1.1,1.7,1.1,2.7h-3.7c0-1,0.4-2,1.2-2.7c0.4-0.3,0.8-0.6,1.3-0.8
			c0.4-0.2,1-0.3,1.4-0.2l3,0l6.1,0.1l12.2,0.1l12.2,0.1l6.1,0.1l3,0c0.8,0,1.8,0.3,2.4,0.9C189.7,2.8,190.1,3.7,190.1,4.6z
			 M187.3,4.6c0-0.3-0.2-0.5-0.6-0.5l-3,0l-6.1,0.1l-12.2,0.1l-12.2,0.1l-6.1,0.1l-3,0c-0.1,0-0.1,0-0.1,0.1l-2.4,2.9l-1.3-2.9
			c0,0,0,0,0,0l0,0l0,0l0,0c0,0,0,0-0.1,0l-3,0l-6.1,0.1l-12.2,0.1l-12.2,0.1L100.7,5l-3,0c-0.1,0,0,0,0,0l0,0c0,0,0.1,0,0.1,0
			c0.1,0,0.1-0.1,0.2-0.1C98,4.8,98,4.7,98,4.6h-4.7c0,0.1,0,0.3,0.1,0.3c0,0,0.1,0.1,0.2,0.1c0,0,0.1,0,0.1,0c0,0,0,0,0,0
			c0,0,0.1,0,0,0l-3,0l-6.1,0L72.4,5.2L60.3,5.3l-6.1,0l-3,0c-0.1,0,0,0,0,0l0.1,0c0,0,0.1,0,0.1,0c0.1,0,0.2-0.1,0.2-0.2
			c0.1-0.1,0.2-0.3,0.2-0.5h-5.3c0,0.4,0.3,0.7,0.7,0.7l-2.7,0l-5.7,0l-11.5,0l-22.7,0C5,5.4,5.3,5,5.3,4.6l0,2.9l0,5.7L5.3,24.6
			L5.1,47.5l-1.2,91.6L3.6,185c0,15.3,0.1,30.5,0.2,45.8l0.2,22.9l0.1,11.5l0.1,5.7l0,2.9c0,0.1,0.1,0.2,0.3,0.2l22.8-0.3l11.5-0.2
			l5.7-0.1l2.7,0c-0.2,0-0.4,0.2-0.4,0.3h4.6c0-0.1,0-0.2-0.1-0.3c0,0-0.1-0.1-0.1-0.1c0,0-0.1,0-0.1,0c0,0,0,0,0,0c0,0-0.1,0,0,0
			l3,0l6.1-0.1l12.2-0.1l12.2-0.1l6.1,0l3,0c0.1,0,0,0,0,0l-0.1,0c-0.1,0-0.1,0-0.2,0c-0.1,0-0.2,0.1-0.3,0.2
			c-0.2,0.1-0.3,0.4-0.3,0.6h5.4c0-0.2-0.1-0.4-0.2-0.6c-0.1-0.1-0.2-0.1-0.3-0.2c-0.1,0-0.1,0-0.2,0l-0.1,0c0,0-0.1,0,0,0l3,0
			l6.1,0l12.2-0.1l12.2-0.1l6.1,0l3,0c0.1,0,0,0,0,0l-0.1,0c-0.1,0-0.1,0-0.2,0.1c-0.1,0.1-0.3,0.1-0.4,0.2
			c-0.2,0.2-0.3,0.5-0.3,0.7h5.9c0-0.5-0.3-0.9-0.8-1c-0.1,0-0.1,0-0.2,0c0,0-0.1,0-0.1,0c-0.1,0,0.1,0,0.1,0l0.6,0l1.2,0l5,0l9.9,0
			l19.9-0.1l5,0l0.6,0l0.3,0l0.1,0l0,0l-0.1,0c-0.3,0-0.5,0.2-0.7,0.3c-0.2,0.2-0.3,0.4-0.4,0.7l0,0.1c0,0,0,0.1,0,0l0-0.3l0-0.6
			l0-9.9l0-19.9c0.1-26.5,0.1-53,0.4-79.4l0.2-19.9l0.3-19.9l0.6-39.7l0.3-19.9l0.2-19.9l0.2-19.9c0-3.3,0.1-6.6,0-9.9
			C187.6,11.2,187.3,7.9,187.3,4.6z"/>
	</g>
</g>
</svg>
