<!-- Generator: Adobe Illustrator 21.1.0, SVG Export Plug-In  -->
<svg version="1.1"
	 xmlns="http://www.w3.org/2000/svg" xmlns:xlink="http://www.w3.org/1999/xlink" xmlns:a="http://ns.adobe.com/AdobeSVGViewerExtensions/3.0/"
	 x="0px" y="0px" width="199.1px" height="276.1px" viewBox="0 0 199.1 276.1" style="enable-background:new 0 0 199.1 276.1;"
	 xml:space="preserve">
<style type="text/css">
	.st0{fill:#FFFFFF;}
</style>
<defs>
</defs>
<g>
	<g>
		<path class="st0" d="M52.2,274.6H9.5c-1,0-1.9-0.8-1.9-1.9V3.5c0-1,0.8-1.9,1.9-1.9h42.7c1,0,1.9,0.8,1.9,1.9v269.1
			C54.1,273.7,53.3,274.6,52.2,274.6z"/>
		<path d="M52.2,275.9c-3.3,0-6.6-0.5-9.9-0.4l-9.9,0.2L12.5,276l-2.5,0l-0.3,0c-0.1,0-0.2,0-0.4,0c-0.4,0-0.7-0.1-1.1-0.2
			c-0.7-0.3-1.3-0.8-1.7-1.4c-0.2-0.3-0.3-0.7-0.4-1.1c0-0.2-0.1-0.4-0.1-0.6l0-0.4l0-1.2l-0.1-2.5l-0.2-9.9l-0.4-19.9
			c-0.6-26.5-0.7-53-0.8-79.4c0-13.2,0-26.5,0.1-39.7L4.8,80C4.9,66.8,5,53.5,5.2,40.3l0.4-19.9l0.2-9.9l0.1-5l0-1.2l0-0.6
			c0-0.1,0-0.3,0-0.5C6,3,6,2.8,6.1,2.6C6.5,1.1,8,0,9.5,0l39.7,0.6l2.5,0c0.2,0,0.4,0,0.7,0c0.3,0,0.6,0.1,0.9,0.2
			c0.6,0.2,1.1,0.7,1.4,1.2C54.8,2.4,55,2.7,55,3c0.1,0.3,0.1,0.6,0,0.8l0,1.2l0,2.5l0,9.9c0,6.6,0.1,13.2,0.2,19.9l0.3,19.9
			L55.9,77l0.7,39.7c0.2,13.2,0.3,26.5,0.2,39.7c0,13.2,0,26.5-0.2,39.7c-0.1,13.2-0.3,26.5-0.5,39.7l-0.3,19.9l-0.1,9.9l-0.1,5
			l0,1.2l0,0.6c0,0.1,0,0.3,0,0.4c0,0.2-0.1,0.4-0.1,0.5C55.1,274.9,53.7,276,52.2,275.9z M52.2,273.2c0.2,0,0.4-0.2,0.5-0.4
			c0,0,0-0.1,0-0.1c0,0,0,0,0-0.2l0-0.6l0-1.2l-0.1-5l-0.1-9.9l-0.3-19.9c-0.2-13.2-0.4-26.5-0.5-39.7c-0.2-13.2-0.2-26.5-0.2-39.7
			c0-13.2,0.1-26.5,0.2-39.7L52.4,77l0.4-19.9l0.3-19.9c0-6.6,0.2-13.2,0.2-19.9l0-9.9l0-2.5l0-1.2c0-0.2,0-0.3,0-0.4
			c0-0.1-0.1-0.2-0.1-0.3c-0.1-0.2-0.3-0.3-0.5-0.4c-0.1,0-0.2-0.1-0.3-0.1c-0.1,0-0.4,0-0.6,0l-2.5,0L9.5,3.3
			c-0.1,0-0.2,0.1-0.2,0.2l0,2l0.1,5l0.2,9.9L10,40.3c0.2,13.2,0.3,26.5,0.4,39.7l0.3,39.7c0.1,13.2,0.1,26.5,0.1,39.7
			c-0.1,26.5-0.2,53-0.8,79.4l-0.4,19.9l-0.2,9.9l-0.1,2.5l0,1.2l0,0.3c0,0,0,0.1,0,0.1c0,0.1,0.1,0.1,0.1,0.2c0,0,0.1,0,0.1,0
			c0,0,0.1,0,0.2,0l0.3,0l2.5,0l19.9,0.3l9.9,0.2C45.6,273.7,48.9,273.2,52.2,273.2z"/>
	</g>
	<g>
		<path class="st0" d="M98.8,274.6H56c-1,0-1.9-0.8-1.9-1.9V3.5c0-1,0.8-1.9,1.9-1.9h42.7c1,0,1.9,0.8,1.9,1.9v269.1
			C100.6,273.7,99.8,274.6,98.8,274.6z"/>
		<path d="M98.8,274.9L78.9,275c-6.6,0.1-13.2,0.2-19.9,0.4l-2.5,0.1c-0.2,0-0.4,0-0.7,0c-0.3,0-0.6-0.1-0.9-0.2
			c-0.6-0.2-1.1-0.6-1.4-1.2c-0.2-0.3-0.3-0.6-0.3-0.9c-0.1-0.3-0.1-0.6-0.1-0.8l0-1.2l-0.1-2.5l-0.3-9.9l-0.6-19.9
			c-0.2-6.6-0.4-13.2-0.6-19.9l-0.2-9.9l-0.1-9.9c-0.1-6.6-0.1-13.2-0.2-19.9l-0.1-19.9l0-19.9c0-6.6,0-13.2,0.1-19.9L51.3,80
			c0.1-13.2,0.2-26.5,0.4-39.7l0.4-19.9l0.2-9.9l0.1-5l0-1.2l0-0.6c0-0.1,0-0.3,0-0.5c0-0.2,0.1-0.4,0.1-0.6C53,1.1,54.5,0,56,0
			l19.9,0.4l9.9,0.2l9.9,0.1l2.5,0c0.2,0,0.4,0,0.7,0c0.3,0,0.6,0.1,0.9,0.2c0.6,0.2,1.1,0.7,1.4,1.2c0.2,0.3,0.3,0.6,0.3,0.9
			c0.1,0.3,0.1,0.6,0.1,0.8l0,1.2l0,2.5l0,9.9c0,6.6,0,13.2,0.1,19.9l0.3,19.9l0.4,19.9l0.8,39.7c0.4,26.5,0.2,53-0.6,79.4
			c-0.4,13.2-0.8,26.5-1.1,39.7c-0.2,6.6-0.2,13.2-0.4,19.9c-0.1,3.3,0,6.6-0.1,9.9l0,5l0,1.2c0,0.4,0,0.8-0.1,1.3
			C100.6,274.2,99.7,274.9,98.8,274.9z M98.8,274.3c0.7,0,1.4-0.5,1.5-1.2c0.1-0.3,0-0.7,0.1-1.2l0-1.2l0-5c0-3.3,0-6.6-0.1-9.9
			c-0.1-6.6-0.2-13.2-0.4-19.9c-0.3-13.2-0.8-26.5-1.1-39.7c-0.8-26.5-1-53-0.6-79.4L99,77l0.4-19.9l0.3-19.9
			c0-6.6,0.1-13.2,0.1-19.9l0-9.9l0-2.5l0-1.2c0-0.2,0-0.3,0-0.4c0-0.1-0.1-0.2-0.1-0.3c-0.1-0.2-0.3-0.3-0.5-0.4
			c-0.1,0-0.2-0.1-0.3-0.1c-0.1,0-0.4,0-0.6,0l-2.5,0l-9.9,0.1l-9.9,0.2L56,3.3c-0.1,0-0.2,0.1-0.2,0.2l0,2l0.1,5l0.2,9.9l0.4,19.9
			C56.8,53.5,56.9,66.8,57,80l0.3,39.7c0.1,6.6,0.1,13.2,0.1,19.9l0,19.9l-0.1,19.9c0,6.6-0.1,13.2-0.2,19.9l-0.1,9.9l-0.2,9.9
			c-0.1,6.6-0.4,13.2-0.6,19.9l-0.6,19.9l-0.3,9.9l-0.1,2.5l0,1.2c0,0.2,0,0.3,0,0.4c0,0.1,0,0.2,0.1,0.3c0.1,0.2,0.3,0.3,0.5,0.4
			c0.1,0,0.2,0.1,0.3,0.1c0.1,0,0.4,0,0.6,0l2.5,0.1c6.6,0.2,13.2,0.3,19.9,0.4L98.8,274.3z"/>
	</g>
	<g>
		<path class="st0" d="M145.3,274.6h-42.7c-1,0-1.9-0.8-1.9-1.9V3.5c0-1,0.8-1.9,1.9-1.9h42.7c1,0,1.9,0.8,1.9,1.9v269.1
			C147.2,273.7,146.3,274.6,145.3,274.6z"/>
		<path d="M145.3,274.9l-19.9,0.1c-6.6,0.1-13.2,0.2-19.9,0.4l-2.5,0.1c-0.2,0-0.4,0-0.7,0c-0.3,0-0.6-0.1-0.9-0.2
			c-0.6-0.2-1.1-0.6-1.4-1.2c-0.2-0.3-0.3-0.6-0.3-0.9c-0.1-0.3-0.1-0.6-0.1-0.8l0-1.2l-0.1-2.5l-0.3-9.9l-0.6-19.9
			c-0.2-6.6-0.4-13.2-0.6-19.9l-0.2-9.9l-0.1-9.9c-0.1-6.6-0.1-13.2-0.2-19.9l-0.1-19.9l0-19.9c0-6.6,0-13.2,0.1-19.9L97.8,80
			c0.1-13.2,0.2-26.5,0.4-39.7l0.4-19.9l0.2-9.9l0.1-5l0-1.2l0-0.6c0-0.1,0-0.3,0-0.5C99,3,99,2.8,99.1,2.6C99.5,1.1,101,0,102.5,0
			l19.9,0.4l9.9,0.2l9.9,0.1l2.5,0c0.2,0,0.4,0,0.7,0c0.3,0,0.6,0.1,0.9,0.2c0.6,0.2,1.1,0.7,1.4,1.2c0.2,0.3,0.3,0.6,0.3,0.9
			c0.1,0.3,0.1,0.6,0.1,0.8l0,1.2l0,2.5l0,9.9c0,6.6,0,13.2,0.1,19.9l0.3,19.9l0.4,19.9l0.8,39.7c0.4,26.5,0.2,53-0.6,79.4
			c-0.4,13.2-0.8,26.5-1.1,39.7c-0.2,6.6-0.2,13.2-0.4,19.9c-0.1,3.3,0,6.6-0.1,9.9l0,5l0,1.2c0,0.4,0,0.8-0.1,1.3
			C147.2,274.2,146.2,274.9,145.3,274.9z M145.3,274.3c0.7,0,1.4-0.5,1.5-1.2c0.1-0.3,0-0.7,0.1-1.2l0-1.2l0-5c0-3.3,0-6.6-0.1-9.9
			c-0.1-6.6-0.2-13.2-0.4-19.9c-0.3-13.2-0.8-26.5-1.1-39.7c-0.8-26.5-1-53-0.6-79.4l0.8-39.7l0.4-19.9l0.3-19.9
			c0-6.6,0.1-13.2,0.1-19.9l0-9.9l0-2.5l0-1.2c0-0.2,0-0.3,0-0.4c0-0.1-0.1-0.2-0.1-0.3c-0.1-0.2-0.3-0.3-0.5-0.4
			c-0.1,0-0.2-0.1-0.3-0.1c-0.1,0-0.4,0-0.6,0l-2.5,0l-9.9,0.1l-9.9,0.2l-19.9,0.4c-0.1,0-0.2,0.1-0.2,0.2l0,2l0.1,5l0.2,9.9
			l0.4,19.9c0.2,13.2,0.3,26.5,0.4,39.7l0.3,39.7c0.1,6.6,0.1,13.2,0.1,19.9l0,19.9l-0.1,19.9c0,6.6-0.1,13.2-0.2,19.9l-0.1,9.9
			l-0.2,9.9c-0.1,6.6-0.4,13.2-0.6,19.9l-0.6,19.9l-0.3,9.9l-0.1,2.5l0,1.2c0,0.2,0,0.3,0,0.4c0,0.1,0,0.2,0.1,0.3
			c0.1,0.2,0.3,0.3,0.5,0.4c0.1,0,0.2,0.1,0.3,0.1c0.1,0,0.4,0,0.6,0l2.5,0.1c6.6,0.2,13.2,0.3,19.9,0.4L145.3,274.3z"/>
	</g>
	<g>
		<path class="st0" d="M191.8,274.6h-42.7c-1,0-1.9-0.8-1.9-1.9V3.5c0-1,0.8-1.9,1.9-1.9h42.7c1,0,1.9,0.8,1.9,1.9v269.1
			C193.7,273.7,192.8,274.6,191.8,274.6z"/>
		<path d="M191.8,275.9c-3.3,0-6.6-0.5-9.9-0.4l-9.9,0.2L152,276l-2.5,0l-0.3,0c-0.1,0-0.2,0-0.4,0c-0.4,0-0.7-0.1-1.1-0.2
			c-0.7-0.3-1.3-0.8-1.7-1.4c-0.2-0.3-0.3-0.7-0.4-1.1c0-0.2-0.1-0.4-0.1-0.6l0-0.4l0-1.2l-0.1-2.5l-0.2-9.9l-0.4-19.9
			c-0.6-26.5-0.7-53-0.8-79.4c0-13.2,0-26.5,0.1-39.7l0.3-39.7c0.1-13.2,0.2-26.5,0.4-39.7l0.4-19.9l0.2-9.9l0.1-5l0-1.2l0-0.6
			c0-0.1,0-0.3,0-0.5c0-0.2,0.1-0.4,0.1-0.6c0.4-1.5,1.9-2.6,3.4-2.6l39.7,0.6l2.5,0c0.2,0,0.4,0,0.7,0c0.3,0,0.6,0.1,0.9,0.2
			c0.6,0.2,1.1,0.7,1.4,1.2c0.2,0.3,0.3,0.6,0.3,0.9c0.1,0.3,0.1,0.6,0,0.8l0,1.2l0,2.5l0,9.9c0,6.6,0.1,13.2,0.2,19.9l0.3,19.9
			l0.4,19.9l0.7,39.7c0.2,13.2,0.3,26.5,0.2,39.7c0,13.2,0,26.5-0.2,39.7c-0.1,13.2-0.3,26.5-0.5,39.7l-0.3,19.9l-0.1,9.9l-0.1,5
			l0,1.2l0,0.6c0,0.1,0,0.3,0,0.4c0,0.2-0.1,0.4-0.1,0.5C194.6,274.9,193.2,276,191.8,275.9z M191.8,273.2c0.2,0,0.4-0.2,0.5-0.4
			c0,0,0-0.1,0-0.1c0,0,0,0,0-0.2l0-0.6l0-1.2l-0.1-5l-0.1-9.9l-0.3-19.9c-0.2-13.2-0.4-26.5-0.5-39.7c-0.2-13.2-0.2-26.5-0.2-39.7
			c0-13.2,0.1-26.5,0.2-39.7l0.7-39.7l0.4-19.9l0.3-19.9c0-6.6,0.2-13.2,0.2-19.9l0-9.9l0-2.5l0-1.2c0-0.2,0-0.3,0-0.4
			c0-0.1-0.1-0.2-0.1-0.3c-0.1-0.2-0.3-0.3-0.5-0.4c-0.1,0-0.2-0.1-0.3-0.1c-0.1,0-0.4,0-0.6,0l-2.5,0l-39.7,0.6
			c-0.1,0-0.2,0.1-0.2,0.2l0,2l0.1,5l0.2,9.9l0.4,19.9c0.2,13.2,0.3,26.5,0.4,39.7l0.3,39.7c0.1,13.2,0.1,26.5,0.1,39.7
			c-0.1,26.5-0.2,53-0.8,79.4l-0.4,19.9l-0.2,9.9l-0.1,2.5l0,1.2l0,0.3c0,0,0,0.1,0,0.1c0,0.1,0.1,0.1,0.1,0.2c0,0,0.1,0,0.1,0
			c0,0,0.1,0,0.2,0l0.3,0l2.5,0l19.9,0.3l9.9,0.2C185.1,273.7,188.5,273.2,191.8,273.2z"/>
	</g>
	<g>
		<path class="st0" d="M178.8,30.5V65c0,1-0.8,1.9-1.9,1.9H24.4c-1,0-1.9-0.8-1.9-1.9V30.5c0-1,0.8-1.9,1.9-1.9h152.6
			C178,28.6,178.8,29.5,178.8,30.5z"/>
		<g>
			<g>
				<path d="M178.8,30.5c-1.2,5-1.9,8.4-1.9,14.4c0,3.7,0,11.1,0,20c-20.9,0-45.5,0-69,0c-24.3,0-47.5,0-64.6,0
					c-7.9,0-14.4,0-18.9,0c0-3.9,0-6.2,0-6.2s0-11,0-28.2c0-0.1,0-0.1,0-0.1v0l0,0l0,0l0,0l0,0l0,0h0l0.1,0c1.1,0,2.3,0,3.4,0
					c2.3,0,4.7,0,7.2,0c5,0,10.2,0,15.7,0c11,0,22.8,0,35,0c32.5,0,67.9,0,79.7,0c3,0,5.3-0.2,7.6-0.5c1.1-0.2,2.2-0.4,3.3-0.6
					c0.2-0.1,0.5-0.1,0.7-0.2c0.2,0,0.4,0,0.6,0.1C178.2,29.5,178.7,29.9,178.8,30.5c0.2-0.6,0-1.4-0.5-1.9
					c-0.3-0.3-0.6-0.5-0.9-0.6c-0.4-0.1-0.7-0.2-0.9-0.2c-1.1-0.2-2.2-0.4-3.3-0.6c-2.2-0.3-4.6-0.5-7.6-0.5c-11.8,0-47.2,0-79.7,0
					c-12.1,0-24,0-35,0c-5.5,0-10.7,0-15.7,0c-2.5,0-4.9,0-7.2,0c-1.2,0-2.3,0-3.4,0l-0.3,0c-0.1,0-0.3,0-0.4,0
					c-0.3,0-0.5,0.1-0.8,0.2c-0.5,0.2-1,0.5-1.4,0.9c-0.4,0.4-0.7,0.9-0.9,1.4c-0.1,0.3-0.2,0.5-0.2,0.8c0,0.1,0,0.3,0,0.4
					c0,0.1,0,0.3,0,0.3c0,17.1,0,28.2,0,28.2s0,0.7,0,2c0,0.7,0,1.5,0,2.4c0,0.5,0,1,0,1.5V65c0,0.1,0,0.3,0,0.4
					c0,0.3,0.1,0.6,0.2,0.8c0.2,0.6,0.5,1.1,0.9,1.5c0.4,0.4,1,0.8,1.6,1c0.3,0.1,0.6,0.2,1,0.2c0.4,0,0.4,0,0.6,0
					c0.7,0,1.4,0,2.1,0c1.5,0,3.1,0,4.8,0c3.4,0,7.3,0,11.6,0c17.1,0,40.3,0,64.6,0c12.1,0,24.6,0,36.6,0c6,0,12,0,17.8,0
					c2.9,0,5.7,0,8.5,0c1.4,0,2.8,0,4.2,0l1,0l0.5,0c0.2,0,0.2,0,0.7,0c1.4-0.1,2.6-0.9,3.2-2.2c0.1-0.3,0.3-0.6,0.3-1
					c0-0.2,0.1-0.3,0.1-0.5l0-0.3l0-0.1l0-1c0-0.7,0-1.3,0-2c0-1.3,0-2.6,0-3.9c0-2.4,0-4.8,0-7.1c0-0.9,0-1.7,0-2.5
					c0-1.5,0-2.7,0-3.5C180.8,38.9,180.1,35.5,178.8,30.5z"/>
			</g>
		</g>
	</g>
	<g>
		<path class="st0" d="M181.2,199.6v34.5c0,1-0.8,1.9-1.9,1.9H22c-1,0-1.9-0.8-1.9-1.9v-34.5c0-1,0.8-1.9,1.9-1.9h157.3
			C180.3,197.7,181.2,198.6,181.2,199.6z"/>
		<g>
			<g>
				<path d="M181.2,199.6c-1.2,5-1.9,8.4-1.9,14.4c0,3.7,0,11.1,0,20c-21.6,0-47,0-71.3,0c-24.9,0-48.8,0-66.3,0
					c-8.1,0-14.8,0-19.5,0c0-4.1,0-6.4,0-6.4s0-1.3,0-6.7c0-2.7,0-6.4,0-11.4c0-2.5,0-5.4,0-8.6c0-0.4,0-0.8,0-1.2v-0.2c0,0,0,0,0,0
					l0,0l0,0l0,0l0,0l0.6,0c1.8,0,3.7,0,5.7,0c16,0,116.2,0,139.4,0c3,0,5.3-0.2,7.6-0.5c1.1-0.2,2.2-0.4,3.3-0.6
					c0.2-0.1,0.5-0.1,0.7-0.2c0.2,0,0.4,0,0.6,0.1C180.6,198.6,181,199,181.2,199.6c0.2-0.6,0-1.4-0.5-1.9c-0.3-0.3-0.6-0.5-0.9-0.6
					c-0.4-0.1-0.7-0.2-0.9-0.2c-1.1-0.2-2.2-0.4-3.3-0.6c-2.2-0.3-4.6-0.5-7.6-0.5c-23.2,0-123.4,0-139.4,0c-2,0-3.9,0-5.7,0l-0.7,0
					c-0.4,0-0.9,0.1-1.3,0.2c-0.8,0.3-1.5,0.9-2,1.6c-0.2,0.4-0.4,0.8-0.5,1.2c0,0.2-0.1,0.4-0.1,0.6c0,0.1,0,0.2,0,0.3v0.2
					c0,0.4,0,0.8,0,1.2c0,3.2,0,6.1,0,8.6c0,5,0,8.7,0,11.4c0,5.4,0,6.7,0,6.7s0,0.7,0,2c0,0.7,0,1.5,0,2.5c0,0.5,0,1,0,1.6
					c0,0.1,0,0.9,0.2,1.4c0.2,0.6,0.5,1.1,0.9,1.6c0.4,0.5,1,0.8,1.6,1c0.3,0.1,0.6,0.2,1,0.2l0.2,0l0.1,0h0.3c0.7,0,1.4,0,2.2,0
					c1.5,0,3.2,0,4.9,0c3.5,0,7.5,0,11.9,0c17.6,0,41.4,0,66.3,0c12.5,0,25.2,0,37.6,0c6.2,0,12.3,0,18.3,0c3,0,5.9,0,8.8,0
					c1.4,0,2.9,0,4.3,0c0.7,0,1.4,0,2.1,0l0.3,0c0.1,0,0.3,0,0.5,0c0.3,0,0.7-0.1,1-0.2c0.6-0.2,1.2-0.7,1.6-1.2
					c0.4-0.5,0.7-1.2,0.8-1.9c0-0.2,0-0.3,0-0.5l0-0.3v-0.5c0-0.7,0-1.4,0-2c0-1.3,0-2.7,0-4c0-2.5,0-4.9,0-7.2c0-0.9,0-1.7,0-2.5
					c0-1.5,0-2.7,0-3.5C183.1,208,182.4,204.6,181.2,199.6z"/>
			</g>
		</g>
	</g>
	<g>
		<circle class="st0" cx="54.1" cy="47.8" r="2.6"/>
		<path d="M57.2,47.8c0,0.4,0.2,0.8,0.5,1.5c0.3,0.7,0.6,1.6,0.5,2.6c-0.1,1-0.6,1.9-1.4,2.4c-0.8,0.5-1.8,0.6-2.7,0.3
			c-0.9-0.3-1.6-1.1-2-1.8c-0.4-0.8-0.7-1.5-0.9-2c-0.3-0.5-0.6-0.9-1-1.3c-0.4-0.4-0.9-0.9-1.4-1.6c-0.5-0.7-0.8-1.6-0.8-2.5
			c0-0.9,0.4-1.8,0.9-2.6c0.5-0.8,1.3-1.5,2.2-2.1c0.9-0.5,2-0.8,3-0.7c1,0.1,2,0.4,2.8,1.1c0.8,0.6,1.3,1.7,1.3,2.7
			c0.1,1-0.3,2-0.5,2.7C57.5,47,57.2,47.4,57.2,47.8z M56.2,47.8c0-0.3-0.4-0.5-0.9-0.5c-0.6,0-1.3,0.4-1.7,1
			c-0.4,0.5-0.5,1.2-0.3,1.6c0.2,0.4,0.5,0.6,0.9,0.7c0.4,0.1,0.7,0,1-0.3c0.3-0.3,0.4-0.6,0.5-0.9c0.1-0.3,0.1-0.6-0.2-1
			c-0.2-0.3-0.7-0.5-1.2-0.6c-0.4,0-0.9,0.2-1,0.3c-0.1,0.2-0.1,0.4,0.1,0.3c0.2,0,0.6-0.3,0.8-0.9c0.2-0.5,0.1-1.1-0.1-1.4
			c-0.2-0.3-0.5-0.4-0.7-0.1c-0.2,0.2-0.1,0.8,0.3,1.3c0.4,0.5,1.1,0.9,1.6,0.9C55.9,48.3,56.3,48.1,56.2,47.8z"/>
	</g>
	<g>
		<circle class="st0" cx="100.6" cy="47.8" r="2.6"/>
		<path d="M103.7,47.8c0,0.4,0.2,0.8,0.5,1.5c0.3,0.7,0.6,1.6,0.5,2.6c-0.1,1-0.6,1.9-1.4,2.4c-0.8,0.5-1.8,0.6-2.7,0.3
			c-0.9-0.3-1.6-1.1-2-1.8c-0.4-0.8-0.7-1.5-0.9-2c-0.3-0.5-0.6-0.9-1-1.3c-0.4-0.4-0.9-0.9-1.4-1.6c-0.5-0.7-0.8-1.6-0.8-2.5
			c0-0.9,0.4-1.8,0.9-2.6c0.5-0.8,1.3-1.5,2.2-2.1c0.9-0.5,2-0.8,3-0.7c1,0.1,2,0.4,2.8,1.1c0.8,0.6,1.3,1.7,1.3,2.7
			c0.1,1-0.3,2-0.5,2.7C104,47,103.7,47.4,103.7,47.8z M102.7,47.8c0-0.3-0.4-0.5-0.9-0.5c-0.6,0-1.3,0.4-1.7,1
			c-0.4,0.5-0.5,1.2-0.3,1.6c0.2,0.4,0.5,0.6,0.9,0.7c0.4,0.1,0.7,0,1-0.3c0.3-0.3,0.4-0.6,0.5-0.9c0.1-0.3,0.1-0.6-0.2-1
			c-0.2-0.3-0.7-0.5-1.2-0.6c-0.4,0-0.9,0.2-1,0.3c-0.1,0.2-0.1,0.4,0.1,0.3c0.2,0,0.6-0.3,0.8-0.9c0.2-0.5,0.1-1.1-0.1-1.4
			c-0.2-0.3-0.5-0.4-0.7-0.1c-0.2,0.2-0.1,0.8,0.3,1.3c0.4,0.5,1.1,0.9,1.6,0.9C102.4,48.3,102.8,48.1,102.7,47.8z"/>
	</g>
	<g>
		<circle class="st0" cx="149.7" cy="47.8" r="2.6"/>
		<path d="M152.8,47.8c0,0.4,0.2,0.8,0.5,1.5c0.3,0.7,0.6,1.6,0.5,2.6c-0.1,1-0.6,1.9-1.4,2.4c-0.8,0.5-1.8,0.6-2.7,0.3
			c-0.9-0.3-1.6-1.1-2-1.8c-0.4-0.8-0.7-1.5-0.9-2c-0.3-0.5-0.6-0.9-1-1.3c-0.4-0.4-0.9-0.9-1.4-1.6c-0.5-0.7-0.8-1.6-0.8-2.5
			c0-0.9,0.4-1.8,0.9-2.6c0.5-0.8,1.3-1.5,2.2-2.1c0.9-0.5,2-0.8,3-0.7c1,0.1,2,0.4,2.8,1.1c0.8,0.6,1.3,1.7,1.3,2.7
			c0.1,1-0.3,2-0.5,2.7C153.1,47,152.8,47.4,152.8,47.8z M151.8,47.8c0-0.3-0.4-0.5-0.9-0.5c-0.6,0-1.3,0.4-1.7,1
			c-0.4,0.5-0.5,1.2-0.3,1.6c0.2,0.4,0.5,0.6,0.9,0.7c0.4,0.1,0.7,0,1-0.3c0.3-0.3,0.4-0.6,0.5-0.9c0.1-0.3,0.1-0.6-0.2-1
			c-0.2-0.3-0.7-0.5-1.2-0.6c-0.4,0-0.9,0.2-1,0.3c-0.1,0.2-0.1,0.4,0.1,0.3c0.2,0,0.6-0.3,0.8-0.9c0.2-0.5,0.1-1.1-0.1-1.4
			c-0.2-0.3-0.5-0.4-0.7-0.1c-0.2,0.2-0.1,0.8,0.3,1.3c0.4,0.5,1.1,0.9,1.6,0.9C151.5,48.3,151.8,48.1,151.8,47.8z"/>
	</g>
	<g>
		<circle class="st0" cx="54.9" cy="217.8" r="2.6"/>
		<path d="M58,217.8c0,0.4,0.2,0.8,0.5,1.5c0.3,0.7,0.6,1.6,0.5,2.6c-0.1,1-0.6,1.9-1.4,2.4c-0.8,0.5-1.8,0.6-2.7,0.3
			c-0.9-0.3-1.6-1.1-2-1.8c-0.4-0.8-0.7-1.5-0.9-2c-0.3-0.5-0.6-0.9-1-1.3c-0.4-0.4-0.9-0.9-1.4-1.6c-0.5-0.7-0.8-1.6-0.8-2.5
			c0-0.9,0.4-1.8,0.9-2.6c0.5-0.8,1.3-1.5,2.2-2.1c0.9-0.5,2-0.8,3-0.7c1,0.1,2,0.4,2.8,1.1c0.8,0.6,1.3,1.7,1.3,2.7
			c0.1,1-0.3,2-0.5,2.7C58.3,216.9,58,217.4,58,217.8z M57,217.8c0-0.3-0.4-0.5-0.9-0.5c-0.6,0-1.3,0.4-1.7,1
			c-0.4,0.5-0.5,1.2-0.3,1.6c0.2,0.4,0.5,0.6,0.9,0.7c0.4,0.1,0.7,0,1-0.3c0.3-0.3,0.4-0.6,0.5-0.9c0.1-0.3,0.1-0.6-0.2-1
			c-0.2-0.3-0.7-0.5-1.2-0.6c-0.4,0-0.9,0.2-1,0.3c-0.1,0.2-0.1,0.4,0.1,0.3c0.2,0,0.6-0.3,0.8-0.9c0.2-0.5,0.1-1.1-0.1-1.4
			c-0.2-0.3-0.5-0.4-0.7-0.1c-0.2,0.2-0.1,0.8,0.3,1.3c0.4,0.5,1.1,0.9,1.6,0.9C56.7,218.3,57,218,57,217.8z"/>
	</g>
	<g>
		<circle class="st0" cx="101.4" cy="217.7" r="2.6"/>
		<path d="M104.5,217.7c0,0.4,0.2,0.8,0.5,1.5c0.3,0.7,0.6,1.6,0.5,2.6c-0.1,1-0.6,1.9-1.4,2.4c-0.8,0.5-1.8,0.6-2.7,0.3
			c-0.9-0.3-1.6-1.1-2-1.8c-0.4-0.8-0.7-1.5-0.9-2c-0.3-0.5-0.6-0.9-1-1.3c-0.4-0.4-0.9-0.9-1.4-1.6c-0.5-0.7-0.8-1.6-0.8-2.5
			c0-0.9,0.4-1.8,0.9-2.6c0.5-0.8,1.3-1.5,2.2-2.1c0.9-0.5,2-0.8,3-0.7c1,0.1,2,0.4,2.8,1.1c0.8,0.6,1.3,1.7,1.3,2.7
			c0.1,1-0.3,2-0.5,2.7C104.8,216.9,104.5,217.3,104.5,217.7z M103.5,217.7c0-0.3-0.4-0.5-0.9-0.5c-0.6,0-1.3,0.4-1.7,1
			c-0.4,0.5-0.5,1.2-0.3,1.6c0.2,0.4,0.5,0.6,0.9,0.7c0.4,0.1,0.7,0,1-0.3c0.3-0.3,0.4-0.6,0.5-0.9c0.1-0.3,0.1-0.6-0.2-1
			c-0.2-0.3-0.7-0.5-1.2-0.6c-0.4,0-0.9,0.2-1,0.3c-0.1,0.2-0.1,0.4,0.1,0.3c0.2,0,0.6-0.3,0.8-0.9c0.2-0.5,0.1-1.1-0.1-1.4
			c-0.2-0.3-0.5-0.4-0.7-0.1c-0.2,0.2-0.1,0.8,0.3,1.3c0.4,0.5,1.1,0.9,1.6,0.9C103.2,218.3,103.6,218,103.5,217.7z"/>
	</g>
	<g>
		<circle class="st0" cx="150.5" cy="217.7" r="2.6"/>
		<path d="M153.6,217.7c0,0.4,0.2,0.8,0.5,1.5c0.3,0.7,0.6,1.6,0.5,2.6c-0.1,1-0.6,1.9-1.4,2.4c-0.8,0.5-1.8,0.6-2.7,0.3
			c-0.9-0.3-1.6-1.1-2-1.8c-0.4-0.8-0.7-1.5-0.9-2c-0.3-0.5-0.6-0.9-1-1.3c-0.4-0.4-0.9-0.9-1.4-1.6c-0.5-0.7-0.8-1.6-0.8-2.5
			c0-0.9,0.4-1.8,0.9-2.6c0.5-0.8,1.3-1.5,2.2-2.1c0.9-0.5,2-0.8,3-0.7c1,0.1,2,0.4,2.8,1.1c0.8,0.6,1.3,1.7,1.3,2.7
			c0.1,1-0.3,2-0.5,2.7C153.8,216.9,153.6,217.3,153.6,217.7z M152.6,217.7c0-0.3-0.4-0.5-0.9-0.5c-0.6,0-1.3,0.4-1.7,1
			c-0.4,0.5-0.5,1.2-0.3,1.6c0.2,0.4,0.5,0.6,0.9,0.7c0.4,0.1,0.7,0,1-0.3c0.3-0.3,0.4-0.6,0.5-0.9c0.1-0.3,0.1-0.6-0.2-1
			c-0.2-0.3-0.7-0.5-1.2-0.6c-0.4,0-0.9,0.2-1,0.3c-0.1,0.2-0.1,0.4,0.1,0.3c0.2,0,0.6-0.3,0.8-0.9c0.2-0.5,0.1-1.1-0.1-1.4
			c-0.2-0.3-0.5-0.4-0.7-0.1c-0.2,0.2-0.1,0.8,0.3,1.3c0.4,0.5,1.1,0.9,1.6,0.9C152.3,218.3,152.6,218,152.6,217.7z"/>
	</g>
	<g>
		<g>
			<path class="st0" d="M25.2,185.1c1.4-1.2,2.5-1.1,3.5-0.9c1,0.1,2.1,0.3,3.1,0.5c2,0.4,4,1.1,5.9,1.8c1.9,0.7,3.9,1.4,5.7,2.5
				c0.9,0.5,1.8,1.1,2.7,1.8c0.4,0.3,0.9,0.7,1.2,1.3c0.4,0.5,0.7,1.2,1,2.2c-0.7,0.6-1.3,0.9-1.9,1c-0.6,0.2-1.1,0.2-1.7,0.1
				c-1-0.1-2.1-0.3-3.1-0.5c-2-0.4-3.9-1.3-5.9-2.1c-1.9-0.8-3.8-1.6-5.6-2.7c-0.9-0.6-1.8-1.1-2.7-1.8
				C26.6,187.7,25.7,187,25.2,185.1z"/>
			<path d="M24.6,184.9c0.1-0.1,0.2-0.3,0.3-0.4c0.1-0.1,0.2-0.2,0.3-0.3c0.1-0.1,0.2-0.2,0.4-0.3c0.3-0.2,0.6-0.4,0.9-0.5
				c0.7-0.3,1.4-0.4,2.1-0.3c1.1,0.1,2.3,0.2,3.4,0.3c2.3,0.4,4.5,1.1,6.6,2c2,0.9,4.1,2.1,5.9,3.5c0.5,0.3,0.9,0.7,1.4,1
				c0.2,0.2,0.5,0.3,0.7,0.5c0.3,0.2,0.5,0.3,0.7,0.5c0.2,0.2,0.5,0.4,0.7,0.7c0.2,0.2,0.4,0.5,0.5,0.7c0.3,0.5,0.6,1.1,0.8,1.7l0,0
				l0.1,0.4l-0.4,0.5c-0.4,0.5-0.9,0.9-1.5,1.2c-0.2,0.1-0.3,0.1-0.5,0.2c-0.1,0.1-0.3,0.1-0.5,0.2c-0.3,0.1-0.7,0.2-1.1,0.2
				c-0.8,0-1.3-0.1-1.9-0.1l-1.7-0.2c-1.1-0.1-2.4-0.5-3.4-0.9c-1.1-0.4-2.1-0.8-3.2-1.2c-2.1-0.9-4.2-1.9-6-3.4
				c-0.9-0.7-1.7-1.5-2.6-2.2c-0.5-0.4-0.9-1-1.2-1.5c-0.1-0.3-0.3-0.6-0.3-0.9c0-0.1-0.1-0.3-0.2-0.4
				C24.8,185.5,24.6,185.2,24.6,184.9z M25.9,185.3C25.9,185.3,25.8,185.2,25.9,185.3c0,0.2,0,0.3,0.1,0.4c0.1,0.2,0.2,0.4,0.4,0.6
				c0.3,0.4,0.7,0.7,1.1,0.9l2.9,1.5c1.9,0.9,3.9,1.7,6,2.5c2.1,0.8,4,1.8,6,2.2l1.6,0.3c0.5,0.1,1.1,0.3,1.4,0.3c0.2,0,0.4,0,0.6,0
				c0.1,0,0.2,0,0.3,0c0.1,0,0.2,0,0.3-0.1c0.4-0.1,0.8-0.3,1.3-0.5l-0.3,0.8l0,0c-0.1-0.5-0.2-1-0.4-1.4c-0.1-0.2-0.2-0.4-0.3-0.7
				c-0.1-0.2-0.3-0.4-0.4-0.6c-0.2-0.2-0.3-0.4-0.5-0.5c-0.2-0.2-0.5-0.3-0.7-0.4c-0.5-0.3-1-0.5-1.4-0.8c-1.9-1.1-4.1-1.4-6.2-2.1
				c-2.1-0.6-4.2-1.3-6.2-1.8c-1.1-0.2-2.1-0.4-3.2-0.7c-0.5-0.1-0.8-0.2-1.2-0.1c-0.2,0-0.4,0.1-0.6,0.2c-0.1,0-0.2,0.1-0.3,0.1
				c-0.1,0-0.1,0-0.1,0C25.9,185.4,25.9,185.4,25.9,185.3z"/>
		</g>
		<g>
			<path class="st0" d="M67.9,201.8c1.4-1.2,2.5-1.1,3.5-0.9c1,0.1,2.1,0.3,3.1,0.5c2,0.4,4,1.1,5.9,1.8c1.9,0.7,3.9,1.4,5.7,2.5
				c0.9,0.5,1.8,1.1,2.7,1.8c0.4,0.3,0.9,0.7,1.2,1.3c0.4,0.5,0.7,1.2,1,2.2c-0.7,0.6-1.3,0.9-1.9,1c-0.6,0.2-1.1,0.2-1.7,0.1
				c-1-0.1-2.1-0.3-3.1-0.5c-2-0.4-3.9-1.3-5.9-2.1c-1.9-0.8-3.8-1.6-5.6-2.7c-0.9-0.6-1.8-1.1-2.7-1.8
				C69.3,204.3,68.4,203.7,67.9,201.8z"/>
			<path d="M67.3,201.5c0.1-0.1,0.2-0.3,0.3-0.4c0.1-0.1,0.2-0.2,0.3-0.3c0.1-0.1,0.2-0.2,0.4-0.3c0.3-0.2,0.6-0.4,0.9-0.5
				c0.7-0.3,1.4-0.4,2.1-0.3c1.1,0.1,2.3,0.2,3.4,0.3c2.3,0.4,4.5,1.1,6.6,2c2,0.9,4.1,2.1,5.9,3.5c0.5,0.3,0.9,0.7,1.4,1
				c0.2,0.2,0.5,0.3,0.7,0.5c0.3,0.2,0.5,0.3,0.7,0.5c0.2,0.2,0.5,0.4,0.7,0.7c0.2,0.2,0.4,0.5,0.5,0.7c0.3,0.5,0.6,1.1,0.8,1.7l0,0
				L92,211l-0.4,0.5c-0.4,0.5-0.9,0.9-1.5,1.2c-0.2,0.1-0.3,0.1-0.5,0.2c-0.1,0.1-0.3,0.1-0.5,0.2c-0.3,0.1-0.7,0.2-1.1,0.2
				c-0.8,0-1.3-0.1-1.9-0.1l-1.7-0.2c-1.1-0.1-2.4-0.5-3.4-0.9c-1.1-0.4-2.1-0.8-3.2-1.2c-2.1-0.9-4.2-1.9-6-3.4
				c-0.9-0.7-1.7-1.5-2.6-2.2c-0.5-0.4-0.9-1-1.2-1.5c-0.1-0.3-0.3-0.6-0.3-0.9c0-0.1-0.1-0.3-0.2-0.4
				C67.5,202.2,67.4,201.8,67.3,201.5z M68.6,202C68.6,201.9,68.5,201.9,68.6,202c0,0.2,0,0.3,0.1,0.4c0.1,0.2,0.2,0.4,0.4,0.6
				c0.3,0.4,0.7,0.7,1.1,0.9l2.9,1.5c1.9,0.9,3.9,1.7,6,2.5c2.1,0.8,4,1.8,6,2.2l1.6,0.3c0.5,0.1,1.1,0.3,1.4,0.3c0.2,0,0.4,0,0.6,0
				c0.1,0,0.2,0,0.3,0c0.1,0,0.2,0,0.3-0.1c0.4-0.1,0.8-0.3,1.3-0.5l-0.3,0.8l0,0c-0.1-0.5-0.2-1-0.4-1.4c-0.1-0.2-0.2-0.4-0.3-0.7
				c-0.1-0.2-0.3-0.4-0.4-0.6c-0.2-0.2-0.3-0.4-0.5-0.5c-0.2-0.2-0.5-0.3-0.7-0.4c-0.5-0.3-1-0.5-1.4-0.8c-1.9-1.1-4.1-1.4-6.2-2.1
				c-2.1-0.6-4.2-1.3-6.2-1.8c-1.1-0.2-2.1-0.4-3.2-0.7c-0.5-0.1-0.8-0.2-1.2-0.1c-0.2,0-0.4,0.1-0.6,0.2c-0.1,0-0.2,0.1-0.3,0.1
				c-0.1,0-0.1,0-0.1,0C68.6,202.1,68.6,202,68.6,202z"/>
		</g>
		<g>
			<path class="st0" d="M110.6,218.4c1.4-1.2,2.5-1.1,3.5-0.9c1,0.1,2.1,0.3,3.1,0.5c2,0.4,4,1.1,5.9,1.8c1.9,0.7,3.9,1.4,5.7,2.5
				c0.9,0.5,1.8,1.1,2.7,1.8c0.4,0.3,0.9,0.7,1.2,1.3c0.4,0.5,0.7,1.2,1,2.2c-0.7,0.6-1.3,0.9-1.9,1c-0.6,0.2-1.1,0.2-1.7,0.1
				c-1-0.1-2.1-0.3-3.1-0.5c-2-0.4-3.9-1.3-5.9-2.1c-1.9-0.8-3.8-1.6-5.6-2.7c-0.9-0.6-1.8-1.1-2.7-1.8
				C112,221,111.1,220.3,110.6,218.4z"/>
			<path d="M110,218.2c0.1-0.1,0.2-0.3,0.3-0.4c0.1-0.1,0.2-0.2,0.3-0.3c0.1-0.1,0.2-0.2,0.4-0.3c0.3-0.2,0.6-0.4,0.9-0.5
				c0.7-0.3,1.4-0.4,2.1-0.3c1.1,0.1,2.3,0.2,3.4,0.3c2.3,0.4,4.5,1.1,6.6,2c2,0.9,4.1,2.1,5.9,3.5c0.5,0.3,0.9,0.7,1.4,1
				c0.2,0.2,0.5,0.3,0.7,0.5c0.3,0.2,0.5,0.3,0.7,0.5c0.2,0.2,0.5,0.4,0.7,0.7c0.2,0.2,0.4,0.5,0.5,0.7c0.3,0.5,0.6,1.1,0.8,1.7l0,0
				l0.1,0.4l-0.4,0.5c-0.4,0.5-0.9,0.9-1.5,1.2c-0.2,0.1-0.3,0.1-0.5,0.2c-0.1,0.1-0.3,0.1-0.5,0.2c-0.3,0.1-0.7,0.2-1.1,0.2
				c-0.8,0-1.3-0.1-1.9-0.1l-1.7-0.2c-1.2-0.1-2.4-0.5-3.4-0.9c-1.1-0.4-2.1-0.8-3.2-1.2c-2.1-0.9-4.2-1.9-6-3.4
				c-0.9-0.7-1.7-1.5-2.6-2.2c-0.5-0.4-0.9-1-1.2-1.5c-0.1-0.3-0.3-0.6-0.3-0.9c0-0.1-0.1-0.3-0.2-0.4
				C110.2,218.8,110.1,218.5,110,218.2z M111.3,218.6C111.3,218.6,111.2,218.5,111.3,218.6c0,0.2,0,0.3,0.1,0.4
				c0.1,0.2,0.2,0.4,0.4,0.6c0.3,0.4,0.7,0.7,1.1,0.9l2.9,1.5c1.9,0.9,3.9,1.7,6,2.5c2.1,0.8,4,1.8,6,2.2l1.6,0.3
				c0.5,0.1,1.1,0.3,1.4,0.3c0.2,0,0.4,0,0.6,0c0.1,0,0.2,0,0.3,0c0.1,0,0.2,0,0.3-0.1c0.4-0.1,0.8-0.3,1.3-0.5l-0.3,0.8l0,0
				c-0.1-0.5-0.2-1-0.4-1.4c-0.1-0.2-0.2-0.4-0.3-0.7c-0.1-0.2-0.3-0.4-0.4-0.6c-0.2-0.2-0.3-0.4-0.5-0.5c-0.2-0.2-0.5-0.3-0.7-0.4
				c-0.5-0.3-1-0.5-1.4-0.8c-1.9-1.1-4.1-1.4-6.2-2.1c-2.1-0.6-4.2-1.3-6.2-1.8c-1.1-0.2-2.1-0.4-3.2-0.7c-0.5-0.1-0.8-0.2-1.2-0.1
				c-0.2,0-0.4,0.1-0.6,0.2c-0.1,0-0.2,0.1-0.3,0.1c-0.1,0-0.1,0-0.1,0C111.4,218.7,111.3,218.7,111.3,218.6z"/>
		</g>
		<g>
			<path class="st0" d="M152.7,234.8c1.4-1.2,2.5-1.1,3.5-0.9c1,0.1,2.1,0.3,3.1,0.5c2,0.4,4,1.1,5.9,1.8c1.9,0.7,3.9,1.4,5.7,2.5
				c0.9,0.5,1.8,1.1,2.7,1.8c0.4,0.3,0.9,0.7,1.2,1.3c0.4,0.5,0.7,1.2,1,2.2c-0.7,0.6-1.3,0.9-1.9,1c-0.6,0.2-1.1,0.2-1.7,0.1
				c-1-0.1-2.1-0.3-3.1-0.5c-2-0.4-3.9-1.3-5.9-2.1c-1.9-0.8-3.8-1.6-5.6-2.7c-0.9-0.6-1.8-1.1-2.7-1.8
				C154.1,237.4,153.2,236.8,152.7,234.8z"/>
			<path d="M152.1,234.6c0.1-0.1,0.2-0.3,0.3-0.4c0.1-0.1,0.2-0.2,0.3-0.3c0.1-0.1,0.2-0.2,0.4-0.3c0.3-0.2,0.6-0.4,0.9-0.5
				c0.7-0.3,1.4-0.4,2.1-0.3c1.1,0.1,2.3,0.2,3.4,0.3c2.3,0.4,4.5,1.1,6.6,2c2,0.9,4.1,2.1,5.9,3.5c0.5,0.3,0.9,0.7,1.4,1
				c0.2,0.2,0.5,0.3,0.7,0.5c0.3,0.2,0.5,0.3,0.7,0.5c0.2,0.2,0.5,0.4,0.7,0.7c0.2,0.2,0.4,0.5,0.5,0.7c0.3,0.5,0.6,1.1,0.8,1.7l0,0
				l0.1,0.4l-0.4,0.5c-0.4,0.5-0.9,0.9-1.5,1.2c-0.2,0.1-0.3,0.1-0.5,0.2c-0.1,0.1-0.3,0.1-0.5,0.2c-0.3,0.1-0.7,0.2-1.1,0.2
				c-0.8,0-1.3-0.1-1.9-0.1l-1.7-0.2c-1.1-0.1-2.4-0.5-3.4-0.9c-1.1-0.4-2.1-0.8-3.2-1.2c-2.1-0.9-4.2-1.9-6-3.4
				c-0.9-0.7-1.7-1.5-2.6-2.2c-0.5-0.4-0.9-1-1.2-1.5c-0.1-0.3-0.3-0.6-0.3-0.9c0-0.1-0.1-0.3-0.2-0.4
				C152.3,235.2,152.1,234.9,152.1,234.6z M153.4,235C153.4,235,153.3,234.9,153.4,235c0,0.2,0,0.3,0.1,0.4c0.1,0.2,0.2,0.4,0.4,0.6
				c0.3,0.4,0.7,0.7,1.1,0.9l2.9,1.5c1.9,0.9,3.9,1.7,6,2.5c2.1,0.8,4,1.8,6,2.2l1.6,0.3c0.5,0.1,1.1,0.3,1.4,0.3c0.2,0,0.4,0,0.6,0
				c0.1,0,0.2,0,0.3,0c0.1,0,0.2,0,0.3-0.1c0.4-0.1,0.8-0.3,1.3-0.5l-0.3,0.8l0,0c-0.1-0.5-0.2-1-0.4-1.4c-0.1-0.2-0.2-0.4-0.3-0.7
				c-0.1-0.2-0.3-0.4-0.4-0.6c-0.2-0.2-0.3-0.4-0.5-0.5c-0.2-0.2-0.5-0.3-0.7-0.4c-0.5-0.3-1-0.5-1.4-0.8c-1.9-1.1-4.1-1.4-6.2-2.1
				c-2.1-0.6-4.2-1.3-6.2-1.8c-1.1-0.2-2.1-0.4-3.2-0.7c-0.5-0.1-0.8-0.2-1.2-0.1c-0.2,0-0.4,0.1-0.6,0.2c-0.1,0-0.2,0.1-0.3,0.1
				c-0.1,0-0.1,0-0.1,0C153.4,235.1,153.4,235.1,153.4,235z"/>
		</g>
		<g>
			<path class="st0" d="M27.7,180c0.9,2.2,1.1,4.3,0.5,6.3c-1.7,5.4-8.6,7.5-15.7,4.7l0,0c-4.1-1.6-7.5-4.6-9.2-8
				c-1.1-2.3-1.3-4.6-0.7-6.8c1.7-5.4,8.6-7.5,15.7-4.7c4.1,1.6,7.5,4.6,9.2,8C27.6,179.7,27.7,179.9,27.7,180z M14.4,184.7
				c4.1,1.6,7.4,0.6,7.8-0.8c0.2-0.5-0.1-1.2-0.3-1.6c-0.7-1.4-2.4-3.3-5.4-4.4c-4.1-1.6-7.4-0.6-7.8,0.8c-0.2,0.5,0,1.2,0.3,1.6
				C9.6,181.7,11.4,183.6,14.4,184.7L14.4,184.7z"/>
			<g>
				<path d="M28.4,179.7c0.7,1.5,1.2,3.2,1.2,5c0,1.8-0.6,3.6-1.7,5c-1.1,1.5-2.7,2.5-4.4,3.1c-1.7,0.6-3.4,0.8-5.1,0.6
					c-3.4-0.3-6.5-1.7-9.2-3.5c-1.3-0.9-2.6-2-3.7-3.1c-1.2-1.1-2.2-2.4-3-3.9c-0.8-1.5-1.3-3.2-1.3-5c0-1.8,0.7-3.6,1.8-5.1
					c1.1-1.5,2.7-2.5,4.4-3.2c1.7-0.7,3.5-0.9,5.2-0.8c3.5,0.2,6.8,1.3,9.5,3.4c1.4,1,2.6,2.1,3.6,3.4c0.5,0.6,1,1.3,1.4,2
					c0.2,0.3,0.4,0.7,0.6,1.1C27.8,179.1,28.2,179.4,28.4,179.7z M27.1,180.3c-0.1-0.3-0.1-0.8-0.3-1.1c-0.2-0.3-0.4-0.6-0.7-0.9
					c-0.5-0.6-1-1.1-1.5-1.7c-1.1-1-2.4-1.8-3.7-2.5c-2.7-1.3-5.5-2.1-8.4-2.2c-2.8-0.1-5.6,0.7-7.4,2.6c-0.8,1-1.4,2.2-1.6,3.5
					c-0.2,1.3-0.1,2.8,0.4,4.2c0.5,1.4,1.3,2.7,2.2,3.9c1,1.2,2.2,2.1,3.6,2.9c2.7,1.5,5.8,2.1,8.7,2c2.9-0.1,5.7-0.9,7.5-2.9
					c0.9-1,1.5-2.2,1.7-3.6C27.8,183.1,27.6,181.7,27.1,180.3z"/>
				<path d="M14.6,184.1c1.3,0.3,2.7,0.4,3.9,0.2c0.6-0.1,1.2-0.2,1.7-0.4c0.2-0.1,0.4-0.2,0.6-0.3c0.1-0.1,0.2-0.1,0.2-0.1
					c0.1-0.1,0.1-0.8-0.1-1.3c-0.2-0.6-0.6-1.2-1-1.7c-0.5-0.5-1-1-1.6-1.2c-0.7-0.3-1.3-0.5-2-0.6c-1.4-0.2-2.7-0.2-3.9-0.2
					c-0.6,0.1-1.2,0.2-1.6,0.4c-0.2,0.1-0.4,0.2-0.5,0.3c-0.1,0.1,0,0.1,0,0c0-0.1,0,0.1,0,0.3c0,0.2,0.2,0.4,0.3,0.7
					c0.3,0.5,0.6,1,1,1.6c0.4,0.5,0.8,1,1.3,1.5c0.3,0.2,0.5,0.4,0.8,0.6l0.4,0.3C14.2,184.2,14.5,184,14.6,184.1z M14.1,185.4
					c-0.2-0.1-0.2-0.4-0.4-0.4l-0.5-0.2c-0.4-0.1-0.7-0.2-1.1-0.4c-0.7-0.3-1.5-0.6-2.1-1.1c-0.7-0.4-1.3-1-1.9-1.7
					c-0.3-0.4-0.5-0.7-0.7-1.2c-0.2-0.5-0.4-1.1-0.2-1.9c0.2-0.8,0.7-1.5,1.1-1.8c0.5-0.4,0.9-0.6,1.4-0.7c0.9-0.3,1.8-0.4,2.6-0.3
					c0.8,0,1.7,0.2,2.4,0.4c0.8,0.3,1.5,0.7,2.1,1c0.7,0.4,1.3,0.8,1.9,1.3c0.6,0.5,1.2,0.9,1.8,1.3c0.6,0.5,1.2,0.9,1.8,1.6
					c0.3,0.3,0.5,0.7,0.8,1.1c0.2,0.4,0.4,0.9,0.3,1.6c-0.1,0.7-0.5,1.3-0.9,1.7c-0.4,0.4-0.9,0.6-1.3,0.8c-0.9,0.3-1.7,0.4-2.6,0.4
					C16.9,186.7,15.5,186.1,14.1,185.4z"/>
			</g>
		</g>
		<g>
			<path class="st0" d="M70.5,196.7c0.9,2.2,1.1,4.3,0.5,6.3c-1.7,5.4-8.6,7.5-15.7,4.7l0,0c-4.1-1.6-7.5-4.6-9.2-8
				c-1.1-2.3-1.3-4.6-0.7-6.8c1.7-5.4,8.6-7.5,15.7-4.7c4.1,1.6,7.5,4.6,9.2,8C70.3,196.4,70.4,196.5,70.5,196.7z M57.1,201.4
				c4.1,1.6,7.4,0.6,7.8-0.8c0.2-0.5-0.1-1.2-0.3-1.6c-0.7-1.4-2.4-3.3-5.4-4.4c-4.1-1.6-7.4-0.6-7.8,0.8c-0.2,0.5,0.1,1.2,0.3,1.6
				C52.3,198.3,54.1,200.2,57.1,201.4L57.1,201.4z"/>
			<g>
				<path d="M71.1,196.4c0.7,1.5,1.2,3.2,1.2,5c0,1.8-0.6,3.6-1.7,5c-1.1,1.5-2.7,2.5-4.4,3.1c-1.7,0.6-3.4,0.8-5.1,0.6
					c-3.4-0.3-6.5-1.7-9.2-3.5c-1.3-0.9-2.6-2-3.7-3.1c-1.2-1.1-2.2-2.4-3-3.9c-0.8-1.5-1.3-3.2-1.3-5c0-1.8,0.7-3.6,1.8-5.1
					c1.1-1.5,2.7-2.5,4.4-3.2c1.7-0.7,3.5-0.9,5.2-0.8c3.5,0.2,6.8,1.3,9.5,3.4c1.4,1,2.6,2.1,3.6,3.4c0.5,0.6,1,1.3,1.4,2
					c0.2,0.3,0.4,0.7,0.6,1.1C70.5,195.8,70.9,196,71.1,196.4z M69.8,196.9c-0.1-0.3-0.1-0.8-0.3-1.1c-0.2-0.3-0.4-0.6-0.7-0.9
					c-0.5-0.6-1-1.1-1.5-1.7c-1.1-1-2.4-1.8-3.7-2.5c-2.7-1.3-5.5-2.1-8.4-2.2c-2.8-0.1-5.6,0.7-7.4,2.6c-0.8,1-1.4,2.2-1.6,3.5
					c-0.2,1.3-0.1,2.8,0.4,4.2c0.5,1.4,1.3,2.7,2.2,3.9c1,1.2,2.2,2.1,3.6,2.9c2.7,1.5,5.8,2.1,8.7,2c2.9-0.1,5.7-0.9,7.5-2.9
					c0.9-1,1.5-2.2,1.7-3.6C70.5,199.8,70.3,198.3,69.8,196.9z"/>
				<path d="M57.3,200.7c1.3,0.3,2.7,0.4,3.9,0.2c0.6-0.1,1.2-0.2,1.7-0.4c0.2-0.1,0.4-0.2,0.6-0.3c0.1-0.1,0.2-0.1,0.2-0.1
					c0.1-0.1,0.1-0.8-0.1-1.3c-0.2-0.6-0.6-1.2-1-1.7c-0.5-0.5-1-1-1.6-1.2c-0.7-0.3-1.3-0.5-2-0.6c-1.4-0.2-2.7-0.2-3.9-0.2
					c-0.6,0.1-1.2,0.2-1.6,0.4c-0.2,0.1-0.4,0.2-0.5,0.3c-0.1,0.1,0,0.1,0-0.1c0-0.1,0,0.1,0,0.3c0,0.2,0.2,0.4,0.3,0.7
					c0.3,0.5,0.6,1,1,1.6c0.4,0.5,0.8,1,1.3,1.5c0.3,0.2,0.5,0.4,0.8,0.6l0.4,0.3C56.9,200.9,57.2,200.7,57.3,200.7z M56.8,202
					c-0.2-0.1-0.2-0.4-0.4-0.4l-0.5-0.2c-0.4-0.1-0.7-0.2-1.1-0.4c-0.7-0.3-1.5-0.6-2.1-1.1c-0.7-0.4-1.3-1-1.9-1.7
					c-0.3-0.4-0.5-0.8-0.7-1.2c-0.2-0.5-0.4-1.1-0.2-1.9c0.2-0.8,0.7-1.5,1.1-1.8c0.5-0.4,0.9-0.6,1.4-0.7c0.9-0.3,1.8-0.4,2.6-0.3
					c0.8,0,1.7,0.2,2.4,0.4c0.8,0.3,1.5,0.7,2.1,1c0.7,0.4,1.3,0.8,1.9,1.3c0.6,0.5,1.2,0.9,1.8,1.3c0.6,0.5,1.2,0.9,1.8,1.6
					c0.5,0.6,1.2,1.3,1.1,2.7c-0.1,0.7-0.5,1.3-0.9,1.7c-0.4,0.4-0.9,0.6-1.3,0.8c-0.9,0.3-1.7,0.4-2.6,0.4
					C59.7,203.3,58.2,202.7,56.8,202z"/>
			</g>
		</g>
		<g>
			<path class="st0" d="M113.2,213.3c0.9,2.2,1.1,4.3,0.5,6.3c-1.7,5.4-8.6,7.5-15.7,4.7l0,0c-4.1-1.6-7.5-4.6-9.2-8
				c-1.1-2.3-1.3-4.6-0.7-6.8c1.7-5.4,8.6-7.5,15.7-4.7c4.1,1.6,7.5,4.6,9.2,8C113,213,113.1,213.2,113.2,213.3z M94.3,213.5
				c0,0.1,0,0.1,0.1,0.2c0.7,1.4,2.4,3.3,5.4,4.4l0,0c4.1,1.6,7.4,0.6,7.8-0.8c0.2-0.5-0.1-1.2-0.3-1.6c-0.7-1.4-2.4-3.3-5.4-4.4
				c-4.1-1.6-7.4-0.6-7.8,0.8C94,212.5,94.1,213,94.3,213.5z"/>
			<g>
				<path d="M113.8,213c0.7,1.5,1.2,3.2,1.2,5c0,1.8-0.6,3.6-1.7,5c-1.1,1.5-2.7,2.5-4.4,3.1c-1.7,0.6-3.4,0.8-5.1,0.6
					c-3.4-0.3-6.5-1.7-9.2-3.5c-1.3-0.9-2.6-2-3.7-3.1c-1.2-1.1-2.2-2.4-3-3.9c-0.8-1.5-1.3-3.2-1.3-5c0-1.8,0.7-3.6,1.8-5.1
					c1.1-1.5,2.7-2.5,4.4-3.2c1.7-0.7,3.5-0.9,5.2-0.8c3.5,0.2,6.8,1.3,9.5,3.4c1.4,1,2.6,2.1,3.6,3.4c0.5,0.6,1,1.3,1.4,2
					c0.2,0.3,0.4,0.7,0.6,1.1C113.2,212.4,113.6,212.7,113.8,213z M112.5,213.6c-0.1-0.3-0.1-0.8-0.3-1.1c-0.2-0.3-0.4-0.6-0.7-0.9
					c-0.5-0.6-1-1.1-1.5-1.7c-1.1-1-2.4-1.8-3.7-2.5c-2.7-1.3-5.5-2.1-8.4-2.2c-2.8-0.1-5.6,0.7-7.4,2.6c-0.8,1-1.4,2.2-1.6,3.5
					c-0.2,1.3-0.1,2.8,0.4,4.2c0.5,1.4,1.3,2.7,2.2,3.9c1,1.2,2.2,2.1,3.6,2.9c2.7,1.5,5.8,2.1,8.7,2c2.9-0.1,5.7-0.9,7.5-2.9
					c0.9-1,1.5-2.2,1.7-3.6C113.2,216.5,113,215,112.5,213.6z"/>
				<path d="M94.9,213.2c0.7,1,1.8,1.8,2.9,2.4c1.1,0.6,2.3,1.1,3.5,1.7c1.2,0.5,2.5,1,3.8,0.9c0.6-0.1,1.4-0.3,1.7-0.7
					c0.2-0.2,0.2-0.4,0.1-0.6c-0.1-0.2-0.2-0.5-0.3-0.7c-1.6-1.9-4-3.1-6.4-3.8c-1.2-0.4-2.4-0.6-3.6-0.6c-0.6,0-1.2,0.1-1.6,0.3
					c-0.2,0.1-0.3,0.2-0.4,0.5c0,0.1,0,0.3,0,0.4C94.6,213,94.9,213.1,94.9,213.2z M93.7,213.7c-0.1-0.2,0.1-0.5,0-0.7
					c-0.1-0.2-0.1-0.4-0.2-0.7c-0.1-0.5,0.1-1.1,0.4-1.5c0.6-0.8,1.4-1.2,2.2-1.5c1.6-0.6,3.4-0.5,4.9-0.1c1.6,0.4,3,1.2,4.3,2.2
					c1.3,1,2.3,2.4,2.8,4c0.1,0.4,0.2,0.9,0.2,1.4c0,0.5-0.4,1-0.7,1.3c-0.7,0.6-1.4,0.9-2.2,1.1c-1.5,0.4-3.1,0.7-4.7,0.4
					C97.6,219.1,94.8,216.9,93.7,213.7z"/>
			</g>
		</g>
		<g>
			<path class="st0" d="M155.2,229.7c0.9,2.2,1.1,4.3,0.5,6.3c-1.7,5.4-8.6,7.5-15.7,4.7l0,0c-4.1-1.6-7.5-4.6-9.2-8
				c-1.1-2.3-1.3-4.6-0.7-6.8c1.7-5.4,8.6-7.5,15.7-4.7c4.1,1.6,7.5,4.6,9.2,8C155.1,229.4,155.2,229.6,155.2,229.7z M141.9,234.4
				c4.1,1.6,7.4,0.6,7.8-0.8c0.2-0.5-0.1-1.2-0.3-1.6c-0.7-1.4-2.4-3.3-5.4-4.4c-4.1-1.6-7.4-0.6-7.8,0.8c-0.2,0.5,0.1,1.2,0.3,1.6
				C137.1,231.4,138.9,233.3,141.9,234.4L141.9,234.4z"/>
			<g>
				<path d="M155.9,229.5c1,2,1.5,4.3,1,6.6c-0.3,1.1-0.7,2.3-1.5,3.3c-0.7,1-1.6,1.8-2.7,2.4c-2.1,1.2-4.4,1.6-6.7,1.5
					c-2.2-0.2-4.4-0.8-6.3-1.8l-0.3-0.2l-0.1-0.2l0,0l0.4,0.4c-2-1-3.8-2.2-5.4-3.6c-1.7-1.4-3.2-3-4.3-5c-1.1-2-1.7-4.4-1.2-6.8
					c0.5-2.4,2.2-4.6,4.3-5.8c2.1-1.3,4.5-1.8,6.9-1.7c2.3,0.1,4.6,0.6,6.6,1.6c2.1,1,3.9,2.3,5.4,3.9c0.8,0.8,1.5,1.7,2.1,2.6
					c0.3,0.5,0.6,0.9,0.8,1.4c0.1,0.2,0.2,0.5,0.4,0.7C155.5,229,155.7,229.2,155.9,229.5z M154.6,230c-0.1-0.2-0.1-0.5-0.2-0.8
					c-0.1-0.2-0.2-0.4-0.4-0.7c-0.3-0.4-0.6-0.8-0.9-1.2c-0.7-0.8-1.4-1.4-2.3-2c-1.6-1.2-3.5-2-5.3-2.7c-1.9-0.6-3.8-1-5.7-1
					c-1.9-0.1-3.7,0.3-5.3,1.1c-3.2,1.6-4.5,5.7-3.1,9.4c0.7,1.8,1.9,3.6,3.4,5c1.6,1.3,3.5,2.3,5.4,2.9l0.2,0.1l0.2,0.3l0,0
					l-0.4-0.4c1.9,0.6,3.9,0.8,5.8,0.7c1.9-0.1,3.7-0.5,5.3-1.3c1.5-0.9,2.8-2.2,3.4-3.9C155.4,233.8,155.3,231.8,154.6,230z"/>
				<path d="M141.4,234c0.2-0.1,0.6-0.1,1-0.1c0.2,0,0.4,0,0.5,0.1l0.3,0c0.3,0.1,0.7,0.1,1,0.1c0.7,0,1.3,0,1.9-0.1
					c0.6-0.1,1.2-0.2,1.7-0.4c0.2-0.1,0.4-0.2,0.6-0.3c0.1-0.1,0.2-0.1,0.2-0.1c0.1-0.1,0.1-0.8-0.1-1.3c-0.2-0.6-0.6-1.2-1-1.7
					c-0.5-0.5-1-1-1.6-1.2c-0.7-0.3-1.3-0.5-2-0.6c-1.4-0.2-2.7-0.2-3.9-0.2c-0.6,0.1-1.2,0.2-1.6,0.4c-0.2,0.1-0.4,0.2-0.5,0.3
					c-0.1,0.1,0,0.1,0,0c0-0.1,0,0.1,0,0.3c0,0.2,0.2,0.4,0.3,0.7c0.3,0.5,0.6,1,1,1.6c0.4,0.5,0.8,1,1.3,1.5
					c0.3,0.2,0.5,0.4,0.8,0.6l0.4,0.3c0.1,0.1,0.2,0.1,0.3,0l0.2,0l0.1,0l0,0l0,0l0,0C141.8,233.9,142.9,233.6,141.4,234z
					 M142.4,234.9c-1.5,0.3-0.4,0.1-0.8,0.2l0,0l0,0l0,0l-0.1-0.1l-0.1-0.1c-0.1-0.1-0.1-0.1-0.2-0.2l-0.5-0.2
					c-0.4-0.1-0.7-0.2-1.1-0.4c-0.7-0.3-1.5-0.6-2.1-1.1c-0.7-0.4-1.3-1-1.9-1.7c-0.3-0.4-0.5-0.7-0.7-1.2c-0.2-0.5-0.4-1.1-0.2-1.9
					c0.2-0.8,0.7-1.5,1.1-1.8c0.5-0.4,0.9-0.6,1.4-0.7c0.9-0.3,1.8-0.4,2.6-0.3c0.8,0,1.7,0.2,2.4,0.4c0.8,0.3,1.5,0.7,2.1,1
					c0.7,0.4,1.3,0.8,1.9,1.3c0.6,0.5,1.2,0.9,1.8,1.3c0.6,0.5,1.2,0.9,1.8,1.6c0.3,0.3,0.5,0.7,0.8,1.1c0.2,0.4,0.4,0.9,0.3,1.6
					c-0.1,0.7-0.5,1.3-0.9,1.7c-0.4,0.4-0.9,0.6-1.3,0.8c-0.9,0.3-1.7,0.4-2.6,0.4c-0.8-0.1-1.6-0.3-2.4-0.5
					c-0.4-0.1-0.7-0.3-1.1-0.4l-0.3-0.1c0,0,0,0,0-0.1C142.4,235.3,142.5,235.1,142.4,234.9z"/>
			</g>
		</g>
		<g>
			<path class="st0" d="M197.3,246.1c0.9,2.2,1.1,4.3,0.5,6.3c-1.7,5.4-8.6,7.5-15.7,4.7c-4.1-1.6-7.5-4.6-9.2-8
				c-1.1-2.3-1.3-4.6-0.7-6.8c1.7-5.4,8.6-7.5,15.7-4.7c4.1,1.6,7.5,4.6,9.2,8C197.2,245.8,197.2,246,197.3,246.1z M178.4,246.3
				c0,0.1,0,0.1,0.1,0.2c0.7,1.4,2.4,3.3,5.4,4.4l0,0c4.1,1.6,7.4,0.6,7.8-0.8c0.2-0.5-0.1-1.2-0.3-1.6c-0.7-1.4-2.4-3.3-5.4-4.4
				c-4.1-1.6-7.4-0.6-7.8,0.8C178.1,245.3,178.3,245.8,178.4,246.3z"/>
			<g>
				<path d="M197.9,245.9c0.7,1.5,1.2,3.2,1.2,5c0,1.8-0.6,3.6-1.7,5c-1.1,1.5-2.7,2.5-4.4,3.1c-1.7,0.6-3.4,0.8-5.1,0.6
					c-3.4-0.3-6.5-1.7-9.2-3.5c-1.3-0.9-2.6-2-3.7-3.1c-1.2-1.1-2.2-2.4-3-3.9c-0.8-1.5-1.3-3.2-1.3-5c0-1.8,0.7-3.6,1.8-5.1
					c1.1-1.5,2.7-2.5,4.4-3.2c1.7-0.7,3.5-0.9,5.2-0.8c3.5,0.2,6.8,1.3,9.5,3.4c1.4,1,2.6,2.1,3.6,3.4c0.5,0.6,1,1.3,1.4,2
					c0.2,0.3,0.4,0.7,0.6,1.1C197.3,245.2,197.8,245.5,197.9,245.9z M196.7,246.4c-0.1-0.3-0.1-0.8-0.3-1.1
					c-0.2-0.3-0.4-0.6-0.7-0.9c-0.5-0.6-1-1.1-1.5-1.7c-1.1-1-2.4-1.8-3.7-2.5c-2.7-1.3-5.5-2.1-8.4-2.2c-2.8-0.1-5.6,0.7-7.4,2.6
					c-1.7,1.9-2.2,4.9-1.2,7.7c0.5,1.4,1.3,2.7,2.2,3.9c1,1.2,2.2,2.1,3.6,2.9c2.7,1.5,5.8,2.1,8.7,2c2.9-0.1,5.7-0.9,7.5-2.9
					c0.9-1,1.5-2.2,1.7-3.6C197.4,249.3,197.2,247.8,196.7,246.4z"/>
				<path d="M179.1,246c0.6,0.9,1.5,1.6,2.4,2.1c0.9,0.6,1.9,1,2.9,1.5l0.6,0.2l0.2,0.5l0,0l-0.7-0.7c0.9,0.4,1.9,0.8,2.9,1.2
					c1,0.3,2.1,0.4,3.1,0c0.5-0.2,0.8-0.6,0.8-0.9c0-0.3-0.2-0.7-0.5-1.1c-0.6-0.8-1.5-1.3-2.3-1.9c-0.8-0.6-1.7-1-2.7-1.3
					c-0.9-0.3-1.9-0.7-2.9-0.8c-0.9-0.2-1.9-0.3-2.8-0.2c-0.4,0.1-0.9,0.2-1.1,0.4c-0.1,0.1-0.2,0.2-0.2,0.5c0,0.1,0,0.2,0,0.3
					C178.8,245.8,179,245.9,179.1,246z M177.8,246.5c-0.1-0.2,0.1-0.4,0-0.5c0-0.2-0.1-0.3-0.2-0.5c-0.1-0.3-0.1-0.8,0.1-1.2
					c0.3-0.8,0.9-1.3,1.5-1.6c1.2-0.7,2.6-1,3.9-0.9c2.6,0.1,5,1.3,6.9,3c1,0.8,1.7,2,2.1,3.3c0.2,0.6,0.4,1.4,0.1,2.2
					c-0.4,0.8-1,1.1-1.6,1.4c-0.6,0.3-1.2,0.5-1.8,0.6c-0.6,0.1-1.2,0.3-1.8,0.3c-1.3,0.1-2.5,0-3.7-0.4l-0.5-0.2l-0.3-0.5l0,0
					l0.7,0.7c-1.3-0.5-2.5-1.2-3.4-2.1c-0.5-0.5-0.9-1-1.3-1.6C178.3,247.8,178,247.2,177.8,246.5z"/>
			</g>
		</g>
	</g>
	<g>
		<g>
			<path class="st0" d="M174.1,23.2c0.4,1.8-0.1,2.7-0.7,3.5c-0.6,0.9-1.2,1.7-1.8,2.5c-1.3,1.6-2.7,3.1-4.2,4.5
				c-1.5,1.4-3,2.9-4.7,4c-0.9,0.6-1.8,1.1-2.8,1.6c-0.5,0.3-1,0.5-1.7,0.5c-0.6,0.1-1.4,0.1-2.4-0.1c-0.2-0.9-0.2-1.6-0.1-2.2
				c0.1-0.6,0.3-1.1,0.6-1.5c0.6-0.9,1.2-1.7,1.8-2.5c1.3-1.6,2.9-3,4.4-4.3c1.6-1.4,3.2-2.7,4.9-3.9c0.9-0.6,1.8-1.1,2.8-1.6
				C171.2,23.3,172.1,22.8,174.1,23.2z"/>
			<path d="M174.6,22.7c0.1,0.1,0.2,0.3,0.2,0.4c0.1,0.2,0.1,0.3,0.1,0.4c0,0.2,0.1,0.3,0.1,0.5c0.1,0.3,0.1,0.7,0.1,1
				c0,0.7-0.3,1.5-0.6,2c-0.6,1-1.2,2-1.8,2.9c-1.4,1.9-3,3.5-4.7,5c-1.7,1.4-3.7,2.8-5.7,3.8c-0.5,0.3-1,0.5-1.5,0.8
				c-0.2,0.1-0.5,0.3-0.7,0.4c-0.3,0.2-0.5,0.3-0.8,0.4c-0.3,0.1-0.6,0.2-0.9,0.3c-0.3,0.1-0.6,0.1-0.9,0.2c-0.6,0.1-1.2,0-1.8,0
				l0,0l-0.4,0l-0.2-0.6c-0.2-0.6-0.4-1.2-0.4-1.9c0-0.2,0-0.3,0-0.5c0-0.1,0-0.3,0.1-0.5c0.1-0.4,0.2-0.7,0.3-1.1
				c0.3-0.7,0.6-1.1,0.9-1.6l1-1.5c0.6-1,1.5-1.9,2.3-2.7c0.8-0.8,1.7-1.5,2.5-2.3c1.7-1.4,3.6-2.9,5.7-3.8c1.1-0.5,2.1-0.9,3.2-1.4
				c0.6-0.2,1.3-0.4,1.9-0.4c0.3,0,0.6,0,0.9,0.1c0.1,0,0.3,0,0.4,0C173.9,22.6,174.3,22.6,174.6,22.7z M173.6,23.7
				C173.6,23.7,173.7,23.7,173.6,23.7c-0.1-0.1-0.3-0.1-0.4-0.1c-0.3,0-0.5,0-0.7,0.1c-0.5,0.1-0.9,0.3-1.3,0.6l-2.6,2
				c-1.7,1.3-3.3,2.8-4.9,4.2c-1.7,1.5-3.4,2.8-4.7,4.4l-1,1.3c-0.3,0.4-0.7,0.9-0.9,1.2c-0.1,0.2-0.2,0.3-0.3,0.5
				c0,0.1-0.1,0.2-0.1,0.3c0,0.1-0.1,0.2-0.1,0.3c-0.1,0.4-0.1,0.9-0.1,1.4l-0.6-0.6l0,0c0.5,0.2,1,0.3,1.5,0.3c0.2,0,0.5,0,0.8,0
				c0.2,0,0.5,0,0.7-0.1c0.2-0.1,0.5-0.1,0.7-0.3c0.2-0.1,0.5-0.3,0.7-0.4c0.5-0.3,0.9-0.6,1.4-0.9c1.8-1.2,3.1-3,4.6-4.7
				c1.5-1.6,3-3.1,4.4-4.8c0.7-0.9,1.3-1.7,2-2.5c0.3-0.4,0.5-0.7,0.6-1.1c0.1-0.2,0.1-0.4,0.1-0.6c0-0.1,0-0.2,0-0.4
				c0-0.1,0-0.1,0,0C173.5,23.7,173.6,23.7,173.6,23.7z"/>
		</g>
		<g>
			<path class="st0" d="M140.3,54.1c0.4,1.8-0.1,2.7-0.7,3.5c-0.6,0.9-1.2,1.7-1.8,2.5c-1.3,1.6-2.7,3.1-4.2,4.5
				c-1.5,1.4-3,2.9-4.7,4c-0.9,0.6-1.8,1.1-2.8,1.6c-0.5,0.3-1,0.5-1.7,0.5c-0.6,0.1-1.4,0.1-2.4-0.1c-0.2-0.9-0.2-1.6-0.1-2.2
				c0.1-0.6,0.3-1.1,0.6-1.5c0.6-0.9,1.2-1.7,1.8-2.5c1.3-1.6,2.9-3,4.4-4.3c1.6-1.4,3.2-2.7,4.9-3.9c0.9-0.6,1.8-1.1,2.8-1.6
				C137.4,54.2,138.3,53.7,140.3,54.1z"/>
			<path d="M140.8,53.6c0.1,0.1,0.2,0.3,0.2,0.4c0.1,0.2,0.1,0.3,0.1,0.4c0,0.2,0.1,0.3,0.1,0.5c0.1,0.3,0.1,0.7,0.1,1
				c0,0.7-0.3,1.5-0.6,2c-0.6,1-1.2,2-1.8,2.9c-1.4,1.9-3,3.5-4.7,5c-1.7,1.4-3.7,2.8-5.7,3.8c-0.5,0.3-1,0.5-1.5,0.8
				c-0.2,0.1-0.5,0.3-0.7,0.4c-0.3,0.2-0.5,0.3-0.8,0.4c-0.3,0.1-0.6,0.2-0.9,0.3c-0.3,0.1-0.6,0.1-0.9,0.2c-0.6,0.1-1.2,0-1.8,0
				l0,0l-0.4,0l-0.2-0.6c-0.2-0.6-0.4-1.2-0.4-1.9c0-0.2,0-0.3,0-0.5c0-0.1,0-0.3,0.1-0.5c0.1-0.4,0.2-0.7,0.3-1.1
				c0.3-0.7,0.6-1.1,0.9-1.6l1-1.5c0.6-1,1.5-1.9,2.3-2.7c0.8-0.8,1.7-1.5,2.5-2.3c1.7-1.4,3.6-2.9,5.7-3.8c1.1-0.5,2.1-0.9,3.2-1.4
				c0.6-0.2,1.3-0.4,1.9-0.4c0.3,0,0.6,0,0.9,0.1c0.1,0,0.3,0,0.4,0C140.1,53.5,140.5,53.5,140.8,53.6z M139.8,54.6
				C139.8,54.6,139.9,54.6,139.8,54.6c-0.1-0.1-0.3-0.1-0.4-0.1c-0.3,0-0.5,0-0.7,0.1c-0.5,0.1-0.9,0.3-1.3,0.6l-2.6,2
				c-1.7,1.3-3.3,2.8-4.9,4.2c-1.7,1.5-3.4,2.8-4.7,4.4l-1,1.3c-0.3,0.4-0.7,0.9-0.9,1.2c-0.1,0.2-0.2,0.3-0.3,0.5
				c0,0.1-0.1,0.2-0.1,0.3c0,0.1-0.1,0.2-0.1,0.3c-0.1,0.4-0.1,0.9-0.1,1.4l-0.6-0.6l0,0c0.5,0.2,1,0.3,1.5,0.3c0.2,0,0.5,0,0.8,0
				c0.2,0,0.5,0,0.7-0.1c0.2-0.1,0.5-0.1,0.7-0.3c0.2-0.1,0.5-0.3,0.7-0.4c0.5-0.3,0.9-0.6,1.4-0.9c1.8-1.2,3.1-3,4.6-4.7
				c1.5-1.6,3-3.1,4.4-4.8c0.7-0.9,1.3-1.7,2-2.5c0.3-0.4,0.5-0.7,0.6-1.1c0.1-0.2,0.1-0.4,0.1-0.6c0-0.1,0-0.2,0-0.4
				c0-0.1,0-0.1,0,0C139.7,54.6,139.7,54.6,139.8,54.6z"/>
		</g>
		<g>
			<path class="st0" d="M106.4,85c0.4,1.8-0.1,2.7-0.7,3.5c-0.6,0.9-1.2,1.7-1.8,2.5c-1.3,1.6-2.7,3.1-4.2,4.5c-1.5,1.4-3,2.9-4.7,4
				c-0.9,0.6-1.8,1.1-2.8,1.6c-0.5,0.3-1,0.5-1.7,0.5c-0.6,0.1-1.4,0.1-2.4-0.1c-0.2-0.9-0.2-1.6-0.1-2.2c0.1-0.6,0.3-1.1,0.6-1.5
				c0.6-0.9,1.2-1.7,1.8-2.5c1.3-1.6,2.9-3,4.4-4.3c1.6-1.4,3.2-2.7,4.9-3.9c0.9-0.6,1.8-1.1,2.8-1.6
				C103.5,85.1,104.5,84.6,106.4,85z"/>
			<path d="M106.9,84.5c0.1,0.1,0.2,0.3,0.2,0.4c0.1,0.2,0.1,0.3,0.1,0.4c0,0.2,0.1,0.3,0.1,0.5c0.1,0.3,0.1,0.7,0.1,1
				c0,0.7-0.3,1.5-0.6,2c-0.6,1-1.2,2-1.8,2.9c-1.4,1.9-3,3.5-4.7,5c-1.7,1.4-3.7,2.8-5.7,3.8c-0.5,0.3-1,0.5-1.5,0.8
				c-0.2,0.1-0.5,0.3-0.7,0.4c-0.3,0.2-0.5,0.3-0.8,0.4c-0.3,0.1-0.6,0.2-0.9,0.3c-0.3,0.1-0.6,0.1-0.9,0.2c-0.6,0.1-1.2,0-1.8,0
				l0,0l-0.4,0l-0.2-0.6c-0.2-0.6-0.4-1.2-0.4-1.9c0-0.2,0-0.3,0-0.5c0-0.1,0-0.3,0.1-0.5c0.1-0.4,0.2-0.7,0.3-1.1
				c0.3-0.7,0.6-1.1,0.9-1.6l1-1.5c0.6-1,1.5-1.9,2.3-2.7c0.8-0.8,1.7-1.5,2.5-2.3c1.7-1.4,3.6-2.9,5.7-3.8c1.1-0.5,2.1-0.9,3.2-1.4
				c0.6-0.2,1.3-0.4,1.9-0.4c0.3,0,0.6,0,0.9,0.1c0.1,0,0.3,0,0.4,0C106.3,84.4,106.6,84.4,106.9,84.5z M106,85.5
				C106,85.5,106.1,85.5,106,85.5c-0.1-0.1-0.3-0.1-0.4-0.1c-0.3,0-0.5,0-0.7,0.1c-0.5,0.1-0.9,0.3-1.3,0.6l-2.6,2
				c-1.7,1.3-3.3,2.8-4.9,4.2c-1.7,1.5-3.4,2.8-4.7,4.4l-1,1.3c-0.3,0.4-0.7,0.9-0.9,1.2c-0.1,0.2-0.2,0.3-0.3,0.5
				c0,0.1-0.1,0.2-0.1,0.3c0,0.1-0.1,0.2-0.1,0.3c-0.1,0.4-0.1,0.9-0.1,1.4l-0.6-0.6l0,0c0.5,0.2,1,0.3,1.5,0.3c0.2,0,0.5,0,0.8,0
				c0.2,0,0.5,0,0.7-0.1c0.2-0.1,0.5-0.1,0.7-0.3c0.2-0.1,0.5-0.3,0.7-0.4c0.5-0.3,0.9-0.6,1.4-0.9c1.8-1.2,3.1-3,4.6-4.7
				c1.5-1.6,3-3.1,4.4-4.8c0.7-0.9,1.3-1.7,2-2.5c0.3-0.4,0.5-0.7,0.6-1.1c0.1-0.2,0.1-0.4,0.1-0.6c0-0.1,0-0.2,0-0.4
				c0-0.1,0-0.1,0,0C105.9,85.5,105.9,85.5,106,85.5z"/>
		</g>
		<g>
			<path class="st0" d="M73.1,115.4c0.4,1.8-0.1,2.7-0.7,3.5c-0.6,0.9-1.2,1.7-1.8,2.5c-1.3,1.6-2.7,3.1-4.2,4.5
				c-1.5,1.4-3,2.9-4.7,4c-0.9,0.6-1.8,1.1-2.8,1.6c-0.5,0.3-1,0.5-1.7,0.5c-0.6,0.1-1.4,0.1-2.4-0.1c-0.2-0.9-0.2-1.6-0.1-2.2
				c0.1-0.6,0.3-1.1,0.6-1.5c0.6-0.9,1.2-1.7,1.8-2.5c1.3-1.6,2.9-3,4.4-4.3c1.6-1.4,3.2-2.7,4.9-3.9c0.9-0.6,1.8-1.1,2.8-1.6
				C70.2,115.5,71.2,115,73.1,115.4z"/>
			<path d="M73.6,114.9c0.1,0.1,0.2,0.3,0.2,0.4c0.1,0.2,0.1,0.3,0.1,0.4c0,0.2,0.1,0.3,0.1,0.5c0.1,0.3,0.1,0.7,0.1,1
				c0,0.7-0.3,1.5-0.6,2c-0.6,1-1.2,2-1.8,2.9c-1.4,1.9-3,3.5-4.7,5c-1.7,1.4-3.7,2.8-5.7,3.8c-0.5,0.3-1,0.5-1.5,0.8
				c-0.2,0.1-0.5,0.3-0.7,0.4c-0.3,0.2-0.5,0.3-0.8,0.4c-0.3,0.1-0.6,0.2-0.9,0.3c-0.3,0.1-0.6,0.1-0.9,0.2c-0.6,0.1-1.2,0-1.8,0
				l0,0l-0.4,0l-0.2-0.6c-0.2-0.6-0.4-1.2-0.4-1.9c0-0.2,0-0.3,0-0.5c0-0.1,0-0.3,0.1-0.5c0.1-0.4,0.2-0.7,0.3-1.1
				c0.3-0.7,0.6-1.1,0.9-1.6l1-1.5c0.6-1,1.5-1.9,2.3-2.7c0.8-0.8,1.7-1.5,2.5-2.3c1.7-1.4,3.6-2.9,5.7-3.8c1.1-0.5,2.1-0.9,3.2-1.4
				c0.6-0.2,1.3-0.4,1.9-0.4c0.3,0,0.6,0,0.9,0.1c0.1,0,0.3,0,0.4,0C73,114.8,73.3,114.9,73.6,114.9z M72.6,115.9
				C72.7,115.9,72.8,115.9,72.6,115.9c-0.1-0.1-0.3-0.1-0.4-0.1c-0.3,0-0.5,0-0.7,0.1c-0.5,0.1-0.9,0.3-1.3,0.6l-2.6,2
				c-1.7,1.3-3.3,2.8-4.9,4.2c-1.7,1.5-3.4,2.8-4.7,4.4l-1,1.3c-0.3,0.4-0.7,0.9-0.9,1.2c-0.1,0.2-0.2,0.3-0.3,0.5
				c0,0.1-0.1,0.2-0.1,0.3c0,0.1-0.1,0.2-0.1,0.3c-0.1,0.4-0.1,0.9-0.1,1.4l-0.6-0.6l0,0c0.5,0.2,1,0.3,1.5,0.3c0.2,0,0.5,0,0.8,0
				c0.2,0,0.5,0,0.7-0.1c0.2-0.1,0.5-0.1,0.7-0.3c0.2-0.1,0.5-0.3,0.7-0.4c0.5-0.3,0.9-0.6,1.4-0.9c1.8-1.2,3.1-3,4.6-4.7
				c1.5-1.6,3-3.1,4.4-4.8c0.7-0.9,1.3-1.7,2-2.5c0.3-0.4,0.5-0.7,0.6-1.1c0.1-0.2,0.1-0.4,0.1-0.6c0-0.1,0-0.2,0-0.4
				c0-0.1,0-0.1,0,0C72.5,115.9,72.6,115.9,72.6,115.9z"/>
		</g>
		<g>
			<path class="st0" d="M39.8,145.9c0.4,1.8-0.1,2.7-0.7,3.5c-0.6,0.9-1.2,1.7-1.8,2.5c-1.3,1.6-2.7,3.1-4.2,4.5
				c-1.5,1.4-3,2.9-4.7,4c-0.9,0.6-1.8,1.1-2.8,1.6c-0.5,0.3-1,0.5-1.7,0.5c-0.6,0.1-1.4,0.1-2.4-0.1c-0.2-0.9-0.2-1.6-0.1-2.2
				c0.1-0.6,0.3-1.1,0.6-1.5c0.6-0.9,1.2-1.7,1.8-2.5c1.3-1.6,2.9-3,4.4-4.3c1.6-1.4,3.2-2.7,4.9-3.9c0.9-0.6,1.8-1.1,2.8-1.6
				C36.9,146,37.9,145.5,39.8,145.9z"/>
			<path d="M40.3,145.4c0.1,0.1,0.2,0.3,0.2,0.4c0.1,0.2,0.1,0.3,0.1,0.4c0,0.2,0.1,0.3,0.1,0.5c0.1,0.3,0.1,0.7,0.1,1
				c0,0.7-0.3,1.5-0.6,2c-0.6,1-1.2,2-1.8,2.9c-1.4,1.9-3,3.5-4.7,5c-1.7,1.4-3.7,2.8-5.7,3.8c-0.5,0.3-1,0.5-1.5,0.8
				c-0.2,0.1-0.5,0.3-0.7,0.4c-0.3,0.2-0.5,0.3-0.8,0.4c-0.3,0.1-0.6,0.2-0.9,0.3c-0.3,0.1-0.6,0.1-0.9,0.2c-0.6,0.1-1.2,0-1.8,0
				l0,0l-0.4,0l-0.2-0.6c-0.2-0.6-0.4-1.2-0.4-1.9c0-0.2,0-0.3,0-0.5c0-0.1,0-0.3,0.1-0.5c0.1-0.4,0.2-0.7,0.3-1.1
				c0.3-0.7,0.6-1.1,0.9-1.6l1-1.5c0.6-1,1.5-1.9,2.3-2.7c0.8-0.8,1.7-1.5,2.5-2.3c1.7-1.4,3.6-2.9,5.7-3.8c1.1-0.5,2.1-0.9,3.2-1.4
				c0.6-0.2,1.3-0.4,1.9-0.4c0.3,0,0.6,0,0.9,0.1c0.1,0,0.3,0,0.4,0C39.6,145.3,40,145.3,40.3,145.4z M39.3,146.4
				C39.4,146.4,39.4,146.3,39.3,146.4c-0.1-0.1-0.3-0.1-0.4-0.1c-0.3,0-0.5,0-0.7,0.1c-0.5,0.1-0.9,0.3-1.3,0.6l-2.6,2
				c-1.7,1.3-3.3,2.8-4.9,4.2c-1.7,1.5-3.4,2.8-4.7,4.4l-1,1.3c-0.3,0.4-0.7,0.9-0.9,1.2c-0.1,0.2-0.2,0.3-0.3,0.5
				c0,0.1-0.1,0.2-0.1,0.3c0,0.1-0.1,0.2-0.1,0.3c-0.1,0.4-0.1,0.9-0.1,1.4l-0.6-0.6l0,0c0.5,0.2,1,0.3,1.5,0.3c0.2,0,0.5,0,0.8,0
				c0.2,0,0.5,0,0.7-0.1c0.5-0.1,0.9-0.4,1.4-0.7c0.5-0.3,0.9-0.6,1.4-0.9c1.8-1.2,3.1-3,4.6-4.7c1.5-1.6,3-3.1,4.4-4.8
				c0.7-0.9,1.3-1.7,2-2.5c0.3-0.4,0.5-0.7,0.6-1.1c0.1-0.2,0.1-0.4,0.1-0.6c0-0.1,0-0.2,0-0.4c0-0.1,0-0.1,0,0
				C39.2,146.4,39.3,146.4,39.3,146.4z"/>
		</g>
		<g>
			<path class="st0" d="M177.5,27.7c-2.3-0.1-4.4-0.9-5.9-2.4c-4.1-3.9-2.9-11,2.8-16.2l0,0c3.3-3,7.4-4.7,11.2-4.7
				c2.5,0,4.7,0.9,6.4,2.4c4.1,3.9,2.9,11-2.8,16.2c-3.3,3-7.4,4.7-11.2,4.7C177.9,27.7,177.7,27.7,177.5,27.7z M179.2,13.6
				c-3.3,3-3.8,6.4-2.7,7.4c0.4,0.4,1.1,0.5,1.6,0.5c1.5,0,4-0.7,6.4-2.9c3.3-3,3.8-6.4,2.7-7.4c-0.4-0.4-1.1-0.5-1.6-0.5
				C184.1,10.7,181.6,11.5,179.2,13.6L179.2,13.6z"/>
			<g>
				<path d="M177.5,28.4c-1.7,0-3.4-0.3-5-1.2c-1.6-0.8-2.9-2.1-3.7-3.8c-0.8-1.6-1.1-3.5-0.8-5.3c0.2-1.8,0.8-3.4,1.7-4.9
					c1.8-2.9,4.4-5.1,7.2-6.6c1.4-0.8,2.9-1.4,4.4-2c1.5-0.6,3.2-0.9,4.8-1c1.7,0,3.5,0.3,5.1,1.1c1.6,0.8,2.9,2.2,3.8,3.9
					c0.8,1.7,1,3.6,0.9,5.4c-0.2,1.8-0.8,3.5-1.6,5c-1.7,3-4.2,5.5-7.2,7c-1.5,0.8-3.1,1.3-4.7,1.7c-0.8,0.2-1.6,0.3-2.4,0.4
					c-0.4,0-0.8,0-1.2,0C178.3,28.1,177.9,28.4,177.5,28.4z M177.6,27c0.4,0,0.7,0.3,1.1,0.2c0.4-0.1,0.8-0.1,1.1-0.2
					c0.7-0.1,1.5-0.4,2.2-0.7c1.4-0.6,2.7-1.4,3.9-2.2c2.3-1.8,4.4-4,5.7-6.5c1.3-2.5,1.9-5.4,0.9-7.8c-0.5-1.2-1.4-2.2-2.4-3
					c-1.1-0.8-2.5-1.3-3.9-1.5c-1.5-0.2-3-0.1-4.5,0.3c-1.5,0.3-2.9,1.1-4.1,1.9c-2.5,1.8-4.4,4.3-5.6,6.9c-1.2,2.6-1.7,5.5-0.7,8
					c0.5,1.2,1.3,2.3,2.5,3.1C174.7,26.4,176.1,26.9,177.6,27z"/>
				<path d="M179.7,14.1c-0.9,1.1-1.5,2.3-1.9,3.4c-0.2,0.6-0.3,1.2-0.4,1.7c0,0.3,0,0.5,0,0.6c0,0.2,0,0.2,0,0.2
					c0,0.2,0.7,0.4,1.3,0.5c0.6,0.1,1.3,0,2-0.2c0.7-0.2,1.3-0.4,1.8-0.9c0.5-0.5,1-1,1.4-1.5c0.8-1.1,1.4-2.3,1.9-3.4
					c0.2-0.6,0.3-1.1,0.4-1.6c0-0.2,0-0.4-0.1-0.6c0-0.1,0-0.1,0.1,0c0.1,0-0.1-0.1-0.2-0.1c-0.2,0-0.5-0.1-0.7-0.1
					c-0.6,0-1.2,0.1-1.8,0.2c-0.6,0.1-1.3,0.3-1.9,0.5c-0.3,0.1-0.6,0.3-0.9,0.5l-0.4,0.3C179.8,13.7,179.8,14,179.7,14.1z
					 M178.8,13.1c0.2-0.1,0.5,0,0.6-0.2l0.4-0.4c0.3-0.3,0.5-0.5,0.8-0.8c0.6-0.5,1.2-1,1.9-1.5c0.7-0.4,1.5-0.8,2.4-0.9
					c0.5-0.1,0.9-0.1,1.4-0.1c0.5,0,1.1,0.2,1.8,0.6c0.7,0.5,1,1.2,1.1,1.8c0.1,0.6,0.1,1.1,0,1.6c-0.1,1-0.5,1.8-0.9,2.5
					c-0.4,0.7-0.9,1.4-1.5,2c-0.6,0.6-1.2,1-1.9,1.5c-0.6,0.4-1.3,0.8-2,1.1c-0.7,0.3-1.3,0.7-2,1.1c-0.7,0.3-1.4,0.7-2.2,0.9
					c-0.4,0.1-0.8,0.2-1.3,0.2c-0.5,0-1,0-1.6-0.4c-0.6-0.4-1-1.1-1.1-1.6c-0.1-0.5-0.1-1-0.1-1.5c0.1-0.9,0.4-1.7,0.8-2.5
					C176.4,15.1,177.5,14,178.8,13.1z"/>
			</g>
		</g>
		<g>
			<path class="st0" d="M143.7,58.6c-2.3-0.1-4.4-0.9-5.9-2.4c-4.1-3.9-2.9-11,2.8-16.2l0,0c3.3-3,7.4-4.7,11.2-4.7
				c2.5,0,4.7,0.9,6.4,2.4c4.1,3.9,2.9,11-2.8,16.2c-3.3,3-7.4,4.7-11.2,4.7C144,58.6,143.9,58.6,143.7,58.6z M145.4,44.5
				c-3.3,3-3.8,6.4-2.7,7.4c0.4,0.4,1.1,0.5,1.6,0.5c1.5,0,4-0.7,6.4-2.9c3.3-3,3.8-6.4,2.7-7.4c-0.4-0.4-1.1-0.5-1.6-0.5
				C150.2,41.6,147.8,42.4,145.4,44.5L145.4,44.5z"/>
			<g>
				<path d="M143.7,59.3c-1.7,0-3.4-0.3-5-1.2c-1.6-0.8-2.9-2.1-3.7-3.8c-0.8-1.6-1.1-3.5-0.8-5.3c0.2-1.8,0.8-3.4,1.7-4.9
					c1.8-2.9,4.4-5.1,7.2-6.6c1.4-0.8,2.9-1.4,4.4-2c1.5-0.6,3.2-0.9,4.8-1c1.7,0,3.5,0.3,5.1,1.1c1.6,0.8,2.9,2.2,3.8,3.9
					c0.8,1.7,1.1,3.6,0.9,5.4c-0.2,1.8-0.8,3.5-1.6,5c-1.7,3-4.2,5.5-7.2,7c-1.5,0.8-3.1,1.3-4.7,1.7c-0.8,0.2-1.6,0.3-2.4,0.4
					c-0.4,0-0.8,0-1.2,0C144.5,59,144.1,59.3,143.7,59.3z M143.8,57.9c0.4,0,0.7,0.3,1.1,0.2c0.4-0.1,0.8-0.1,1.1-0.2
					c0.7-0.1,1.5-0.4,2.2-0.7c1.4-0.6,2.7-1.4,3.9-2.2c2.3-1.8,4.4-4,5.7-6.5c1.3-2.5,1.9-5.4,0.9-7.8c-0.5-1.2-1.4-2.2-2.4-3
					c-1.1-0.8-2.5-1.3-3.9-1.5c-1.5-0.2-3,0-4.5,0.3c-1.5,0.3-2.9,1.1-4.1,1.9c-2.5,1.8-4.4,4.3-5.6,6.9c-1.2,2.6-1.7,5.5-0.7,8
					c0.5,1.2,1.3,2.3,2.5,3.1C140.9,57.3,142.3,57.8,143.8,57.9z"/>
				<path d="M145.9,45c-0.9,1.1-1.5,2.3-1.9,3.4c-0.2,0.6-0.3,1.2-0.4,1.7c0,0.3,0,0.5,0,0.6c0,0.2,0,0.2,0,0.2
					c0,0.2,0.7,0.4,1.3,0.5c0.6,0.1,1.3,0,2-0.2c0.7-0.2,1.3-0.4,1.8-0.9c0.5-0.5,1-1,1.4-1.5c0.8-1.1,1.4-2.3,1.9-3.4
					c0.2-0.6,0.3-1.1,0.4-1.6c0-0.2,0-0.4-0.1-0.6c0-0.1-0.1-0.1,0.1,0c0.1,0-0.1-0.1-0.3-0.1c-0.2,0-0.5-0.1-0.7-0.1
					c-0.6,0-1.2,0.1-1.8,0.2c-0.6,0.1-1.3,0.3-1.9,0.5c-0.3,0.1-0.6,0.3-0.9,0.5l-0.4,0.3C146,44.6,146,44.9,145.9,45z M144.9,44
					c0.2-0.1,0.5,0,0.6-0.2l0.4-0.4c0.3-0.3,0.5-0.5,0.8-0.8c0.6-0.5,1.2-1,1.9-1.5c0.7-0.4,1.5-0.8,2.4-0.9
					c0.4-0.1,0.9-0.1,1.4-0.1c0.5,0,1.1,0.2,1.8,0.6c0.7,0.5,1,1.2,1.1,1.8c0.1,0.6,0.1,1.1,0,1.6c-0.1,1-0.5,1.8-0.9,2.5
					c-0.4,0.7-0.9,1.4-1.5,2c-0.6,0.6-1.2,1-1.9,1.5c-0.6,0.4-1.3,0.8-2,1.1c-0.7,0.3-1.3,0.7-2,1.1c-0.7,0.3-1.4,0.7-2.2,0.9
					c-0.8,0.2-1.7,0.5-2.9-0.2c-0.6-0.4-1-1.1-1.1-1.6c-0.1-0.5-0.1-1-0.1-1.5c0.1-0.9,0.4-1.7,0.8-2.5
					C142.5,46,143.7,44.9,144.9,44z"/>
			</g>
		</g>
		<g>
			<path class="st0" d="M109.9,89.5c-2.3-0.1-4.4-0.9-5.9-2.4c-4.1-3.9-2.9-11,2.8-16.2l0,0c3.3-3,7.4-4.7,11.2-4.7
				c2.5,0,4.7,0.9,6.4,2.4c4.1,3.9,2.9,11-2.8,16.2c-3.3,3-7.4,4.7-11.2,4.7C110.2,89.5,110,89.5,109.9,89.5z M118.1,72.6
				c-0.1,0-0.1,0-0.2,0c-1.5,0-4,0.7-6.4,2.9l0,0c-3.3,3-3.8,6.4-2.7,7.4c0.4,0.4,1.1,0.5,1.6,0.5c1.5,0,4-0.7,6.4-2.9
				c3.3-3,3.8-6.4,2.7-7.4C119.1,72.7,118.6,72.6,118.1,72.6z"/>
			<g>
				<path d="M109.9,90.2c-1.7,0-3.4-0.3-5-1.2c-1.6-0.8-2.9-2.1-3.7-3.8c-0.8-1.6-1.1-3.5-0.8-5.3c0.2-1.8,0.8-3.4,1.7-4.9
					c1.8-2.9,4.4-5.1,7.2-6.6c1.4-0.8,2.9-1.4,4.4-2c1.5-0.6,3.2-0.9,4.8-1c1.7,0,3.5,0.2,5.1,1.1c1.6,0.8,2.9,2.2,3.8,3.9
					c0.8,1.7,1.1,3.6,0.9,5.4c-0.2,1.8-0.8,3.5-1.6,5c-1.7,3-4.2,5.5-7.2,7c-1.5,0.8-3.1,1.3-4.7,1.7c-0.8,0.2-1.6,0.3-2.4,0.4
					c-0.4,0-0.8,0-1.2,0C110.7,89.9,110.3,90.2,109.9,90.2z M109.9,88.8c0.4,0,0.7,0.3,1.1,0.2c0.4-0.1,0.8-0.1,1.1-0.2
					c0.7-0.1,1.5-0.4,2.2-0.7c1.4-0.6,2.7-1.4,3.9-2.2c2.3-1.8,4.4-4,5.7-6.5c1.3-2.5,1.9-5.4,0.9-7.8c-0.5-1.2-1.4-2.2-2.4-3
					c-1.1-0.8-2.5-1.3-3.9-1.5c-1.5-0.2-3,0-4.5,0.3c-1.5,0.3-2.9,1.1-4.1,1.9c-2.5,1.8-4.4,4.3-5.6,6.9c-1.2,2.6-1.7,5.5-0.7,8
					c0.5,1.2,1.3,2.3,2.5,3.1C107,88.2,108.5,88.7,109.9,88.8z"/>
				<path d="M118.1,73.2c-1.2,0.1-2.4,0.8-3.5,1.6c-1.1,0.7-2,1.6-3,2.4c-1,0.8-2,1.8-2.5,3c-0.2,0.6-0.4,1.3-0.1,1.8
					c0.1,0.2,0.3,0.3,0.5,0.4c0.2,0.1,0.5,0.1,0.8,0c2.4-0.6,4.6-2.2,6.3-4.1c0.9-0.9,1.6-1.9,2.2-3c0.3-0.5,0.5-1.1,0.5-1.6
					c0-0.2,0-0.4-0.2-0.5c-0.1-0.1-0.2-0.1-0.4-0.2C118.4,73,118.2,73.2,118.1,73.2z M118.2,71.9c0.2,0,0.4,0.3,0.6,0.3
					c0.2,0,0.4,0.1,0.7,0.1c0.5,0.2,0.9,0.6,1.1,1.1c0.5,0.9,0.5,1.8,0.4,2.7c-0.2,1.7-1,3.2-2.1,4.5c-1.1,1.2-2.4,2.2-3.9,2.9
					c-1.4,0.7-3.1,1-4.8,0.7c-0.4-0.1-0.9-0.2-1.3-0.5c-0.5-0.3-0.8-0.8-0.9-1.2c-0.2-0.9-0.1-1.6,0-2.4c0.3-1.5,0.8-3.1,1.7-4.4
					C111.6,73,114.9,71.5,118.2,71.9z"/>
			</g>
		</g>
		<g>
			<path class="st0" d="M76.6,119.9c-2.3-0.1-4.4-0.9-5.9-2.4c-4.1-3.9-2.9-11,2.8-16.2l0,0c3.3-3,7.4-4.7,11.2-4.7
				c2.5,0,4.7,0.9,6.4,2.4c4.1,3.9,2.9,11-2.8,16.2c-3.3,3-7.4,4.7-11.2,4.7C76.9,120,76.7,120,76.6,119.9z M78.3,105.9
				c-3.3,3-3.8,6.4-2.7,7.4c0.4,0.4,1.1,0.5,1.6,0.5c1.5,0,4-0.7,6.4-2.9c3.3-3,3.8-6.4,2.7-7.4c-0.4-0.4-1.1-0.5-1.6-0.5
				C83.1,103,80.6,103.7,78.3,105.9L78.3,105.9z"/>
			<g>
				<path d="M76.5,120.6c-2.2,0-4.5-0.6-6.4-2.1c-0.9-0.8-1.7-1.7-2.3-2.7c-0.5-1.1-0.9-2.3-1-3.4c-0.1-2.4,0.5-4.7,1.6-6.6
					c1.1-1.9,2.7-3.6,4.4-4.9l0.3-0.2l0.3,0l0,0l-0.6,0.2c1.7-1.3,3.6-2.4,5.6-3.3c2-0.9,4.1-1.6,6.4-1.6c2.2-0.1,4.7,0.4,6.6,1.9
					c2,1.5,3.1,4,3.3,6.4c0.2,2.5-0.4,4.9-1.5,6.9c-1.1,2-2.6,3.8-4.4,5.2c-1.8,1.4-3.8,2.5-5.9,3.1c-1.1,0.3-2.1,0.6-3.2,0.7
					c-0.5,0.1-1.1,0.1-1.6,0.1c-0.3,0-0.5,0-0.8,0C77.1,120.5,76.8,120.6,76.5,120.6z M76.6,119.3c0.2,0,0.5,0.2,0.7,0.2
					c0.3,0,0.5,0,0.8,0c0.5-0.1,1-0.2,1.5-0.3c1-0.3,1.9-0.7,2.8-1.1c1.8-0.9,3.4-2.2,4.7-3.6c1.4-1.4,2.6-2.9,3.4-4.6
					c0.9-1.7,1.4-3.5,1.4-5.3c0-3.6-3.1-6.5-7.1-7c-2-0.2-4.1,0.1-6,0.9c-1.9,0.8-3.6,2.1-5,3.6l-0.2,0.2l-0.4,0h0L74,102
					c-1.4,1.5-2.4,3.1-3.2,4.9c-0.8,1.7-1.2,3.6-1.2,5.3c0.1,1.8,0.7,3.4,2,4.7C72.8,118.3,74.7,119,76.6,119.3z"/>
				<path d="M78.9,105.6c-0.1,0.2-0.1,0.6-0.3,0.9c-0.1,0.2-0.2,0.3-0.3,0.4l-0.1,0.2c-0.2,0.3-0.4,0.6-0.5,0.9
					c-0.3,0.6-0.6,1.2-0.8,1.8c-0.2,0.6-0.3,1.2-0.4,1.7c0,0.3,0,0.5,0,0.6c0,0.2,0,0.2,0,0.2c0,0.2,0.7,0.4,1.3,0.5
					c0.6,0.1,1.3,0,2-0.2c0.7-0.2,1.3-0.5,1.8-0.9c0.5-0.5,1-1,1.4-1.5c0.8-1.1,1.4-2.3,1.9-3.4c0.2-0.6,0.3-1.1,0.4-1.6
					c0-0.2,0-0.4-0.1-0.6c0-0.1-0.1-0.1,0.1,0c0.1,0-0.1-0.1-0.3-0.1c-0.2,0-0.5-0.1-0.7-0.1c-0.6,0-1.2,0.1-1.8,0.2
					c-0.6,0.1-1.3,0.3-1.9,0.5c-0.3,0.1-0.6,0.3-0.9,0.5l-0.4,0.3c-0.1,0-0.1,0.1-0.2,0.2l0,0.2l0,0.1l0,0l0,0l0,0
					C78.8,106,78.5,107.1,78.9,105.6z M77.6,106.1c0.4-1.5,0.1-0.4,0.2-0.7l0,0l0,0l0,0l0.1,0l0.2,0c0.1,0,0.2-0.1,0.3-0.1l0.4-0.4
					c0.3-0.3,0.5-0.5,0.8-0.8c0.6-0.5,1.2-1,1.9-1.5c0.7-0.4,1.5-0.8,2.4-0.9c0.4-0.1,0.9-0.1,1.4-0.1c0.5,0,1.1,0.2,1.8,0.6
					c0.7,0.5,1,1.2,1.1,1.8c0.1,0.6,0.1,1.1,0,1.6c-0.1,1-0.5,1.8-0.9,2.5c-0.4,0.7-0.9,1.4-1.5,2c-0.6,0.6-1.2,1-1.9,1.5
					c-0.6,0.4-1.3,0.8-2,1.1c-0.7,0.3-1.3,0.7-2,1.1c-0.7,0.3-1.4,0.7-2.2,0.9c-0.4,0.1-0.8,0.2-1.3,0.2c-0.5,0-1,0-1.6-0.4
					c-0.6-0.4-1-1.1-1.1-1.6c-0.1-0.5-0.1-1-0.1-1.5c0.1-0.9,0.4-1.7,0.8-2.5c0.4-0.7,0.9-1.3,1.5-1.9c0.3-0.3,0.6-0.5,0.9-0.8
					l0.2-0.2c0,0,0,0,0.1,0.1C77.2,106,77.4,106.1,77.6,106.1z"/>
			</g>
		</g>
		<g>
			<path class="st0" d="M43.3,150.4c-2.3-0.1-4.4-0.9-5.9-2.4c-4.1-3.9-2.9-11,2.8-16.2c3.3-3,7.4-4.7,11.2-4.7
				c2.6,0,4.7,0.9,6.4,2.4c4.1,3.9,2.9,11-2.8,16.2c-3.3,3-7.4,4.7-11.2,4.7C43.6,150.4,43.4,150.4,43.3,150.4z M51.5,133.4
				c-0.1,0-0.1,0-0.2,0c-1.5,0-4,0.7-6.4,2.9l0,0c-3.3,3-3.8,6.4-2.7,7.4c0.4,0.4,1.1,0.5,1.6,0.5c1.5,0,4-0.7,6.4-2.9
				c3.3-3,3.8-6.4,2.7-7.4C52.5,133.5,52,133.4,51.5,133.4z"/>
			<g>
				<path d="M43.2,151.1c-1.7,0-3.4-0.3-5-1.2c-1.6-0.8-2.9-2.1-3.7-3.8c-0.8-1.6-1.1-3.5-0.8-5.3c0.2-1.8,0.8-3.4,1.7-4.9
					c1.8-2.9,4.4-5.1,7.2-6.6c1.4-0.8,2.9-1.4,4.4-2c1.5-0.6,3.2-0.9,4.8-1c1.7,0,3.5,0.2,5.1,1.1c1.6,0.8,2.9,2.2,3.8,3.9
					c0.8,1.7,1,3.6,0.9,5.4c-0.2,1.8-0.8,3.5-1.6,5c-1.7,3-4.2,5.5-7.2,7c-1.5,0.8-3.1,1.3-4.7,1.7c-0.8,0.2-1.6,0.3-2.4,0.4
					c-0.4,0-0.8,0-1.2,0C44.1,150.8,43.6,151.1,43.2,151.1z M43.3,149.7c0.4,0,0.7,0.3,1.1,0.2c0.4-0.1,0.8-0.1,1.1-0.2
					c0.7-0.1,1.5-0.4,2.2-0.7c1.4-0.6,2.7-1.4,3.9-2.2c2.3-1.8,4.4-4,5.7-6.5c1.3-2.5,1.9-5.4,0.9-7.8c-1-2.3-3.4-4.2-6.4-4.5
					c-1.5-0.2-3-0.1-4.5,0.3c-1.5,0.3-2.9,1.1-4.1,1.9c-2.5,1.8-4.4,4.3-5.6,6.9c-1.2,2.6-1.7,5.5-0.7,8c0.5,1.2,1.3,2.3,2.5,3.1
					C40.4,149,41.8,149.5,43.3,149.7z"/>
				<path d="M51.5,134.1c-1,0.1-2.1,0.6-3,1.2c-0.9,0.6-1.8,1.3-2.6,2l-0.5,0.4l-0.5,0l0,0l1-0.3c-0.8,0.7-1.6,1.3-2.3,2.1
					c-0.7,0.8-1.3,1.7-1.4,2.8c0,0.5,0.2,1,0.5,1.1c0.3,0.1,0.7,0.2,1.2,0c1-0.2,1.8-0.8,2.7-1.2c0.9-0.5,1.7-1.1,2.4-1.8
					c0.7-0.7,1.4-1.4,2-2.2c0.6-0.8,1.1-1.6,1.5-2.4c0.1-0.4,0.2-0.9,0.1-1.2c0-0.1-0.1-0.3-0.3-0.4c-0.1,0-0.2-0.1-0.3-0.1
					C51.7,133.9,51.6,134.1,51.5,134.1z M51.5,132.7c0.2,0,0.3,0.2,0.5,0.3c0.2,0,0.3,0,0.5,0.1c0.3,0.1,0.7,0.3,1,0.6
					c0.6,0.7,0.7,1.4,0.8,2.1c0.1,1.4-0.3,2.7-0.9,3.9c-1.3,2.3-3.4,3.9-5.7,4.9c-1.2,0.5-2.5,0.6-3.9,0.5c-0.7-0.1-1.4-0.2-2-0.9
					c-0.5-0.7-0.5-1.4-0.6-2c0-0.6,0.1-1.2,0.2-1.9c0.1-0.6,0.3-1.2,0.5-1.8c0.5-1.2,1.1-2.3,2-3.1l0.4-0.3H45h0l-1,0.3
					c1-0.9,2.1-1.7,3.4-2.1c0.6-0.2,1.3-0.4,2-0.5C50.1,132.6,50.8,132.6,51.5,132.7z"/>
			</g>
		</g>
		<g>
			<path class="st0" d="M9.9,180.8c-2.3-0.1-4.4-0.9-5.9-2.4c-4.1-3.9-2.9-11,2.8-16.2c3.3-3,7.4-4.7,11.2-4.7
				c2.5,0,4.7,0.9,6.4,2.4c4.1,3.9,2.9,11-2.8,16.2c-3.3,3-7.4,4.7-11.2,4.7C10.3,180.8,10.1,180.8,9.9,180.8z M18.2,163.8
				c-0.1,0-0.1,0-0.2,0c-1.5,0-4,0.7-6.4,2.9c-3.3,3-3.8,6.4-2.7,7.4c0.4,0.4,1.1,0.5,1.6,0.5c1.5,0,4-0.7,6.4-2.9
				c3.3-3,3.8-6.4,2.7-7.4C19.2,164,18.6,163.9,18.2,163.8z"/>
			<g>
				<path d="M9.9,181.5c-1.7,0-3.4-0.3-5-1.2c-1.6-0.8-2.9-2.1-3.7-3.8c-0.8-1.6-1.1-3.5-0.8-5.3c0.2-1.8,0.8-3.4,1.7-4.9
					c1.8-2.9,4.4-5.1,7.2-6.6c1.4-0.8,2.9-1.4,4.4-2c1.5-0.6,3.2-0.9,4.8-1c1.7,0,3.5,0.2,5.1,1.1c1.6,0.8,2.9,2.2,3.8,3.9
					c0.8,1.7,1.1,3.6,0.9,5.4c-0.2,1.8-0.8,3.5-1.6,5c-1.7,3-4.2,5.5-7.2,7c-1.5,0.8-3.1,1.3-4.7,1.7c-0.8,0.2-1.6,0.3-2.4,0.4
					c-0.4,0-0.8,0-1.2,0C10.7,181.2,10.3,181.5,9.9,181.5z M10,180.1c0.4,0,0.7,0.3,1.1,0.2c0.4-0.1,0.8-0.1,1.1-0.2
					c0.7-0.1,1.5-0.4,2.2-0.7c1.4-0.6,2.7-1.4,3.9-2.2c2.3-1.8,4.4-4,5.7-6.5c1.3-2.5,1.9-5.4,0.9-7.8c-0.5-1.2-1.4-2.2-2.4-3
					c-1.1-0.8-2.5-1.3-3.9-1.5c-1.5-0.2-3-0.1-4.5,0.3c-1.5,0.3-2.9,1.1-4.1,1.9c-2.5,1.8-4.4,4.3-5.6,6.9c-1.2,2.6-1.7,5.5-0.7,8
					c0.5,1.2,1.3,2.3,2.5,3.1C7.1,179.5,8.5,179.9,10,180.1z"/>
				<path d="M18.1,164.5c-1.2,0.1-2.4,0.8-3.5,1.6c-1.1,0.7-2,1.6-3,2.4c-1,0.8-2,1.8-2.5,3c-0.2,0.6-0.4,1.3-0.1,1.8
					c0.1,0.2,0.3,0.3,0.5,0.4c0.2,0.1,0.5,0.1,0.8,0c2.4-0.6,4.6-2.2,6.3-4.1c0.9-0.9,1.6-1.9,2.2-3c0.3-0.5,0.5-1.1,0.5-1.6
					c0-0.2,0-0.4-0.2-0.5c-0.1-0.1-0.2-0.1-0.4-0.2C18.5,164.3,18.3,164.5,18.1,164.5z M18.2,163.2c0.2,0,0.4,0.3,0.6,0.3
					c0.2,0,0.4,0.1,0.7,0.1c0.5,0.2,0.9,0.6,1.1,1.1c0.5,0.9,0.5,1.8,0.4,2.7c-0.2,1.7-1,3.2-2.1,4.5c-1.1,1.2-2.4,2.2-3.9,2.9
					c-1.4,0.7-3.1,1-4.8,0.7c-0.4-0.1-0.9-0.2-1.3-0.5c-0.5-0.3-0.8-0.8-0.9-1.2c-0.2-0.9-0.1-1.6,0-2.4c0.3-1.5,0.8-3.1,1.7-4.4
					C11.6,164.3,14.9,162.8,18.2,163.2z"/>
			</g>
		</g>
	</g>
	<g>
		<path d="M158,112.3c0.2,3.2,0.2,6.3-0.1,9.5c-0.3,3.2-0.7,6.4-1.6,9.5c-0.9,3.1-2.2,6.3-4.2,9.1c-1,1.4-2.2,2.8-3.7,4
			c-1.5,1.2-3.3,2.1-5.4,2.4c-2,0.3-4.2-0.1-5.9-1c-1.7-0.9-3.1-2.2-4.2-3.5c-2.2-2.7-3.4-5.7-4.5-8.7c-1-3-1.7-6.1-2.3-9.2
			c-0.7-3.1-1.3-6.2-1.6-9.3c-0.6-6.3-1-12.8,0.9-19.2c0.9-3.2,2.2-6.4,4.4-9.3c1.1-1.4,2.4-2.8,4-3.9c1.6-1.1,3.5-1.9,5.6-2.2
			c2-0.3,4.2,0,6.1,0.7c1.9,0.7,3.5,1.8,4.9,3.1c2.7,2.6,4.3,5.8,5.3,9c1,3.2,1.5,6.4,1.7,9.6c0.1,1.6,0.1,3.2,0.2,4.8
			c0,0.8,0,1.6,0,2.4c0,0.4,0,0.8,0.1,1.2C157.8,111.5,158,111.9,158,112.3z M155.2,112.3c0-0.4,0.2-0.8,0.3-1.1
			c0.1-0.4,0.1-0.8,0.1-1.1c-0.1-0.8-0.2-1.5-0.3-2.3c-0.2-1.5-0.5-3-0.9-4.5c-0.8-2.9-1.8-5.7-3.1-8.3c-1.3-2.5-3-4.8-4.9-6.4
			c-1.9-1.6-4-2.3-6.1-2c-2,0.3-4,1.6-5.7,3.6c-1.7,2-3,4.5-3.9,7.2c-1.8,5.4-3.2,11.4-3.3,17.5c0,3,0,6.1,0.5,9.1
			c0.5,3,1.5,5.9,2.8,8.6c1.3,2.7,3,5.2,5.1,7.1c1,0.9,2.2,1.6,3.3,2c1.1,0.4,2.2,0.4,3.2,0.1c2-0.5,3.9-2.3,5.5-4.5
			c1.6-2.2,2.8-4.8,3.9-7.6C153.6,124.3,154.9,118.4,155.2,112.3z"/>
	</g>
	<g>
		<path class="st0" d="M153.7,156.7h-27.2c-5.4,0-9.8-4.4-9.8-9.8v-38.1c0-5.4,4.4-9.8,9.8-9.8h27.2c5.4,0,9.8,4.4,9.8,9.8v38.1
			C163.5,152.3,159.1,156.7,153.7,156.7z"/>
		<path d="M153.7,159c-8,0.1-16-0.6-24-0.7c-1,0-2,0-3,0c-1.1,0-2.3-0.1-3.4-0.5c-1.1-0.3-2.2-0.8-3.1-1.5c-1-0.7-1.8-1.5-2.5-2.4
			c-1.4-1.8-2.3-4.1-2.4-6.4c0-0.6,0-1.1,0-1.6l0-1.5l0-3l0-24l0-6l0-1.5l0-0.8c0-0.2,0-0.5,0-0.8c0-1.2,0.3-2.3,0.6-3.4
			c0.7-2.2,2.2-4.2,4.1-5.5c1-0.7,2-1.2,3.1-1.6c1.1-0.4,2.3-0.5,3.5-0.6c8-0.2,16-0.4,24-0.6l3-0.1c1.2,0,2.5,0.1,3.7,0.5
			c1.2,0.4,2.3,0.9,3.4,1.7c1,0.7,1.9,1.6,2.7,2.6c1.5,2,2.4,4.4,2.4,6.9c0,0.7,0,1.1,0,1.6l-0.1,1.5l-0.1,3c-0.3,8-0.5,16-0.5,24
			c0,2,0.1,4,0.2,6l0.1,1.5l0,0.8l0,0.4l0,0.4c0,1.2-0.2,2.4-0.5,3.5c-0.4,1.1-0.9,2.2-1.6,3.2c-0.7,1-1.5,1.9-2.5,2.6
			c-1,0.7-2.1,1.3-3.3,1.7C156.1,158.7,154.9,158.9,153.7,159z M153.7,154.4c3.1,0.1,6.1-1.9,7.4-4.9c0.3-0.7,0.5-1.5,0.6-2.3l0-0.3
			l0-0.4l0-0.8l0.1-1.5c0.1-2,0.1-4,0.2-6c0.1-8-0.2-16-0.5-24l-0.1-3l-0.1-1.5c0-0.5,0-1-0.1-1.4c-0.2-1.6-0.8-3-1.8-4.2
			c-0.5-0.6-1.1-1.1-1.7-1.5c-0.6-0.4-1.3-0.7-2.1-0.9c-0.7-0.2-1.4-0.3-2.3-0.3l-3-0.1c-8-0.3-16-0.5-24-0.6
			c-0.8,0-1.6,0.1-2.4,0.3c-0.8,0.2-1.5,0.6-2.2,1.1c-1.4,0.9-2.5,2.3-3,3.9c-0.3,0.8-0.5,1.6-0.5,2.4c0,0.2,0,0.4,0,0.7l0,0.8
			l0,1.5l0,6l0,24l0,3l0,1.5c0,0.5,0,1,0,1.4c0.1,1.7,0.7,3.3,1.8,4.6c0.5,0.7,1.1,1.2,1.8,1.7c0.7,0.5,1.5,0.8,2.3,1.1
			c0.8,0.2,1.6,0.3,2.5,0.3c1,0,2,0,3,0C137.6,155,145.7,154.3,153.7,154.4z"/>
	</g>
	<circle cx="140.1" cy="125.2" r="7.9"/>
	<path d="M140.1,141.5L140.1,141.5c-2.2,0-4-1.8-4-4v-8.6c0-2.2,1.8-4,4-4h0c2.2,0,4,1.8,4,4v8.6
		C144.1,139.7,142.3,141.5,140.1,141.5z"/>
	<g>
		<g>
			<path class="st0" d="M174.3,64.8c-0.2,1.8-1.1,2.5-2,3c-0.8,0.6-1.7,1.2-2.6,1.7c-1.8,1.1-3.7,1.9-5.6,2.7
				c-1.9,0.8-3.8,1.6-5.9,2.1c-1,0.3-2.1,0.4-3.2,0.6c-0.5,0.1-1.1,0.1-1.8-0.1c-0.6-0.1-1.3-0.4-2.2-0.9c0.1-0.9,0.4-1.5,0.7-2.1
				c0.3-0.5,0.7-0.9,1.1-1.2c0.8-0.6,1.7-1.2,2.6-1.7c1.8-1.1,3.7-1.7,5.7-2.5c1.9-0.7,3.9-1.4,6-1.8c1-0.2,2.1-0.4,3.2-0.5
				C171.5,63.9,172.6,63.7,174.3,64.8z"/>
			<path d="M174.9,64.5c0,0.1,0.1,0.3,0.1,0.5c0,0.2,0,0.3,0,0.4c0,0.2,0,0.3-0.1,0.5c-0.1,0.3-0.1,0.7-0.3,1
				c-0.3,0.7-0.8,1.3-1.3,1.7c-0.9,0.7-1.8,1.4-2.7,2.1c-2,1.3-4.1,2.2-6.2,3c-2.1,0.7-4.4,1.3-6.7,1.5c-0.6,0.1-1.1,0.1-1.7,0.2
				c-0.3,0-0.6,0.1-0.8,0.1c-0.3,0.1-0.6,0.1-0.9,0.1c-0.3,0-0.6,0-0.9,0c-0.3,0-0.6-0.1-0.9-0.2c-0.6-0.1-1.2-0.4-1.7-0.7l0,0
				l-0.3-0.2l0-0.6c0-0.6,0.1-1.3,0.3-1.9c0.1-0.2,0.1-0.3,0.2-0.5c0.1-0.1,0.1-0.3,0.2-0.4c0.2-0.3,0.4-0.6,0.7-0.9
				c0.5-0.6,1-0.8,1.5-1.2l1.4-1c0.9-0.7,2.1-1.2,3.1-1.7c1.1-0.5,2.1-0.8,3.2-1.3c2.1-0.7,4.4-1.4,6.7-1.5c1.2-0.1,2.3-0.1,3.4-0.1
				c0.6,0,1.3,0.1,1.9,0.3c0.3,0.1,0.6,0.2,0.8,0.4c0.1,0.1,0.3,0.1,0.4,0.2C174.3,64.2,174.6,64.4,174.9,64.5z M173.6,65.1
				C173.6,65.1,173.7,65.1,173.6,65.1c-0.1-0.1-0.2-0.2-0.3-0.3c-0.2-0.1-0.5-0.2-0.7-0.2c-0.5-0.1-0.9-0.1-1.4,0.1l-3.1,0.9
				c-2,0.7-4,1.4-6.1,2.2c-2.1,0.8-4.1,1.4-5.9,2.4l-1.4,0.8c-0.4,0.3-1,0.6-1.3,0.8c-0.2,0.1-0.3,0.2-0.4,0.4
				c-0.1,0.1-0.1,0.2-0.2,0.3c-0.1,0.1-0.1,0.2-0.2,0.3c-0.2,0.4-0.4,0.8-0.6,1.3l-0.4-0.8l0,0c0.4,0.3,0.8,0.6,1.3,0.8
				c0.2,0.1,0.5,0.2,0.7,0.3c0.2,0.1,0.5,0.1,0.7,0.2c0.2,0,0.5,0,0.8,0c0.3,0,0.5-0.1,0.8-0.1c0.5-0.1,1.1-0.2,1.6-0.4
				c2.2-0.5,3.9-1.7,6-2.7c2-1,4-1.9,5.8-2.9c0.9-0.6,1.9-1.1,2.8-1.7c0.4-0.2,0.7-0.4,0.9-0.8c0.1-0.2,0.2-0.3,0.3-0.6
				c0-0.1,0.1-0.2,0.1-0.3c0-0.1,0-0.1,0.1,0C173.5,65.1,173.6,65.1,173.6,65.1z"/>
		</g>
		<g>
			<path class="st0" d="M131.6,81.6c-0.2,1.8-1.1,2.5-2,3c-0.8,0.6-1.7,1.2-2.6,1.7c-1.8,1.1-3.7,1.9-5.6,2.7
				c-1.9,0.8-3.8,1.6-5.9,2.1c-1,0.3-2.1,0.4-3.2,0.6c-0.5,0.1-1.1,0.1-1.8-0.1c-0.6-0.1-1.3-0.4-2.2-0.9c0.1-0.9,0.4-1.5,0.7-2.1
				c0.3-0.5,0.7-0.9,1.1-1.2c0.8-0.6,1.7-1.2,2.6-1.7c1.8-1.1,3.7-1.7,5.7-2.5c1.9-0.7,3.9-1.4,6-1.8c1-0.2,2.1-0.4,3.2-0.5
				C128.9,80.7,130,80.6,131.6,81.6z"/>
			<path d="M132.3,81.3c0,0.1,0.1,0.3,0.1,0.5c0,0.2,0,0.3,0,0.4c0,0.2,0,0.3-0.1,0.5c-0.1,0.3-0.1,0.7-0.3,1
				c-0.3,0.7-0.8,1.3-1.3,1.7c-0.9,0.7-1.8,1.4-2.7,2.1c-2,1.3-4.1,2.2-6.2,3c-2.1,0.7-4.4,1.3-6.7,1.5c-0.6,0.1-1.1,0.1-1.7,0.2
				c-0.3,0-0.6,0.1-0.8,0.1c-0.3,0.1-0.6,0.1-0.9,0.1c-0.3,0-0.6,0-0.9,0c-0.3,0-0.6-0.1-0.9-0.2c-0.6-0.1-1.2-0.4-1.7-0.7l0,0
				l-0.3-0.2l0-0.6c0-0.6,0.1-1.3,0.3-1.9c0.1-0.2,0.1-0.3,0.2-0.5c0.1-0.1,0.1-0.3,0.2-0.4c0.2-0.3,0.4-0.6,0.7-0.9
				c0.5-0.6,1-0.8,1.5-1.2l1.4-1c0.9-0.7,2.1-1.2,3.1-1.7c1.1-0.5,2.1-0.8,3.2-1.3c2.1-0.7,4.4-1.4,6.7-1.5c1.2-0.1,2.3-0.1,3.4-0.1
				c0.6,0,1.3,0.1,1.9,0.3c0.3,0.1,0.6,0.2,0.8,0.4c0.1,0.1,0.3,0.1,0.4,0.2C131.7,81,132,81.2,132.3,81.3z M131,81.9
				C131,81.9,131.1,81.9,131,81.9c-0.1-0.1-0.2-0.2-0.3-0.3c-0.2-0.1-0.5-0.2-0.7-0.2c-0.5-0.1-0.9-0.1-1.4,0.1l-3.1,0.9
				c-2,0.7-4,1.4-6.1,2.2c-2.1,0.8-4.1,1.4-5.9,2.4l-1.4,0.8c-0.4,0.3-1,0.6-1.3,0.8c-0.2,0.1-0.3,0.2-0.4,0.4
				c-0.1,0.1-0.1,0.2-0.2,0.3c-0.1,0.1-0.1,0.2-0.2,0.3c-0.2,0.4-0.4,0.8-0.6,1.3l-0.4-0.8l0,0c0.4,0.3,0.8,0.6,1.3,0.8
				c0.2,0.1,0.5,0.2,0.7,0.3c0.2,0.1,0.5,0.1,0.7,0.2c0.2,0,0.5,0,0.8,0c0.3,0,0.5-0.1,0.8-0.1c0.5-0.1,1.1-0.2,1.6-0.4
				c2.2-0.5,3.9-1.7,6-2.7c2-1,4-1.9,5.8-2.9c0.9-0.6,1.9-1.1,2.8-1.7c0.4-0.2,0.7-0.4,0.9-0.8c0.1-0.2,0.2-0.3,0.3-0.6
				c0-0.1,0.1-0.2,0.1-0.3c0-0.1,0-0.1,0.1,0C130.9,81.9,131,81.9,131,81.9z"/>
		</g>
		<g>
			<path class="st0" d="M89,98.4c-0.2,1.8-1.1,2.5-2,3c-0.8,0.6-1.7,1.2-2.6,1.7c-1.8,1.1-3.7,1.9-5.6,2.7c-1.9,0.8-3.8,1.6-5.9,2.1
				c-1,0.3-2.1,0.4-3.2,0.6c-0.5,0.1-1.1,0.1-1.8-0.1c-0.6-0.1-1.3-0.4-2.2-0.9c0.1-0.9,0.4-1.5,0.7-2.1c0.3-0.5,0.7-0.9,1.1-1.2
				c0.8-0.6,1.7-1.2,2.6-1.7c1.8-1.1,3.7-1.7,5.7-2.5c1.9-0.7,3.9-1.4,6-1.8c1-0.2,2.1-0.4,3.2-0.5C86.3,97.5,87.3,97.4,89,98.4z"/>
			<path d="M89.7,98.2c0,0.1,0.1,0.3,0.1,0.5c0,0.2,0,0.3,0,0.4c0,0.2,0,0.3-0.1,0.5c-0.1,0.3-0.1,0.7-0.3,1
				c-0.3,0.7-0.8,1.3-1.3,1.7c-0.9,0.7-1.8,1.4-2.7,2.1c-2,1.3-4.1,2.2-6.2,3c-2.1,0.7-4.4,1.3-6.7,1.5c-0.6,0.1-1.1,0.1-1.7,0.2
				c-0.3,0-0.6,0.1-0.8,0.1c-0.3,0.1-0.6,0.1-0.9,0.1c-0.3,0-0.6,0-0.9,0c-0.3,0-0.6-0.1-0.9-0.2c-0.6-0.1-1.2-0.4-1.7-0.7l0,0
				l-0.3-0.2l0-0.6c0-0.6,0.1-1.3,0.3-1.9c0.1-0.2,0.1-0.3,0.2-0.5c0.1-0.1,0.1-0.3,0.2-0.4c0.2-0.3,0.4-0.6,0.7-0.9
				c0.5-0.6,1-0.8,1.5-1.2l1.4-1c0.9-0.7,2.1-1.2,3.1-1.7c1.1-0.5,2.1-0.8,3.2-1.3c2.1-0.7,4.4-1.4,6.7-1.5c1.2-0.1,2.3-0.1,3.4-0.1
				c0.6,0,1.3,0.1,1.9,0.3c0.3,0.1,0.6,0.2,0.8,0.4c0.1,0.1,0.3,0.1,0.4,0.2C89.1,97.8,89.4,98,89.7,98.2z M88.4,98.7
				C88.4,98.8,88.5,98.8,88.4,98.7c-0.1-0.1-0.2-0.2-0.3-0.3c-0.2-0.1-0.5-0.2-0.7-0.2c-0.5-0.1-0.9-0.1-1.4,0.1l-3.1,0.9
				c-2,0.7-4,1.4-6.1,2.2c-2.1,0.8-4.1,1.4-5.9,2.4l-1.4,0.8c-0.4,0.3-1,0.6-1.3,0.8c-0.2,0.1-0.3,0.2-0.4,0.4
				c-0.1,0.1-0.1,0.2-0.2,0.3c-0.1,0.1-0.1,0.2-0.2,0.3c-0.2,0.4-0.4,0.8-0.6,1.3l-0.4-0.8l0,0c0.4,0.3,0.8,0.6,1.3,0.8
				c0.2,0.1,0.5,0.2,0.7,0.3c0.2,0.1,0.5,0.1,0.7,0.2c0.2,0,0.5,0,0.8,0c0.3,0,0.5-0.1,0.8-0.1c0.5-0.1,1.1-0.2,1.6-0.4
				c2.2-0.5,3.9-1.7,6-2.7c2-1,4-1.9,5.8-2.9c0.9-0.6,1.9-1.1,2.8-1.7c0.4-0.2,0.7-0.4,0.9-0.8c0.1-0.2,0.2-0.3,0.3-0.6
				c0-0.1,0.1-0.2,0.1-0.3c0-0.1,0-0.1,0.1,0C88.3,98.7,88.3,98.7,88.4,98.7z"/>
		</g>
		<g>
			<path class="st0" d="M47.1,115c-0.2,1.8-1.1,2.5-2,3c-0.8,0.6-1.7,1.2-2.6,1.7c-1.8,1.1-3.7,1.9-5.6,2.7
				c-1.9,0.8-3.8,1.6-5.9,2.1c-1,0.3-2.1,0.4-3.2,0.6c-0.5,0.1-1.1,0.1-1.8-0.1c-0.6-0.1-1.3-0.4-2.2-0.9c0.1-0.9,0.4-1.5,0.7-2.1
				c0.3-0.5,0.7-0.9,1.1-1.2c0.8-0.6,1.7-1.2,2.6-1.7c1.8-1.1,3.7-1.7,5.7-2.5c1.9-0.7,3.9-1.4,6-1.8c1-0.2,2.1-0.4,3.2-0.5
				C44.3,114.1,45.4,113.9,47.1,115z"/>
			<path d="M47.7,114.7c0,0.1,0.1,0.3,0.1,0.5c0,0.2,0,0.3,0,0.4c0,0.2,0,0.3-0.1,0.5c-0.1,0.3-0.1,0.7-0.3,1
				c-0.3,0.7-0.8,1.3-1.3,1.7c-0.9,0.7-1.8,1.4-2.7,2.1c-2,1.3-4.1,2.2-6.2,3c-2.1,0.7-4.4,1.3-6.7,1.5c-0.6,0.1-1.1,0.1-1.7,0.2
				c-0.3,0-0.6,0.1-0.8,0.1c-0.3,0.1-0.6,0.1-0.9,0.1c-0.3,0-0.6,0-0.9,0c-0.3,0-0.6-0.1-0.9-0.2c-0.6-0.1-1.2-0.4-1.7-0.7l0,0
				l-0.3-0.2l0-0.6c0-0.6,0.1-1.3,0.3-1.9c0.1-0.2,0.1-0.3,0.2-0.5c0.1-0.1,0.1-0.3,0.2-0.4c0.2-0.3,0.4-0.6,0.7-0.9
				c0.5-0.6,1-0.8,1.5-1.2l1.4-1c0.9-0.7,2.1-1.2,3.1-1.7c1.1-0.5,2.1-0.8,3.2-1.3c2.1-0.7,4.4-1.4,6.7-1.5c1.2-0.1,2.3-0.1,3.4-0.1
				c0.6,0,1.3,0.1,1.9,0.3c0.3,0.1,0.6,0.2,0.8,0.4c0.1,0.1,0.3,0.1,0.4,0.2C47.1,114.4,47.4,114.6,47.7,114.7z M46.4,115.3
				C46.4,115.3,46.5,115.3,46.4,115.3c-0.1-0.1-0.2-0.2-0.3-0.3c-0.2-0.1-0.5-0.2-0.7-0.2c-0.5-0.1-0.9-0.1-1.4,0.1l-3.1,0.9
				c-2,0.7-4,1.4-6.1,2.2c-2.1,0.8-4.1,1.4-5.9,2.4l-1.4,0.8c-0.4,0.3-1,0.6-1.3,0.8c-0.2,0.1-0.3,0.2-0.4,0.4
				c-0.1,0.1-0.1,0.2-0.2,0.3c-0.1,0.1-0.1,0.2-0.2,0.3c-0.2,0.4-0.4,0.8-0.6,1.3l-0.4-0.8l0,0c0.4,0.3,0.8,0.6,1.3,0.8
				c0.2,0.1,0.5,0.2,0.7,0.3c0.2,0.1,0.5,0.1,0.7,0.2c0.2,0,0.5,0,0.8,0c0.3,0,0.5-0.1,0.8-0.1c0.5-0.1,1.1-0.2,1.6-0.4
				c2.2-0.5,3.9-1.7,6-2.7c2-1,4-1.9,5.8-2.9c0.9-0.6,1.9-1.1,2.8-1.7c0.4-0.2,0.7-0.4,0.9-0.8c0.1-0.2,0.2-0.3,0.3-0.6
				c0-0.1,0.1-0.2,0.1-0.3c0-0.1,0-0.1,0.1,0C46.3,115.3,46.4,115.3,46.4,115.3z"/>
		</g>
		<g>
			<path class="st0" d="M175.9,70.3c-2.1-0.9-3.8-2.4-4.7-4.3c-2.5-5.1,1.2-11.3,8.4-14.1l0,0c4.1-1.6,8.6-1.8,12.1-0.4
				c2.4,0.9,4.1,2.5,5.1,4.5c2.5,5.1-1.2,11.3-8.4,14.1c-4.1,1.6-8.6,1.8-12.1,0.4C176.2,70.4,176,70.3,175.9,70.3z M182.5,57.7
				c-4.1,1.6-5.8,4.6-5.2,5.9c0.2,0.5,0.8,0.8,1.3,1c1.4,0.6,4,0.7,7-0.4c4.1-1.6,5.8-4.6,5.2-5.9c-0.2-0.5-0.8-0.8-1.3-1
				C188,56.7,185.4,56.5,182.5,57.7L182.5,57.7z"/>
			<g>
				<path d="M175.6,70.9c-1.6-0.6-3.1-1.5-4.2-2.8c-1.2-1.3-2-3-2.2-4.9c-0.2-1.8,0.3-3.7,1.1-5.2c0.8-1.6,2-2.9,3.3-4
					c2.7-2.1,5.9-3.2,9.1-3.6c1.6-0.3,3.2-0.3,4.8-0.3c1.6,0,3.3,0.3,4.9,0.8c1.6,0.6,3.1,1.5,4.3,2.8c1.2,1.3,2,3.1,2.1,5
					c0.2,1.9-0.3,3.7-1.1,5.3c-0.8,1.6-2,3-3.3,4.1c-2.7,2.2-5.9,3.6-9.2,4c-1.7,0.2-3.3,0.2-5-0.1c-0.8-0.1-1.6-0.3-2.4-0.5
					c-0.4-0.1-0.8-0.3-1.2-0.4C176.5,70.9,176,71,175.6,70.9z M176.1,69.6c0.3,0.2,0.6,0.5,1,0.6c0.4,0.1,0.7,0.2,1.1,0.2
					c0.7,0.1,1.5,0.2,2.3,0.2c1.5,0,3-0.3,4.4-0.7c2.8-0.9,5.5-2.2,7.6-4.1c2.1-1.8,3.7-4.3,3.6-6.9c-0.1-1.3-0.5-2.6-1.2-3.7
					c-0.7-1.1-1.8-2.1-3.1-2.8c-1.3-0.7-2.8-1.1-4.3-1.3c-1.5-0.2-3.1,0-4.6,0.3c-3,0.8-5.7,2.4-7.7,4.4c-2.1,2-3.6,4.5-3.5,7.2
					c0,1.3,0.4,2.7,1.2,3.8C173.7,68,174.8,68.9,176.1,69.6z"/>
				<path d="M182.7,58.4c-1.2,0.7-2.2,1.6-3,2.5c-0.4,0.5-0.7,1-1,1.4c-0.1,0.2-0.2,0.4-0.2,0.6c0,0.2,0,0.2-0.1,0.2
					c-0.1,0.1,0.5,0.6,1,0.9c0.6,0.3,1.2,0.5,1.9,0.5c0.7,0.1,1.4,0,2-0.2c0.7-0.3,1.3-0.5,1.9-0.9c1.2-0.7,2.1-1.7,3-2.5
					c0.4-0.4,0.7-0.9,0.9-1.4c0.1-0.2,0.1-0.4,0.2-0.5c0-0.1,0-0.1,0.1,0c0.1,0.1,0-0.1-0.2-0.2c-0.2-0.1-0.4-0.2-0.7-0.3
					c-0.5-0.2-1.1-0.4-1.8-0.5c-0.6-0.1-1.3-0.2-2-0.2c-0.3,0-0.7,0-1,0.1l-0.5,0.1C182.9,58,182.9,58.3,182.7,58.4z M182.2,57.1
					c0.2,0,0.4,0.1,0.6,0l0.5-0.2c0.3-0.1,0.7-0.3,1.1-0.5c0.7-0.3,1.5-0.5,2.3-0.7c0.8-0.1,1.6-0.2,2.5,0c0.4,0.1,0.9,0.2,1.4,0.4
					c0.5,0.2,1,0.5,1.4,1.2c0.5,0.7,0.5,1.5,0.4,2.1c-0.1,0.6-0.3,1.1-0.5,1.5c-0.5,0.8-1.1,1.5-1.7,2c-0.6,0.5-1.3,1-2.1,1.3
					c-0.7,0.3-1.5,0.5-2.3,0.7c-0.8,0.2-1.5,0.3-2.3,0.4c-0.8,0-1.5,0.2-2.2,0.3c-0.8,0.1-1.5,0.1-2.4,0.1c-0.4,0-0.8-0.1-1.3-0.3
					c-0.4-0.2-0.9-0.4-1.4-1c-0.4-0.6-0.5-1.3-0.5-1.9c0.1-0.6,0.2-1,0.4-1.4c0.4-0.8,1-1.5,1.6-2C179.3,58,180.7,57.5,182.2,57.1z"
					/>
			</g>
		</g>
		<g>
			<path class="st0" d="M133.2,87.1c-2.1-0.9-3.8-2.4-4.7-4.3c-2.5-5.1,1.2-11.3,8.4-14.1l0,0c4.1-1.6,8.6-1.8,12.1-0.4
				c2.3,0.9,4.1,2.5,5.1,4.5c2.5,5.1-1.2,11.3-8.4,14.1c-4.1,1.6-8.6,1.8-12.1,0.4C133.5,87.2,133.4,87.1,133.2,87.1z M139.8,74.5
				c-4.1,1.6-5.8,4.6-5.2,5.9c0.2,0.5,0.8,0.8,1.3,1c1.4,0.6,4,0.7,7-0.4c4.1-1.6,5.8-4.6,5.2-5.9c-0.2-0.5-0.8-0.8-1.3-1
				C145.4,73.5,142.8,73.4,139.8,74.5L139.8,74.5z"/>
			<g>
				<path d="M133,87.7c-1.6-0.6-3.1-1.5-4.2-2.8c-1.2-1.3-2-3-2.2-4.9c-0.2-1.8,0.3-3.7,1.1-5.2c0.8-1.6,2-2.9,3.3-4
					c2.7-2.1,5.9-3.2,9.1-3.6c1.6-0.3,3.2-0.3,4.8-0.3c1.6,0,3.3,0.3,4.9,0.8c1.6,0.6,3.1,1.5,4.3,2.8c1.2,1.3,2,3.1,2.1,5
					c0.2,1.9-0.3,3.7-1.1,5.3c-0.8,1.6-2,3-3.3,4.1c-2.7,2.2-5.9,3.6-9.2,4c-1.7,0.2-3.3,0.2-5-0.1c-0.8-0.1-1.6-0.3-2.4-0.5
					c-0.4-0.1-0.8-0.3-1.2-0.4C133.8,87.8,133.4,87.9,133,87.7z M133.5,86.4c0.3,0.2,0.6,0.5,1,0.6c0.4,0.1,0.7,0.2,1.1,0.2
					c0.7,0.1,1.5,0.2,2.3,0.2c1.5,0,3-0.3,4.4-0.7c2.8-0.9,5.5-2.2,7.6-4.1c2.1-1.8,3.7-4.3,3.6-6.9c-0.1-1.3-0.5-2.6-1.2-3.7
					c-0.7-1.1-1.8-2.1-3.1-2.8c-1.3-0.7-2.8-1.1-4.3-1.3c-1.5-0.2-3.1,0-4.6,0.3c-3,0.8-5.7,2.4-7.7,4.4c-2.1,2-3.6,4.5-3.5,7.2
					c0,1.3,0.4,2.7,1.2,3.8C131.1,84.8,132.2,85.8,133.5,86.4z"/>
				<path d="M140.1,75.2c-1.2,0.7-2.2,1.6-3,2.5c-0.4,0.5-0.7,1-1,1.4c-0.1,0.2-0.2,0.4-0.2,0.6c0,0.2,0,0.2-0.1,0.2
					c-0.1,0.1,0.5,0.6,1,0.9c0.6,0.3,1.2,0.5,1.9,0.5c0.7,0.1,1.4,0,2-0.2c0.7-0.3,1.3-0.5,1.9-0.9c1.2-0.7,2.1-1.7,3-2.5
					c0.4-0.4,0.7-0.9,0.9-1.4c0.1-0.2,0.1-0.4,0.2-0.5c0-0.1,0-0.1,0.1,0c0.1,0.1,0-0.1-0.2-0.2c-0.2-0.1-0.4-0.2-0.7-0.3
					c-0.5-0.2-1.1-0.4-1.8-0.5c-0.6-0.1-1.3-0.2-2-0.2c-0.3,0-0.7,0-1,0.1l-0.5,0.1C140.3,74.8,140.3,75.1,140.1,75.2z M139.6,73.9
					c0.2,0,0.4,0.1,0.6,0l0.5-0.2c0.3-0.1,0.7-0.3,1.1-0.5c0.7-0.3,1.5-0.5,2.3-0.7c0.8-0.1,1.6-0.2,2.5,0c0.4,0.1,0.9,0.2,1.4,0.4
					c0.5,0.2,1,0.5,1.4,1.2c0.5,0.7,0.5,1.5,0.4,2.1c-0.1,0.6-0.3,1.1-0.5,1.5c-0.5,0.8-1.1,1.5-1.7,2c-0.6,0.5-1.3,1-2.1,1.3
					c-0.7,0.3-1.5,0.5-2.3,0.7c-0.8,0.2-1.5,0.3-2.3,0.4c-0.8,0-1.5,0.2-2.2,0.3c-0.8,0.1-1.5,0.1-2.4,0.1c-0.8-0.1-1.7-0.2-2.6-1.2
					c-0.4-0.6-0.5-1.3-0.5-1.9c0.1-0.6,0.2-1,0.4-1.4c0.4-0.8,1-1.5,1.6-2C136.6,74.9,138.1,74.3,139.6,73.9z"/>
			</g>
		</g>
		<g>
			<path class="st0" d="M90.6,103.9c-2.1-0.9-3.8-2.4-4.7-4.3c-2.5-5.1,1.2-11.3,8.4-14.1l0,0c4.1-1.6,8.6-1.8,12.1-0.4
				c2.4,0.9,4.1,2.5,5.1,4.5c2.5,5.1-1.2,11.3-8.4,14.1c-4.1,1.6-8.6,1.8-12.1,0.4C90.9,104,90.8,104,90.6,103.9z M104.4,91
				c-0.1,0-0.1,0-0.2-0.1c-1.4-0.6-4-0.7-7,0.4l0,0c-4.1,1.6-5.8,4.6-5.2,5.9c0.2,0.5,0.8,0.8,1.3,1c1.4,0.6,4,0.7,7-0.4
				c4.1-1.6,5.8-4.6,5.2-5.9C105.3,91.5,104.8,91.2,104.4,91z"/>
			<g>
				<path d="M90.4,104.5c-1.6-0.6-3.1-1.5-4.2-2.8c-1.2-1.3-2-3-2.2-4.9c-0.2-1.8,0.3-3.7,1.1-5.2c0.8-1.6,2-2.9,3.3-4
					c2.7-2.1,5.9-3.2,9.1-3.6c1.6-0.3,3.2-0.3,4.8-0.3c1.6,0,3.3,0.3,4.9,0.8c1.6,0.6,3.1,1.5,4.3,2.8c1.2,1.3,2,3.1,2.1,5
					c0.2,1.9-0.3,3.7-1.1,5.3c-0.8,1.6-2,3-3.3,4.1c-2.7,2.2-5.9,3.6-9.2,4c-1.7,0.2-3.3,0.2-5-0.1c-0.8-0.1-1.6-0.3-2.4-0.5
					c-0.4-0.1-0.8-0.3-1.2-0.4C91.2,104.6,90.7,104.7,90.4,104.5z M90.9,103.3c0.3,0.2,0.6,0.5,1,0.6c0.4,0.1,0.7,0.2,1.1,0.2
					c0.7,0.1,1.5,0.2,2.3,0.2c1.5,0,3-0.3,4.4-0.7c2.8-0.9,5.5-2.2,7.6-4.1c2.1-1.8,3.7-4.3,3.6-6.9c-0.1-1.3-0.5-2.6-1.2-3.7
					c-0.7-1.1-1.8-2.1-3.1-2.8c-1.3-0.7-2.8-1.1-4.3-1.3c-1.5-0.2-3.1,0-4.6,0.3c-3,0.8-5.7,2.4-7.7,4.4c-2.1,2-3.6,4.5-3.5,7.2
					c0,1.3,0.4,2.7,1.2,3.8C88.5,101.6,89.6,102.6,90.9,103.3z"/>
				<path d="M104.1,91.6c-1.2-0.3-2.6-0.1-3.8,0.2c-1.3,0.3-2.5,0.7-3.7,1.2c-1.2,0.4-2.5,0.9-3.4,1.9c-0.4,0.5-0.8,1.1-0.7,1.7
					c0.1,0.3,0.2,0.4,0.3,0.5c0.2,0.1,0.4,0.2,0.7,0.3c2.5,0.3,5.1-0.4,7.3-1.6c1.1-0.5,2.2-1.2,3.1-2c0.4-0.4,0.8-0.9,1-1.3
					c0-0.2,0.1-0.4,0-0.6c-0.1-0.1-0.2-0.2-0.3-0.3C104.5,91.5,104.2,91.7,104.1,91.6z M104.6,90.3c0.2,0.1,0.3,0.4,0.5,0.5
					c0.2,0.1,0.4,0.2,0.6,0.4c0.4,0.3,0.6,0.9,0.7,1.4c0.1,1-0.2,1.9-0.6,2.6c-0.8,1.6-2.1,2.7-3.5,3.4c-1.4,0.8-3,1.2-4.6,1.3
					c-1.6,0.2-3.3-0.2-4.8-1.1c-0.4-0.2-0.7-0.5-1-0.9c-0.3-0.4-0.4-1-0.4-1.4c0.1-0.9,0.5-1.6,0.9-2.3c0.8-1.3,1.8-2.6,3.2-3.5
					C98.1,89.1,101.7,88.8,104.6,90.3z"/>
			</g>
		</g>
		<g>
			<path class="st0" d="M48.7,120.5c-2.1-0.9-3.8-2.4-4.7-4.3c-2.5-5.1,1.2-11.3,8.4-14.1l0,0c4.1-1.6,8.6-1.8,12.1-0.4
				c2.4,0.9,4.1,2.5,5.1,4.5c2.5,5.1-1.2,11.3-8.4,14.1c-4.1,1.6-8.6,1.8-12.1,0.4C49,120.6,48.8,120.5,48.7,120.5z M55.3,107.9
				c-4.1,1.6-5.8,4.6-5.2,5.9c0.2,0.5,0.8,0.8,1.3,1c1.4,0.6,4,0.7,7-0.4c4.1-1.6,5.8-4.6,5.2-5.9c-0.2-0.5-0.8-0.8-1.3-1
				C60.8,106.9,58.2,106.7,55.3,107.9L55.3,107.9z"/>
			<g>
				<path d="M48.4,121.1c-2.1-0.8-4-2.2-5.2-4.2c-0.6-1-1-2.2-1.1-3.4c-0.1-1.2,0-2.4,0.3-3.6c0.7-2.3,2.1-4.2,3.9-5.6
					c1.8-1.4,3.8-2.4,5.8-3l0.4-0.1l0.2,0.1l0,0l-0.6,0c2.1-0.6,4.3-1,6.4-1c2.1-0.1,4.4,0,6.5,0.7c2.1,0.7,4.2,2.1,5.5,4.2
					c1.3,2.1,1.5,4.8,0.8,7.2c-0.7,2.4-2.1,4.4-3.9,5.9c-1.8,1.5-3.8,2.7-6,3.3c-2.2,0.7-4.4,0.9-6.6,0.8c-1.1-0.1-2.2-0.2-3.3-0.5
					c-0.5-0.1-1.1-0.3-1.6-0.5c-0.3-0.1-0.5-0.2-0.8-0.3C48.9,121.2,48.6,121.2,48.4,121.1z M48.9,119.8c0.2,0.1,0.4,0.3,0.6,0.4
					c0.2,0.1,0.5,0.2,0.7,0.2c0.5,0.1,1,0.2,1.5,0.2c1,0.1,2,0.1,3-0.1c2-0.2,3.9-0.9,5.7-1.7c1.8-0.8,3.5-1.8,4.9-3.1
					c1.4-1.2,2.5-2.8,3.1-4.4c1.3-3.3-0.5-7.2-4.1-9c-1.8-0.9-3.8-1.4-5.9-1.3c-2.1,0.1-4.1,0.7-5.9,1.6l-0.2,0.1l-0.4-0.1l0,0
					l0.6,0c-1.8,0.9-3.4,2.1-4.7,3.4c-1.3,1.3-2.4,2.9-3,4.6c-0.6,1.7-0.6,3.5,0.2,5.1C45.8,117.6,47.2,118.9,48.9,119.8z"/>
				<path d="M56,107.9c-0.1,0.2-0.3,0.5-0.6,0.7c-0.1,0.1-0.3,0.2-0.5,0.3l-0.2,0.1c-0.3,0.2-0.6,0.4-0.8,0.6
					c-0.5,0.4-1,0.9-1.4,1.4c-0.4,0.5-0.7,1-1,1.4c-0.1,0.2-0.2,0.4-0.2,0.6c0,0.2,0,0.2-0.1,0.2c-0.1,0.1,0.5,0.6,1,0.9
					c0.6,0.3,1.2,0.5,1.9,0.5c0.7,0.1,1.4,0,2-0.2c0.7-0.3,1.3-0.5,1.9-0.9c1.2-0.7,2.1-1.7,3-2.5c0.4-0.4,0.7-0.9,0.9-1.4
					c0.1-0.2,0.1-0.4,0.2-0.5c0-0.1,0-0.1,0.1,0c0.1,0.1,0-0.1-0.2-0.2c-0.2-0.1-0.4-0.2-0.7-0.3c-0.5-0.2-1.1-0.4-1.8-0.5
					c-0.6-0.1-1.3-0.2-2-0.2c-0.3,0-0.7,0-1,0.1l-0.5,0.1c-0.1,0-0.2,0.1-0.2,0.1l-0.1,0.1l0,0.1l0,0l0,0l0,0
					C55.7,108.3,55.1,109.2,56,107.9z M54.6,107.9c0.9-1.3,0.2-0.3,0.4-0.6l0,0l0,0l0,0l0.1,0l0.2,0c0.1,0,0.2,0,0.3,0l0.5-0.2
					c0.3-0.1,0.7-0.3,1.1-0.5c0.7-0.3,1.5-0.5,2.3-0.7c0.8-0.1,1.6-0.2,2.5,0c0.4,0.1,0.9,0.2,1.4,0.4c0.5,0.2,1,0.5,1.4,1.2
					c0.5,0.7,0.5,1.5,0.4,2.1c-0.1,0.6-0.3,1.1-0.5,1.5c-0.5,0.8-1.1,1.5-1.7,2c-0.6,0.5-1.3,1-2.1,1.3c-0.7,0.3-1.5,0.5-2.3,0.7
					c-0.8,0.2-1.5,0.3-2.3,0.4c-0.8,0-1.5,0.2-2.2,0.3c-0.8,0.1-1.5,0.2-2.4,0.1c-0.4,0-0.8-0.1-1.3-0.3c-0.4-0.2-0.9-0.4-1.4-1
					c-0.4-0.6-0.5-1.3-0.5-1.9c0.1-0.6,0.2-1,0.4-1.4c0.4-0.8,1-1.5,1.6-2c0.6-0.5,1.4-0.9,2.1-1.2c0.4-0.2,0.7-0.3,1.1-0.4l0.3-0.1
					c0,0,0,0,0,0.1C54.3,107.7,54.4,107.8,54.6,107.9z"/>
			</g>
		</g>
		<g>
			<path class="st0" d="M6.7,137c-2.1-0.9-3.7-2.4-4.7-4.3c-2.5-5.1,1.2-11.3,8.4-14.1c4.1-1.6,8.6-1.8,12.1-0.4
				c2.4,0.9,4.1,2.5,5.1,4.5c2.5,5.1-1.2,11.3-8.4,14.1c-4.1,1.6-8.6,1.8-12.1,0.4C7,137.2,6.8,137.1,6.7,137z M20.4,124.1
				c-0.1,0-0.1,0-0.2-0.1c-1.4-0.6-4-0.7-7,0.4l0,0c-4.1,1.6-5.8,4.6-5.2,5.9c0.2,0.5,0.8,0.8,1.3,1c1.4,0.6,4,0.7,7-0.4
				c4.1-1.6,5.8-4.6,5.2-5.9C21.3,124.6,20.9,124.3,20.4,124.1z"/>
			<g>
				<path d="M6.4,137.7c-1.6-0.6-3.1-1.5-4.2-2.8c-1.2-1.3-2-3-2.2-4.9c-0.2-1.8,0.3-3.7,1.1-5.2c0.8-1.6,2-2.9,3.3-4
					c2.7-2.1,5.9-3.2,9.1-3.6c1.6-0.3,3.2-0.3,4.8-0.3c1.6,0,3.3,0.3,4.9,0.8c1.6,0.6,3.1,1.5,4.3,2.8c1.2,1.3,2,3.1,2.1,5
					c0.2,1.9-0.3,3.7-1.1,5.3c-0.8,1.6-2,3-3.3,4.1c-2.7,2.2-5.9,3.6-9.2,4c-1.7,0.2-3.3,0.2-5-0.1c-0.8-0.1-1.6-0.3-2.4-0.5
					c-0.4-0.1-0.8-0.3-1.2-0.4C7.3,137.7,6.8,137.8,6.4,137.7z M7,136.4c0.3,0.2,0.6,0.5,1,0.6c0.4,0.1,0.7,0.2,1.1,0.2
					c0.7,0.1,1.5,0.2,2.3,0.2c1.5,0,3-0.3,4.4-0.7c2.8-0.9,5.5-2.2,7.6-4.1c2.1-1.8,3.7-4.3,3.6-6.9c-0.1-2.6-1.7-5.1-4.3-6.5
					c-1.3-0.7-2.8-1.1-4.3-1.3c-1.5-0.2-3.1,0-4.6,0.3c-3,0.8-5.7,2.4-7.7,4.4c-2.1,2-3.6,4.5-3.5,7.2c0,1.3,0.4,2.7,1.2,3.8
					C4.5,134.8,5.7,135.7,7,136.4z"/>
				<path d="M20.1,124.7c-1-0.3-2.2-0.2-3.2,0.1c-1.1,0.2-2.1,0.5-3.1,0.9l-0.6,0.2l-0.5-0.2l0,0l1,0c-1,0.3-2,0.7-2.9,1.1
					c-0.9,0.5-1.8,1.2-2.3,2.1c-0.2,0.5-0.2,1,0,1.2c0.2,0.2,0.6,0.4,1.1,0.5c1,0.2,2-0.1,3-0.2c1-0.2,1.9-0.5,2.9-0.9
					c0.9-0.4,1.8-0.8,2.7-1.3c0.8-0.5,1.6-1.1,2.2-1.8c0.3-0.3,0.5-0.7,0.5-1c0-0.1,0-0.3-0.2-0.5c-0.1-0.1-0.1-0.2-0.3-0.2
					C20.4,124.7,20.3,124.8,20.1,124.7z M20.7,123.5c0.2,0.1,0.2,0.3,0.3,0.4c0.1,0.1,0.3,0.2,0.4,0.3c0.3,0.2,0.6,0.5,0.8,0.9
					c0.3,0.8,0.2,1.6,0,2.2c-0.4,1.4-1.2,2.5-2.2,3.3c-2,1.7-4.5,2.5-7.1,2.5c-1.3,0-2.6-0.3-3.8-0.9c-0.6-0.3-1.2-0.7-1.6-1.5
					c-0.3-0.8,0-1.5,0.2-2.1c0.2-0.6,0.5-1.1,0.9-1.7c0.3-0.5,0.7-1,1.1-1.5c0.8-0.9,1.9-1.7,3-2.2l0.5-0.2l0.6,0.2l0,0l-1,0
					c1.2-0.5,2.6-0.8,3.9-0.8c0.7,0,1.4,0.1,2,0.3C19.4,122.9,20.1,123.1,20.7,123.5z"/>
			</g>
		</g>
	</g>
</g>
</svg>
