<!-- Generator: Adobe Illustrator 21.1.0, SVG Export Plug-In  -->
<svg version="1.1"
	 xmlns="http://www.w3.org/2000/svg" xmlns:xlink="http://www.w3.org/1999/xlink" xmlns:a="http://ns.adobe.com/AdobeSVGViewerExtensions/3.0/"
	 x="0px" y="0px" width="191.9px" height="276.1px" viewBox="0 0 191.9 276.1" style="enable-background:new 0 0 191.9 276.1;"
	 xml:space="preserve">
<style type="text/css">
	.st0{fill:#FFFFFF;}
</style>
<defs>
</defs>
<g>
	<g>
		<path class="st0" d="M47.8,274.6H5c-1,0-1.9-0.8-1.9-1.9V3.5c0-1,0.8-1.9,1.9-1.9h42.7c1,0,1.9,0.8,1.9,1.9v269.1
			C49.7,273.7,48.8,274.6,47.8,274.6z"/>
		<path d="M47.8,275.9c-3.3,0-6.6-0.5-9.9-0.4l-9.9,0.2L8,276l-2.5,0l-0.3,0c-0.1,0-0.2,0-0.4,0c-0.4,0-0.7-0.1-1.1-0.2
			c-0.7-0.3-1.3-0.8-1.7-1.4c-0.2-0.3-0.3-0.7-0.4-1.1c0-0.2-0.1-0.4-0.1-0.6l0-0.4l0-1.2l-0.1-2.5l-0.2-9.9l-0.4-19.9
			c-0.6-26.5-0.7-53-0.8-79.4c0-13.2,0-26.5,0.1-39.7L0.3,80c0.1-13.2,0.2-26.5,0.4-39.7l0.4-19.9l0.2-9.9l0.1-5l0-1.2l0-0.6
			c0-0.1,0-0.3,0-0.5c0-0.2,0.1-0.4,0.1-0.6C2,1.1,3.5,0,5,0l39.7,0.6l2.5,0c0.2,0,0.4,0,0.7,0c0.3,0,0.6,0.1,0.9,0.2
			c0.6,0.2,1.1,0.7,1.4,1.2c0.2,0.3,0.3,0.6,0.3,0.9c0.1,0.3,0.1,0.6,0,0.8l0,1.2l0,2.5l0,9.9c0,6.6,0.1,13.2,0.2,19.9L51,57.2
			L51.4,77l0.7,39.7c0.2,13.2,0.3,26.5,0.2,39.7c0,13.2,0,26.5-0.2,39.7c-0.1,13.2-0.3,26.5-0.5,39.7l-0.3,19.9l-0.1,9.9l-0.1,5
			l0,1.2l0,0.6c0,0.1,0,0.3,0,0.4c0,0.2-0.1,0.4-0.1,0.5C50.6,274.9,49.2,276,47.8,275.9z M47.8,273.2c0.2,0,0.4-0.2,0.5-0.4
			c0,0,0-0.1,0-0.1c0,0,0,0,0-0.2l0-0.6l0-1.2l-0.1-5l-0.1-9.9l-0.3-19.9c-0.2-13.2-0.4-26.5-0.5-39.7C47,183,47,169.7,47,156.5
			c0-13.2,0.1-26.5,0.2-39.7L47.9,77l0.4-19.9l0.3-19.9c0-6.6,0.2-13.2,0.2-19.9l0-9.9l0-2.5l0-1.2c0-0.2,0-0.3,0-0.4
			c0-0.1-0.1-0.2-0.1-0.3c-0.1-0.2-0.3-0.3-0.5-0.4c-0.1,0-0.2-0.1-0.3-0.1c-0.1,0-0.4,0-0.6,0l-2.5,0L5,3.3c-0.1,0-0.2,0.1-0.2,0.2
			l0,2l0.1,5l0.2,9.9l0.4,19.9C5.8,53.5,5.9,66.8,6,80l0.3,39.7c0.1,13.2,0.1,26.5,0.1,39.7c-0.1,26.5-0.2,53-0.8,79.4L5,258.8
			l-0.2,9.9l-0.1,2.5l0,1.2l0,0.3c0,0,0,0.1,0,0.1c0,0.1,0.1,0.1,0.1,0.2c0,0,0.1,0,0.1,0c0,0,0.1,0,0.2,0l0.3,0l2.5,0l19.9,0.3
			l9.9,0.2C41.1,273.7,44.4,273.2,47.8,273.2z"/>
	</g>
	<g>
		<path class="st0" d="M94.3,274.6H51.5c-1,0-1.9-0.8-1.9-1.9V3.5c0-1,0.8-1.9,1.9-1.9h42.7c1,0,1.9,0.8,1.9,1.9v269.1
			C96.2,273.7,95.3,274.6,94.3,274.6z"/>
		<path d="M94.3,274.9L74.4,275c-6.6,0.1-13.2,0.2-19.9,0.4l-2.5,0.1c-0.2,0-0.4,0-0.7,0c-0.3,0-0.6-0.1-0.9-0.2
			c-0.6-0.2-1.1-0.6-1.4-1.2c-0.2-0.3-0.3-0.6-0.3-0.9c-0.1-0.3-0.1-0.6-0.1-0.8l0-1.2l-0.1-2.5l-0.3-9.9l-0.6-19.9
			c-0.2-6.6-0.4-13.2-0.6-19.9l-0.2-9.9l-0.1-9.9c-0.1-6.6-0.1-13.2-0.2-19.9l-0.1-19.9l0-19.9c0-6.6,0-13.2,0.1-19.9L46.8,80
			c0.1-13.2,0.2-26.5,0.4-39.7l0.4-19.9l0.2-9.9l0.1-5l0-1.2l0-0.6c0-0.1,0-0.3,0-0.5C48,3,48,2.8,48.1,2.6C48.5,1.1,50,0,51.5,0
			l19.9,0.4l9.9,0.2l9.9,0.1l2.5,0c0.2,0,0.4,0,0.7,0c0.3,0,0.6,0.1,0.9,0.2c0.6,0.2,1.1,0.7,1.4,1.2C96.9,2.4,97,2.7,97.1,3
			c0.1,0.3,0.1,0.6,0.1,0.8l0,1.2l0,2.5l0,9.9c0,6.6,0,13.2,0.1,19.9l0.3,19.9L97.8,77l0.8,39.7c0.4,26.5,0.2,53-0.6,79.4
			c-0.4,13.2-0.8,26.5-1.1,39.7c-0.2,6.6-0.2,13.2-0.4,19.9c-0.1,3.3,0,6.6-0.1,9.9l0,5l0,1.2c0,0.4,0,0.8-0.1,1.3
			C96.2,274.2,95.2,274.9,94.3,274.9z M94.3,274.3c0.7,0,1.4-0.5,1.5-1.2c0.1-0.3,0-0.7,0.1-1.2l0-1.2l0-5c0-3.3,0-6.6-0.1-9.9
			c-0.1-6.6-0.2-13.2-0.4-19.9c-0.3-13.2-0.8-26.5-1.1-39.7c-0.8-26.5-1-53-0.6-79.4L94.5,77l0.4-19.9l0.3-19.9
			c0-6.6,0.1-13.2,0.1-19.9l0-9.9l0-2.5l0-1.2c0-0.2,0-0.3,0-0.4c0-0.1-0.1-0.2-0.1-0.3c-0.1-0.2-0.3-0.3-0.5-0.4
			c-0.1,0-0.2-0.1-0.3-0.1c-0.1,0-0.4,0-0.6,0l-2.5,0l-9.9,0.1l-9.9,0.2L51.5,3.3c-0.1,0-0.2,0.1-0.2,0.2l0,2l0.1,5l0.2,9.9
			l0.4,19.9c0.2,13.2,0.3,26.5,0.4,39.7l0.3,39.7c0.1,6.6,0.1,13.2,0.1,19.9l0,19.9l-0.1,19.9c0,6.6-0.1,13.2-0.2,19.9l-0.1,9.9
			l-0.2,9.9c-0.1,6.6-0.4,13.2-0.6,19.9L51,258.8l-0.3,9.9l-0.1,2.5l0,1.2c0,0.2,0,0.3,0,0.4c0,0.1,0,0.2,0.1,0.3
			c0.1,0.2,0.3,0.3,0.5,0.4c0.1,0,0.2,0.1,0.3,0.1c0.1,0,0.4,0,0.6,0l2.5,0.1c6.6,0.2,13.2,0.3,19.9,0.4L94.3,274.3z"/>
	</g>
	<g>
		<path class="st0" d="M140.8,274.6H98.1c-1,0-1.9-0.8-1.9-1.9V3.5c0-1,0.8-1.9,1.9-1.9h42.7c1,0,1.9,0.8,1.9,1.9v269.1
			C142.7,273.7,141.8,274.6,140.8,274.6z"/>
		<path d="M140.8,274.9l-19.9,0.1c-6.6,0.1-13.2,0.2-19.9,0.4l-2.5,0.1c-0.2,0-0.4,0-0.7,0c-0.3,0-0.6-0.1-0.9-0.2
			c-0.6-0.2-1.1-0.6-1.4-1.2c-0.2-0.3-0.3-0.6-0.3-0.9c-0.1-0.3-0.1-0.6-0.1-0.8l0-1.2l-0.1-2.5l-0.3-9.9l-0.6-19.9
			c-0.2-6.6-0.4-13.2-0.6-19.9l-0.2-9.9l-0.1-9.9c-0.1-6.6-0.1-13.2-0.2-19.9L93,159.5l0-19.9c0-6.6,0-13.2,0.1-19.9L93.3,80
			c0.1-13.2,0.2-26.5,0.4-39.7l0.4-19.9l0.2-9.9l0.1-5l0-1.2l0-0.6c0-0.1,0-0.3,0-0.5c0-0.2,0.1-0.4,0.1-0.6C95,1.1,96.5,0,98.1,0
			l19.9,0.4l9.9,0.2l9.9,0.1l2.5,0c0.2,0,0.4,0,0.7,0c0.3,0,0.6,0.1,0.9,0.2c0.6,0.2,1.1,0.7,1.4,1.2c0.2,0.3,0.3,0.6,0.3,0.9
			c0.1,0.3,0.1,0.6,0.1,0.8l0,1.2l0,2.5l0,9.9c0,6.6,0,13.2,0.1,19.9l0.3,19.9l0.4,19.9l0.8,39.7c0.4,26.5,0.2,53-0.6,79.4
			c-0.4,13.2-0.8,26.5-1.1,39.7c-0.2,6.6-0.2,13.2-0.4,19.9c-0.1,3.3,0,6.6-0.1,9.9l0,5l0,1.2c0,0.4,0,0.8-0.1,1.3
			C142.7,274.2,141.7,274.9,140.8,274.9z M140.8,274.3c0.7,0,1.4-0.5,1.5-1.2c0.1-0.3,0-0.7,0.1-1.2l0-1.2l0-5c0-3.3,0-6.6-0.1-9.9
			c-0.1-6.6-0.2-13.2-0.4-19.9c-0.3-13.2-0.8-26.5-1.1-39.7c-0.8-26.5-1-53-0.6-79.4L141,77l0.4-19.9l0.3-19.9
			c0-6.6,0.1-13.2,0.1-19.9l0-9.9l0-2.5l0-1.2c0-0.2,0-0.3,0-0.4c0-0.1-0.1-0.2-0.1-0.3c-0.1-0.2-0.3-0.3-0.5-0.4
			c-0.1,0-0.2-0.1-0.3-0.1c-0.1,0-0.4,0-0.6,0l-2.5,0l-9.9,0.1l-9.9,0.2L98.1,3.3c-0.1,0-0.2,0.1-0.2,0.2l0,2l0.1,5l0.2,9.9
			l0.4,19.9C98.8,53.5,98.9,66.8,99,80l0.3,39.7c0.1,6.6,0.1,13.2,0.1,19.9l0,19.9l-0.1,19.9c0,6.6-0.1,13.2-0.2,19.9l-0.1,9.9
			l-0.2,9.9c-0.1,6.6-0.4,13.2-0.6,19.9l-0.6,19.9l-0.3,9.9l-0.1,2.5l0,1.2c0,0.2,0,0.3,0,0.4c0,0.1,0,0.2,0.1,0.3
			c0.1,0.2,0.3,0.3,0.5,0.4c0.1,0,0.2,0.1,0.3,0.1c0.1,0,0.4,0,0.6,0l2.5,0.1c6.6,0.2,13.2,0.3,19.9,0.4L140.8,274.3z"/>
	</g>
	<g>
		<path class="st0" d="M187.3,274.6h-42.7c-1,0-1.9-0.8-1.9-1.9V3.5c0-1,0.8-1.9,1.9-1.9h42.7c1,0,1.9,0.8,1.9,1.9v269.1
			C189.2,273.7,188.3,274.6,187.3,274.6z"/>
		<path d="M187.3,275.9c-3.3,0-6.6-0.5-9.9-0.4l-9.9,0.2l-19.9,0.3l-2.5,0l-0.3,0c-0.1,0-0.2,0-0.4,0c-0.4,0-0.7-0.1-1.1-0.2
			c-0.7-0.3-1.3-0.8-1.7-1.4c-0.2-0.3-0.3-0.7-0.4-1.1c0-0.2-0.1-0.4-0.1-0.6l0-0.4l0-1.2l-0.1-2.5l-0.2-9.9l-0.4-19.9
			c-0.6-26.5-0.7-53-0.8-79.4c0-13.2,0-26.5,0.1-39.7l0.3-39.7c0.1-13.2,0.2-26.5,0.4-39.7l0.4-19.9l0.2-9.9l0.1-5l0-1.2l0-0.6
			c0-0.1,0-0.3,0-0.5c0-0.2,0.1-0.4,0.1-0.6c0.4-1.5,1.9-2.6,3.4-2.6l39.7,0.6l2.5,0c0.2,0,0.4,0,0.7,0c0.3,0,0.6,0.1,0.9,0.2
			c0.6,0.2,1.1,0.7,1.4,1.2c0.2,0.3,0.3,0.6,0.3,0.9c0.1,0.3,0.1,0.6,0,0.8l0,1.2l0,2.5l0,9.9c0,6.6,0.1,13.2,0.2,19.9l0.3,19.9
			l0.4,19.9l0.7,39.7c0.2,13.2,0.3,26.5,0.2,39.7c0,13.2,0,26.5-0.2,39.7c-0.1,13.2-0.3,26.5-0.5,39.7l-0.3,19.9l-0.1,9.9l-0.1,5
			l0,1.2l0,0.6c0,0.1,0,0.3,0,0.4c0,0.2-0.1,0.4-0.1,0.5C190.1,274.9,188.7,276,187.3,275.9z M187.3,273.2c0.2,0,0.4-0.2,0.5-0.4
			c0,0,0-0.1,0-0.1c0,0,0,0,0-0.2l0-0.6l0-1.2l-0.1-5l-0.1-9.9l-0.3-19.9c-0.2-13.2-0.4-26.5-0.5-39.7c-0.2-13.2-0.2-26.5-0.2-39.7
			c0-13.2,0.1-26.5,0.2-39.7l0.7-39.7l0.4-19.9l0.3-19.9c0-6.6,0.2-13.2,0.2-19.9l0-9.9l0-2.5l0-1.2c0-0.2,0-0.3,0-0.4
			c0-0.1-0.1-0.2-0.1-0.3c-0.1-0.2-0.3-0.3-0.5-0.4c-0.1,0-0.2-0.1-0.3-0.1c-0.1,0-0.4,0-0.6,0l-2.5,0l-39.7,0.6
			c-0.1,0-0.2,0.1-0.2,0.2l0,2l0.1,5l0.2,9.9l0.4,19.9c0.2,13.2,0.3,26.5,0.4,39.7l0.3,39.7c0.1,13.2,0.1,26.5,0.1,39.7
			c-0.1,26.5-0.2,53-0.8,79.4l-0.4,19.9l-0.2,9.9l-0.1,2.5l0,1.2l0,0.3c0,0,0,0.1,0,0.1c0,0.1,0.1,0.1,0.1,0.2c0,0,0.1,0,0.1,0
			c0,0,0.1,0,0.2,0l0.3,0l2.5,0l19.9,0.3l9.9,0.2C180.7,273.7,184,273.2,187.3,273.2z"/>
	</g>
	<g>
		<path class="st0" d="M174.4,30.5V65c0,1-0.8,1.9-1.9,1.9H19.9c-1,0-1.9-0.8-1.9-1.9V30.5c0-1,0.8-1.9,1.9-1.9h152.6
			C173.5,28.6,174.4,29.5,174.4,30.5z"/>
		<g>
			<g>
				<path d="M174.4,30.5c-1.2,5-1.9,8.4-1.9,14.4c0,3.7,0,11.1,0,20c-20.9,0-45.5,0-69,0c-24.3,0-47.5,0-64.6,0
					c-7.9,0-14.4,0-18.9,0c0-3.9,0-6.2,0-6.2s0-11,0-28.2c0-0.1,0-0.1,0-0.1l0,0l0,0l0,0l0,0l0,0l0,0h0l0.1,0c1.1,0,2.3,0,3.4,0
					c2.3,0,4.7,0,7.2,0c5,0,10.2,0,15.7,0c11,0,22.8,0,35,0c32.5,0,67.9,0,79.7,0c3,0,5.3-0.2,7.6-0.5c1.1-0.2,2.2-0.4,3.3-0.6
					c0.2-0.1,0.5-0.1,0.7-0.2c0.2,0,0.4,0,0.6,0.1C173.7,29.5,174.2,29.9,174.4,30.5c0.2-0.6,0-1.4-0.5-1.9
					c-0.3-0.3-0.6-0.5-0.9-0.6c-0.4-0.1-0.7-0.2-0.9-0.2c-1.1-0.2-2.2-0.4-3.3-0.6c-2.2-0.3-4.6-0.5-7.6-0.5c-11.8,0-47.2,0-79.7,0
					c-12.1,0-24,0-35,0c-5.5,0-10.7,0-15.7,0c-2.5,0-4.9,0-7.2,0c-1.2,0-2.3,0-3.4,0l-0.3,0c-0.1,0-0.3,0-0.4,0
					c-0.3,0-0.5,0.1-0.8,0.2c-0.5,0.2-1,0.5-1.4,0.9c-0.4,0.4-0.7,0.9-0.9,1.4c-0.1,0.3-0.2,0.5-0.2,0.8c0,0.1,0,0.3,0,0.4
					c0,0.1,0,0.3,0,0.3c0,17.1,0,28.2,0,28.2s0,0.7,0,2c0,0.7,0,1.5,0,2.4c0,0.5,0,1,0,1.5V65c0,0.1,0,0.3,0,0.4
					c0,0.3,0.1,0.6,0.2,0.8c0.2,0.6,0.5,1.1,0.9,1.5c0.4,0.4,1,0.8,1.6,1c0.3,0.1,0.6,0.2,1,0.2c0.4,0,0.4,0,0.6,0
					c0.7,0,1.4,0,2.1,0c1.5,0,3.1,0,4.8,0c3.4,0,7.3,0,11.6,0c17.1,0,40.3,0,64.6,0c12.1,0,24.6,0,36.6,0c6,0,12,0,17.8,0
					c2.9,0,5.7,0,8.5,0c1.4,0,2.8,0,4.2,0l1,0l0.5,0c0.2,0,0.2,0,0.7,0c1.4-0.1,2.6-0.9,3.2-2.2c0.1-0.3,0.3-0.6,0.3-1
					c0-0.2,0.1-0.3,0.1-0.5l0-0.3v-0.1l0-1c0-0.7,0-1.3,0-2c0-1.3,0-2.6,0-3.9c0-2.4,0-4.8,0-7.1c0-0.9,0-1.7,0-2.5
					c0-1.5,0-2.7,0-3.5C176.3,38.9,175.6,35.5,174.4,30.5z"/>
			</g>
		</g>
	</g>
	<g>
		<path class="st0" d="M176.7,199.6v34.5c0,1-0.8,1.9-1.9,1.9H17.5c-1,0-1.9-0.8-1.9-1.9v-34.5c0-1,0.8-1.9,1.9-1.9h157.3
			C175.8,197.7,176.7,198.6,176.7,199.6z"/>
		<g>
			<g>
				<path d="M176.7,199.6c-1.2,5-1.9,8.4-1.9,14.4c0,3.7,0,11.1,0,20c-21.6,0-47,0-71.3,0c-24.9,0-48.8,0-66.3,0
					c-8.1,0-14.8,0-19.5,0c0-4.1,0-6.4,0-6.4s0-1.3,0-6.7c0-2.7,0-6.4,0-11.4c0-2.5,0-5.4,0-8.6c0-0.4,0-0.8,0-1.2l0-0.2
					c0,0,0,0,0,0l0,0l0,0l0,0l0,0l0.6,0c1.8,0,3.7,0,5.7,0c16,0,116.2,0,139.4,0c3,0,5.3-0.2,7.6-0.5c1.1-0.2,2.2-0.4,3.3-0.6
					c0.2-0.1,0.5-0.1,0.7-0.2c0.2,0,0.4,0,0.6,0.1C176.1,198.6,176.5,199,176.7,199.6c0.2-0.6,0-1.4-0.5-1.9
					c-0.3-0.3-0.6-0.5-0.9-0.6c-0.4-0.1-0.7-0.2-0.9-0.2c-1.1-0.2-2.2-0.4-3.3-0.6c-2.2-0.3-4.6-0.5-7.6-0.5
					c-23.2,0-123.4,0-139.4,0c-2,0-3.9,0-5.7,0l-0.7,0c-0.4,0-0.9,0.1-1.3,0.2c-0.8,0.3-1.5,0.9-2,1.6c-0.2,0.4-0.4,0.8-0.5,1.2
					c0,0.2-0.1,0.4-0.1,0.6c0,0.1,0,0.2,0,0.3l0,0.2c0,0.4,0,0.8,0,1.2c0,3.2,0,6.1,0,8.6c0,5,0,8.7,0,11.4c0,5.4,0,6.7,0,6.7
					s0,0.7,0,2c0,0.7,0,1.5,0,2.5c0,0.5,0,1,0,1.6c0,0.1,0,0.9,0.2,1.4c0.2,0.6,0.5,1.1,0.9,1.6c0.4,0.5,1,0.8,1.6,1
					c0.3,0.1,0.6,0.2,1,0.2l0.2,0l0.1,0H18c0.7,0,1.4,0,2.2,0c1.5,0,3.2,0,4.9,0c3.5,0,7.5,0,11.9,0c17.6,0,41.4,0,66.3,0
					c12.5,0,25.2,0,37.6,0c6.2,0,12.3,0,18.3,0c3,0,5.9,0,8.8,0c1.4,0,2.9,0,4.3,0c0.7,0,1.4,0,2.1,0l0.3,0c0.1,0,0.3,0,0.5,0
					c0.3,0,0.7-0.1,1-0.2c0.6-0.2,1.2-0.7,1.6-1.2c0.4-0.5,0.7-1.2,0.8-1.9c0-0.2,0-0.3,0-0.5l0-0.3v-0.5c0-0.7,0-1.4,0-2
					c0-1.3,0-2.7,0-4c0-2.5,0-4.9,0-7.2c0-0.9,0-1.7,0-2.5c0-1.5,0-2.7,0-3.5C178.6,208,177.9,204.6,176.7,199.6z"/>
			</g>
		</g>
	</g>
	<g>
		<circle class="st0" cx="49.7" cy="47.8" r="2.6"/>
		<path d="M52.7,47.8c0,0.4,0.2,0.8,0.5,1.5c0.3,0.7,0.6,1.6,0.5,2.6c-0.1,1-0.6,1.9-1.4,2.4c-0.8,0.5-1.8,0.6-2.7,0.3
			c-0.9-0.3-1.6-1.1-2-1.8c-0.4-0.8-0.7-1.5-0.9-2c-0.3-0.5-0.6-0.9-1-1.3c-0.4-0.4-0.9-0.9-1.4-1.6c-0.5-0.7-0.8-1.6-0.8-2.5
			c0-0.9,0.4-1.8,0.9-2.6c0.5-0.8,1.3-1.5,2.2-2.1c0.9-0.5,2-0.8,3-0.7c1,0.1,2,0.4,2.8,1.1c0.8,0.6,1.3,1.7,1.3,2.7
			c0.1,1-0.3,2-0.5,2.7C53,47,52.7,47.4,52.7,47.8z M51.7,47.8c0-0.3-0.4-0.5-0.9-0.5c-0.6,0-1.3,0.4-1.7,1
			c-0.4,0.5-0.5,1.2-0.3,1.6c0.2,0.4,0.5,0.6,0.9,0.7c0.4,0.1,0.7,0,1-0.3c0.3-0.3,0.4-0.6,0.5-0.9c0.1-0.3,0.1-0.6-0.2-1
			c-0.2-0.3-0.7-0.5-1.2-0.6c-0.4,0-0.9,0.2-1,0.3c-0.1,0.2-0.1,0.4,0.1,0.3c0.2,0,0.6-0.3,0.8-0.9c0.2-0.5,0.1-1.1-0.1-1.4
			c-0.2-0.3-0.5-0.4-0.7-0.1c-0.2,0.2-0.1,0.8,0.3,1.3c0.4,0.5,1.1,0.9,1.6,0.9C51.4,48.3,51.8,48.1,51.7,47.8z"/>
	</g>
	<g>
		<circle class="st0" cx="96.2" cy="47.8" r="2.6"/>
		<path d="M99.2,47.8c0,0.4,0.2,0.8,0.5,1.5c0.3,0.7,0.6,1.6,0.5,2.6c-0.1,1-0.6,1.9-1.4,2.4c-0.8,0.5-1.8,0.6-2.7,0.3
			c-0.9-0.3-1.6-1.1-2-1.8c-0.4-0.8-0.7-1.5-0.9-2c-0.3-0.5-0.6-0.9-1-1.3c-0.4-0.4-0.9-0.9-1.4-1.6c-0.5-0.7-0.8-1.6-0.8-2.5
			c0-0.9,0.4-1.8,0.9-2.6c0.5-0.8,1.3-1.5,2.2-2.1c0.9-0.5,2-0.8,3-0.7c1,0.1,2,0.4,2.8,1.1c0.8,0.6,1.3,1.7,1.3,2.7
			c0.1,1-0.3,2-0.5,2.7C99.5,47,99.2,47.4,99.2,47.8z M98.2,47.8c0-0.3-0.4-0.5-0.9-0.5c-0.6,0-1.3,0.4-1.7,1
			c-0.4,0.5-0.5,1.2-0.3,1.6c0.2,0.4,0.5,0.6,0.9,0.7c0.4,0.1,0.7,0,1-0.3c0.3-0.3,0.4-0.6,0.5-0.9c0.1-0.3,0.1-0.6-0.2-1
			c-0.2-0.3-0.7-0.5-1.2-0.6c-0.4,0-0.9,0.2-1,0.3c-0.1,0.2-0.1,0.4,0.1,0.3c0.2,0,0.6-0.3,0.8-0.9c0.2-0.5,0.1-1.1-0.1-1.4
			c-0.2-0.3-0.5-0.4-0.7-0.1c-0.2,0.2-0.1,0.8,0.3,1.3c0.4,0.5,1.1,0.9,1.6,0.9C97.9,48.3,98.3,48.1,98.2,47.8z"/>
	</g>
	<g>
		<circle class="st0" cx="145.2" cy="47.8" r="2.6"/>
		<path d="M148.3,47.8c0,0.4,0.2,0.8,0.5,1.5c0.3,0.7,0.6,1.6,0.5,2.6c-0.1,1-0.6,1.9-1.4,2.4c-0.8,0.5-1.8,0.6-2.7,0.3
			c-0.9-0.3-1.6-1.1-2-1.8c-0.4-0.8-0.7-1.5-0.9-2c-0.3-0.5-0.6-0.9-1-1.3c-0.4-0.4-0.9-0.9-1.4-1.6c-0.5-0.7-0.8-1.6-0.8-2.5
			c0-0.9,0.4-1.8,0.9-2.6c0.5-0.8,1.3-1.5,2.2-2.1c0.9-0.5,2-0.8,3-0.7c1,0.1,2,0.4,2.8,1.1c0.8,0.6,1.3,1.7,1.3,2.7
			c0.1,1-0.3,2-0.5,2.7C148.6,47,148.3,47.4,148.3,47.8z M147.3,47.8c0-0.3-0.4-0.5-0.9-0.5c-0.6,0-1.3,0.4-1.7,1
			c-0.4,0.5-0.5,1.2-0.3,1.6c0.2,0.4,0.5,0.6,0.9,0.7c0.4,0.1,0.7,0,1-0.3c0.3-0.3,0.4-0.6,0.5-0.9c0.1-0.3,0.1-0.6-0.2-1
			c-0.2-0.3-0.7-0.5-1.2-0.6c-0.4,0-0.9,0.2-1,0.3c-0.1,0.2-0.1,0.4,0.1,0.3c0.2,0,0.6-0.3,0.8-0.9c0.2-0.5,0.1-1.1-0.1-1.4
			c-0.2-0.3-0.5-0.4-0.7-0.1c-0.2,0.2-0.1,0.8,0.3,1.3c0.4,0.5,1.1,0.9,1.6,0.9C147,48.3,147.4,48.1,147.3,47.8z"/>
	</g>
	<g>
		<circle class="st0" cx="50.4" cy="217.8" r="2.6"/>
		<path d="M53.5,217.8c0,0.4,0.2,0.8,0.5,1.5c0.3,0.7,0.6,1.6,0.5,2.6c-0.1,1-0.6,1.9-1.4,2.4c-0.8,0.5-1.8,0.6-2.7,0.3
			c-0.9-0.3-1.6-1.1-2-1.8c-0.4-0.8-0.7-1.5-0.9-2c-0.3-0.5-0.6-0.9-1-1.3c-0.4-0.4-0.9-0.9-1.4-1.6c-0.5-0.7-0.8-1.6-0.8-2.5
			c0-0.9,0.4-1.8,0.9-2.6c0.5-0.8,1.3-1.5,2.2-2.1c0.9-0.5,2-0.8,3-0.7c1,0.1,2,0.4,2.8,1.1c0.8,0.6,1.3,1.7,1.3,2.7
			c0.1,1-0.3,2-0.5,2.7C53.8,216.9,53.5,217.4,53.5,217.8z M52.5,217.8c0-0.3-0.4-0.5-0.9-0.5c-0.6,0-1.3,0.4-1.7,1
			c-0.4,0.5-0.5,1.2-0.3,1.6c0.2,0.4,0.5,0.6,0.9,0.7c0.4,0.1,0.7,0,1-0.3c0.3-0.3,0.4-0.6,0.5-0.9c0.1-0.3,0.1-0.6-0.2-1
			c-0.2-0.3-0.7-0.5-1.2-0.6c-0.4,0-0.9,0.2-1,0.3c-0.1,0.2-0.1,0.4,0.1,0.3c0.2,0,0.6-0.3,0.8-0.9c0.2-0.5,0.1-1.1-0.1-1.4
			c-0.2-0.3-0.5-0.4-0.7-0.1c-0.2,0.2-0.1,0.8,0.3,1.3c0.4,0.5,1.1,0.9,1.6,0.9C52.2,218.3,52.6,218,52.5,217.8z"/>
	</g>
	<g>
		<circle class="st0" cx="96.9" cy="217.7" r="2.6"/>
		<path d="M100,217.7c0,0.4,0.2,0.8,0.5,1.5c0.3,0.7,0.6,1.6,0.5,2.6c-0.1,1-0.6,1.9-1.4,2.4c-0.8,0.5-1.8,0.6-2.7,0.3
			c-0.9-0.3-1.6-1.1-2-1.8c-0.4-0.8-0.7-1.5-0.9-2c-0.3-0.5-0.6-0.9-1-1.3c-0.4-0.4-0.9-0.9-1.4-1.6c-0.5-0.7-0.8-1.6-0.8-2.5
			c0-0.9,0.4-1.8,0.9-2.6c0.5-0.8,1.3-1.5,2.2-2.1c0.9-0.5,2-0.8,3-0.7c1,0.1,2,0.4,2.8,1.1c0.8,0.6,1.3,1.7,1.3,2.7
			c0.1,1-0.3,2-0.5,2.7C100.3,216.9,100,217.3,100,217.7z M99,217.7c0-0.3-0.4-0.5-0.9-0.5c-0.6,0-1.3,0.4-1.7,1
			c-0.4,0.5-0.5,1.2-0.3,1.6c0.2,0.4,0.5,0.6,0.9,0.7c0.4,0.1,0.7,0,1-0.3c0.3-0.3,0.4-0.6,0.5-0.9c0.1-0.3,0.1-0.6-0.2-1
			c-0.2-0.3-0.7-0.5-1.2-0.6c-0.4,0-0.9,0.2-1,0.3c-0.1,0.2-0.1,0.4,0.1,0.3c0.2,0,0.6-0.3,0.8-0.9c0.2-0.5,0.1-1.1-0.1-1.4
			c-0.2-0.3-0.5-0.4-0.7-0.1c-0.2,0.2-0.1,0.8,0.3,1.3c0.4,0.5,1.1,0.9,1.6,0.9C98.7,218.3,99.1,218,99,217.7z"/>
	</g>
	<g>
		<circle class="st0" cx="146" cy="217.7" r="2.6"/>
		<path d="M149.1,217.7c0,0.4,0.2,0.8,0.5,1.5c0.3,0.7,0.6,1.6,0.5,2.6c-0.1,1-0.6,1.9-1.4,2.4c-0.8,0.5-1.8,0.6-2.7,0.3
			c-0.9-0.3-1.6-1.1-2-1.8c-0.4-0.8-0.7-1.5-0.9-2c-0.3-0.5-0.6-0.9-1-1.3c-0.4-0.4-0.9-0.9-1.4-1.6c-0.5-0.7-0.8-1.6-0.8-2.5
			c0-0.9,0.4-1.8,0.9-2.6c0.5-0.8,1.3-1.5,2.2-2.1c0.9-0.5,2-0.8,3-0.7c1,0.1,2,0.4,2.8,1.1c0.8,0.6,1.3,1.7,1.3,2.7
			c0.1,1-0.3,2-0.5,2.7C149.4,216.9,149.1,217.3,149.1,217.7z M148.1,217.7c0-0.3-0.4-0.5-0.9-0.5c-0.6,0-1.3,0.4-1.7,1
			c-0.4,0.5-0.5,1.2-0.3,1.6c0.2,0.4,0.5,0.6,0.9,0.7c0.4,0.1,0.7,0,1-0.3c0.3-0.3,0.4-0.6,0.5-0.9c0.1-0.3,0.1-0.6-0.2-1
			c-0.2-0.3-0.7-0.5-1.2-0.6c-0.4,0-0.9,0.2-1,0.3c-0.1,0.2-0.1,0.4,0.1,0.3c0.2,0,0.6-0.3,0.8-0.9c0.2-0.5,0.1-1.1-0.1-1.4
			c-0.2-0.3-0.5-0.4-0.7-0.1c-0.2,0.2-0.1,0.8,0.3,1.3c0.4,0.5,1.1,0.9,1.6,0.9C147.8,218.3,148.1,218,148.1,217.7z"/>
	</g>
	<g>
		<g>
			<ellipse class="st0" cx="168.3" cy="141.7" rx="12.6" ry="14.2"/>
			<g>
				<g>
					<path d="M180.9,141.7c-0.7,2.5-1.6,4.3-2.7,6c-0.6,0.8-1.2,1.7-2,2.4c-0.7,0.8-1.6,1.6-2.7,2.2c-0.2,0.1-0.4,0.3-0.6,0.4
						c-0.3,0.1-0.6,0.3-0.9,0.5c-0.7,0.3-1.8,0.6-3.2,0.7c-1.3,0.1-3.1-0.1-4.8-1c-0.9-0.4-1.7-1-2.4-1.7c-0.7-0.7-1.4-1.5-1.9-2.3
						c-1.1-1.6-1.6-3.4-1.8-4.7c-0.2-1.3-0.2-2.1-0.2-2.1s0-0.2,0-0.5c0-0.3,0-0.8,0.1-1.3c0.1-1.1,0.4-2.7,1.1-4.2
						c0.7-1.6,1.8-3.2,3.2-4.3c1.4-1.2,3-1.9,4.4-2.1c1.9-0.4,3.4-0.1,4.6,0.2c1.2,0.4,2,0.8,2.5,1.2c1.1,0.7,1.9,1.4,2.7,2.2
						c0.8,0.8,1.4,1.6,2,2.4C179.3,137.4,180.3,139.2,180.9,141.7c0.6-2.5,0.6-4.9-0.2-7.2c-0.4-1.2-0.9-2.4-1.7-3.5
						c-0.8-1.1-1.9-2.3-3.3-3.2c-0.7-0.5-1.8-1.1-3.4-1.6c-1.6-0.5-3.9-0.9-6.5-0.4c-2,0.4-4.3,1.4-6.2,3c-1.9,1.6-3.4,3.7-4.3,5.7
						c-0.9,2.1-1.3,4.1-1.4,5.5c-0.1,0.7-0.1,1.3-0.1,1.7c0,0.4,0,0.6,0,0.6s0,1,0.3,2.7c0.3,1.6,1,3.9,2.4,6.1
						c0.7,1.1,1.6,2.1,2.5,3.1c1,0.9,2.1,1.7,3.3,2.3c2.4,1.2,4.9,1.5,6.8,1.4c2-0.1,3.5-0.6,4.5-1c0.5-0.2,0.9-0.4,1.3-0.6
						c0.4-0.2,0.7-0.4,0.9-0.5c1.5-0.9,2.5-2.1,3.3-3.2c0.8-1.1,1.4-2.3,1.7-3.5C181.5,146.6,181.5,144.2,180.9,141.7z"/>
				</g>
			</g>
		</g>
		<g>
			<path class="st0" d="M166.2,141.7c9.1,0.2,16.3,8.1,16.1,17.7c-0.2,9.6-7.7,17.3-16.7,17.1c-9.1-0.2-16.3-8.1-16.1-17.7
				C149.6,149.2,157.1,141.5,166.2,141.7z M165.8,145c-7.6,0-13.8,6.5-13.8,14.4c0,8,6.2,14.4,13.8,14.4c7.6,0,13.8-6.5,13.8-14.4
				C179.7,151.5,173.5,145,165.8,145z"/>
			<g>
				<path d="M166.2,141c4.6-0.1,9.4,1.8,12.6,5.3c3.3,3.4,5,8.3,4.8,13c-0.2,2.4-0.7,4.7-1.7,6.8c-1,2.1-2.4,4-4,5.6
					c-1.6,1.6-3.5,2.9-5.6,3.9c-2.1,1-4.3,1.6-6.7,1.6c-2.3,0.1-4.7-0.3-6.9-1.2c-2.2-0.9-4.2-2.4-5.8-4.1c-1.6-1.8-2.9-3.8-3.8-6.1
					c-0.9-2.2-1.3-4.7-1.2-7.1c0.1-2.4,0.6-4.8,1.5-7c0.9-2.2,2.4-4.2,4.1-5.8c1.7-1.6,3.8-2.9,5.9-3.7l1.7-0.5l1.7-0.3
					C163.9,141.3,165.1,141.3,166.2,141z M166.2,142.4c-0.5,0-1.1-0.2-1.6-0.1l-1.6,0.3l-1.5,0.5l-1.5,0.6c-1.9,1-3.5,2.3-4.8,3.9
					c-2.6,3.2-4.1,7.2-4.1,11.3c0,4,1.3,8.1,3.9,11.2c2.6,3.1,6.4,5.3,10.6,5.6c2.1,0.1,4.2-0.2,6.3-0.9c2-0.7,3.8-2.1,5.2-3.7
					c2.9-3.2,4.2-7.6,4-11.7c-0.1-4.1-1.5-8.2-4.2-11.3c-1.3-1.6-2.9-2.9-4.8-3.9C170.4,143.1,168.3,142.5,166.2,142.4z"/>
				<path d="M165.8,145.7c-1.8,0.1-3.5,0.6-5,1.3c-1.5,0.8-2.9,1.9-4,3.2c-2.2,2.6-3.5,5.8-3.6,9.2c-0.2,3.4,0.8,7,3.1,9.7
					c1.2,1.3,2.6,2.5,4.3,3.1c1.7,0.6,3.5,0.9,5.2,0.8c3.5-0.3,6.6-2,8.9-4.5c2.2-2.5,3.4-5.8,3.4-9.1c0-3.3-1.1-6.6-3.2-9.3
					c-1.1-1.3-2.4-2.5-3.9-3.3l-1.2-0.6l-1.3-0.4l-1.3-0.3C166.7,145.4,166.3,145.7,165.8,145.7z M165.8,144.3
					c1,0.3,1.9,0.3,2.9,0.4l1.4,0.3l1.4,0.4c1.8,0.7,3.6,1.7,5,3.1c1.5,1.4,2.7,3,3.5,4.9c0.8,1.9,1.2,3.9,1.2,6c0,2-0.4,4.1-1.2,6
					c-0.8,1.9-1.9,3.6-3.3,5.1c-1.4,1.5-3.1,2.6-5,3.3c-1.9,0.7-3.9,1-5.9,0.9c-2-0.1-3.9-0.6-5.6-1.5c-1.7-0.9-3.3-1.9-4.7-3.3
					c-1.4-1.3-2.5-2.9-3.4-4.7c-0.8-1.8-1.3-3.7-1.4-5.7c-0.2-4,1.4-8.1,4.3-10.9C157.9,145.6,161.9,144.1,165.8,144.3z"/>
			</g>
		</g>
		<g>
			<g>
				<g>
					<path d="M168.4,146c-0.6-1.9-0.5-2.9-0.9-3.1c-0.2-0.1-0.7-0.4-0.9-0.7c-0.2-0.3-0.2-0.5-0.2-0.5c0,0,0-0.2,0.2-0.5
						c0.2-0.3,0.8-0.6,1-0.7c0.4-0.2,0.3-1.2,0.9-3.1c-0.7-1.9-1.7-2.8-2.9-2.4c-0.6,0.2-2.6,1.1-3.8,2.8c-0.6,0.8-1,1.8-1.1,2.6
						c-0.1,0.4-0.1,0.7-0.1,0.9c0,0.2,0,0.3,0,0.3s0,0.5,0.1,1.3c0.1,0.8,0.5,1.8,1.1,2.6c1.2,1.8,3.1,2.7,3.7,2.9
						C166.6,148.8,167.6,147.9,168.4,146z"/>
				</g>
			</g>
		</g>
	</g>
</g>
</svg>
